<?xml version="1.0" encoding="utf-8"?>
<!-- Generator: Adobe Illustrator 25.0.1, SVG Export Plug-In . SVG Version: 6.00 Build 0)  -->
<svg version="1.1" id="Layer_1" xmlns="http://www.w3.org/2000/svg" xmlns:xlink="http://www.w3.org/1999/xlink" x="0px" y="0px"
	 viewBox="0 0 717.5 775.4" style="enable-background:new 0 0 717.5 775.4;" xml:space="preserve">
<style type="text/css">
	.st0{fill:none;}
</style>
<path d="M717.5,310c-14.1-1.3-28.2-2.7-42.3-3.9c-5.9-0.5-11.9-0.6-17.8-1.1c-17.8-1.3-35.5-2.7-53.3-3.9c-4-0.3-7.9,0-12.6,0
	c0.4,2.9,0.6,5.6,1.2,8.2c3.1,13,6.5,26,9.4,39c3,13.7,5.7,27.5,8.4,41.2c2.6,13.3,5.4,26.6,7.6,40c1.8,10.8,3,21.7,4.4,32.6
	c1.7,14.4,3.3,28.7,4.9,43.1c0.4,3.9,0.9,7.9,1,11.8c0.4,21.9,1.7,43.9,0.8,65.7c-0.8,18.8-3.5,37.6-6.8,56.2
	c-3,16.3-7,32.5-11.9,48.3c-4.3,13.5-9.3,26.8-15,39.7c-3.9,9.1-8.9,17.8-14,26.3c-2.7,4.6-7.7,6.4-12.8,7.1
	c-13.4,2-26.9,4.1-40.3,5.9c-7,1-14.1,1.4-21.1,2.1c-10.3,1-20.6,2.3-30.9,3c-19,1.2-38,2.1-56.9,3.1c-0.9,0.2-1.7,0.5-2.5,1H326
	c-0.7-0.3-1.3-0.9-2-1c-11.6-0.4-23.2-0.4-34.8-1.1c-16.1-1-32.2-2.6-48.3-3.9c-8.5-0.7-17.1-1.2-25.6-2.1
	c-10.9-1.1-21.9-2.6-32.8-3.8c-10.3-1.1-20.6-2.3-30.9-3.1c-7.7-0.6-14.1-2.7-17.1-10.6c-7.5-19.4-15.5-38.6-22.4-58.3
	c-4.9-14.3-9-28.9-12.4-43.7c-2.7-11.6-4.8-23.4-6.2-35.2c-1.9-15.5-3.4-31.1-4.1-46.7c-0.9-20.9-1.4-41.8-0.9-62.7
	c0.4-16.8,2-33.6,4-50.2c1.6-14.1,4.1-28.1,6.8-42.1c4-21,8.3-41.9,13-62.8c3.7-16.7,8.2-33.2,12.3-49.8c0.1-0.8,0-1.6-0.2-2.3
	c-4.4,0-8.3-0.1-12.2,0c-16.5,0.6-33.1,1.2-49.6,2c-16.3,0.8-32.6,1.9-48.9,3c-4.4,0.3-8.8,0.9-13.2,1.3L0,301.1
	c5.6-3.4,11.2-6.7,16.8-10.2c30.8-19,61.7-37.7,92.2-57.1c20.9-13.4,41.6-27.3,61.6-42c18.7-13.7,36.7-28.4,54.6-43.3
	c13.2-11,26-22.5,38.3-34.5c22.8-22.3,44.2-46,62.7-72.1c8.9-12.5,17.5-25.1,26.4-37.6c3.7-5.2,9.1-5.8,13.1-1.2
	c11,12.6,21.7,25.5,32.7,38.2c5.6,6.5,11.2,13,17.2,19.2c25.9,27,51.4,54.4,78,80.7c18.4,18.1,37.8,35.4,57.8,51.8
	c24.3,20,49.2,39.2,74.7,57.7c19.3,14,39.8,26.5,59.9,39.4c10.3,6.6,21,12.6,31.6,18.8V310z M230.3,293c-27.2,0.3-54.3,1.3-81.5,2
	c-2.2,0.1-4.6-0.6-6.4,0.2c-2.9,1.1-6.9,2.6-7.7,5c-3.6,10.8-6.5,21.8-9.3,32.9c-3.5,13.8-6.6,27.6-9.8,41.4c-1.6,7-3,14.1-4.2,21.1
	c-1.7,9.5-3.2,19-4.7,28.5c-1.9,12.6-3.8,25.3-5.3,38c-1.1,10.3-1.8,20.7-2.2,31.1c-0.6,19.3-1.5,38.7-0.8,57.9s2.9,38.7,4.9,58
	c1,9.9,2.2,19.9,4.6,29.6c4.9,19.8,10.2,39.5,16.4,58.8c5.1,15.6,11.7,30.8,18,46c1.1,2.6,3.2,6.1,5.5,6.7c6.3,1.5,13,1.7,19.5,2.3
	c10.8,1.1,21.6,2,32.4,3.1c11.8,1.2,23.5,2.8,35.2,3.9c10,0.9,20.1,1.4,30.1,2.1c18.4,1.3,36.8,3.1,55.3,3.8
	c19.7,0.7,39.4,0.3,59,0.2c21.8-0.2,43.5-0.6,65.2-1.1c8.7-0.2,17.4-1.2,26.1-2c12.1-1.2,24.2-2.6,36.2-3.9
	c9.8-1.1,19.6-2.1,29.3-3.3c8.8-1.1,17.5-2.3,26.3-3.7c4.1-0.6,8.8-0.1,11.2-4.6c5.6-10.6,12.1-21,16.4-32.1
	c6.8-17.8,12.4-36,17.8-54.3c2.9-10,4.7-20.4,6.4-30.7c1.5-9.6,2.5-19.2,3.2-28.9c1-14.3,2.1-28.6,2-42.8
	c-0.1-17.7-1.3-35.4-2.1-53.1c-0.3-6.3-1-12.6-1.8-18.8c-1.3-10.4-2.7-20.8-4.2-31.2c-1.5-10.9-3-21.7-4.8-32.5
	c-1.5-9.5-3.4-19-5.2-28.4c-2.5-12.5-5-24.9-7.7-37.4c-3.3-15.5-6.9-30.9-10.3-46.3c-1.6-7.1-3.4-9.2-10.9-10.3
	c-7.2-1-14.4-1.5-21.6-1.9c-20.8-1.1-41.6-2.1-62.4-3c-18.7-0.8-37.4-1.5-56.1-2c-16.6-0.5-33.2-0.9-49.8-1c-22.8-0.2-45.6,0-68.4,0
	 M674.2,297c0.2-0.4,0.4-0.9,0.6-1.3c-1.5-1.1-2.9-2.3-4.4-3.4c-13.4-8.8-27.2-17.1-40.2-26.5c-23.5-17.1-46.6-34.6-69.6-52.4
	c-12.7-9.9-25-20.5-37.1-31.1c-11.2-9.8-22.1-19.9-32.8-30.2c-15.6-15.1-31.1-30.4-46.2-45.9c-11.9-12.3-23.4-25-34.8-37.7
	c-8.9-9.9-17.5-20-26.2-30c-6.9-7.9-13.9-15.8-20.7-23.8c-2.5-3-4.2-2.9-6.2,0.5c-4,6.6-7.8,13.3-12.5,19.3
	c-15.9,20.2-31.3,40.8-48.4,60c-15.1,16.9-31.6,32.6-48.4,47.7c-17.9,16-36.5,31.3-55.7,45.7c-25.8,19.3-52.2,37.9-79.1,55.8
	c-20.4,13.6-41.8,25.7-62.7,38.6c-3,1.9-5.8,4.2-8.7,6.3l0.6,1.3c1.6,0,3.2,0.1,4.8,0c12.2-1,24.3-2.2,36.5-2.9
	c21.5-1.2,42.9-2.1,64.4-3c12.9-0.5,25.9-0.8,38.8-1.1c15.7-0.4,31.5-1,47.2-0.9c56.9,0.2,113.7,0.5,170.6,0.9
	c19.8,0.1,39.5,0.6,59.2,1c6.9,0.1,13.9,0.7,20.8,0.9c17.4,0.7,34.8,1.2,52.1,2c11.9,0.5,23.8,1.3,35.6,2.1
	c18.6,1.3,37.2,2.6,55.8,4c7.9,0.6,15.8,1.3,23.6,2L674.2,297z"/>
<path d="M163.3,606.5c0-4.2-0.2-8.3,0-12.5c0.9-19,1.7-38,3.1-56.9c0.7-9.3,2.4-18.5,3.9-27.7c0.8-5,4.3-7.1,9.2-6
	c9.5,2.2,18.9,5,28.6,6.6c19.4,3.4,38.9,5.4,58.6,2.6c12.3-1.7,24.5-3.9,36.8-6.1c3.8-0.7,7.5-2.2,11.3-3.1
	c5.8-1.5,9.4,0.5,10.3,6.3c2.2,13.1,4.4,26.1,5.9,39.3c2.3,19.4,4.9,38.9,5.7,58.4s-0.2,39.2-0.7,58.8c-0.2,8.7-1,17.5-2,26.1
	c-1.5,12-3.5,24-5.5,35.9c-0.9,5-2.1,9.9-3.5,14.7c-1.2,4.5-4.9,5.5-8.8,4.8c-11.2-2.2-22.2-5.8-33.5-6.9c-13.8-1.3-27.7-1-41.6-0.5
	c-9.7,0.3-19.3,1.8-28.9,3c-9.9,1.2-19.8,2.6-29.6,4.3c-6.6,1.1-11.8-2.5-12.3-9c-1-15-2.1-30-3-44.9c-1.1-17.5-2.2-35-2.9-52.4
	 M317.5,737.8c1.9-13.4,4.1-26.1,5.5-38.9c1.7-14.7,3.5-29.5,3.8-44.2c0.5-17.4-0.2-34.8-0.9-52.2c-0.6-14.5-1.6-29-3.1-43.4
	c-1.5-13.8-3.8-27.6-5.8-41.3c-0.4-3-1.4-5-5.1-3.7c-2.8,1-5.6,1.8-8.5,2.3c-11.9,2.2-23.7,5.1-35.7,6c-13.3,1-26.7,0.4-40.1,0.2
	c-4.4-0.1-8.9-0.6-13.2-1.4c-8.3-1.6-16.6-3.6-24.8-5.5l-10-2.2c-0.6,1.7-1,3.4-1.4,5.2c-1.4,13.4-3.2,26.8-3.9,40.2
	c-0.9,15.9-1.4,31.8-1.1,47.8c0.5,25.8,1.8,51.5,2.9,77.3c0.8,16.6,1.9,33.3,3.2,49.9c0.1,1.6,2.2,4.2,3.5,4.3
	c3.2,0.2,6.4-0.8,9.6-1.3c10.6-1.8,21.2-4.5,31.9-5.2c15.5-1.1,31.2-1.3,46.7-1c8.3,0.1,16.6,1.6,24.9,2.8
	C302.8,734.5,309.5,736.2,317.5,737.8L317.5,737.8z"/>
<path d="M565.7,627.9c0,8.2,0.3,16.3-0.1,24.5c-0.8,17-1.9,34-3,50.9c-0.3,4.5-4.9,7.9-10.8,8.1c-17.9,0.7-35.7,1.6-53.6,2
	c-16.4,0.3-32.8,0.3-49.3-0.1c-13.2-0.3-26.4-1.2-39.6-2c-6.5-0.4-11-5.6-11.4-12.9c-0.7-12.7-1.6-25.4-2-38.1
	c-0.5-20.4-1.1-40.8-0.8-61.2c0.1-11.8,1.7-23.7,2.8-35.5c0.7-7.3,6-11.5,13.3-12c16.4-1.1,32.8-2.9,49.3-3.7
	c11.1-0.5,22.2,0.4,33.3,0.7c4.8,0.1,9.7-0.1,14.5,0.2c15,0.9,30,1.6,44.9,3c8.3,0.8,9.7,4.7,10.2,12.5c1.4,21.1,2,42.3,2.9,63.5
	L565.7,627.9z M409,701.5c21.3,1,41.7,2.5,62.2,2.9c16.4,0.3,32.8-0.4,49.3-0.9c10-0.3,20.1-1.1,30.1-2c1.2-0.1,3-2.1,3-3.3
	c0.9-12.8,2.1-25.7,2-38.6c-0.3-31.5-1.2-63-1.8-94.5c-0.1-3.1-1.4-4.2-4.1-4.3c-20.5-1-41-2.9-61.4-2.8c-25,0.1-49.9,1.8-74.9,2.7
	c-4,0.1-5.2,2.5-5.5,5.6c-1.1,12.3-2.8,24.6-2.9,36.9c-0.2,21.6,0.5,43.2,0.9,64.7c0.1,6.9,0.5,13.9,1,20.8
	C407.4,692.8,408.3,697,409,701.5z"/>
<path d="M481.1,478.7c-7.8,0-15.6,0.1-23.5,0c-12.6-0.2-25.2-0.5-37.8-1.1c-5.7-0.2-11.5-0.9-17.1-2.1c-2.1-0.5-4.5-2.8-5.5-4.8
	c-1.3-2.6-2-5.5-2.1-8.5c-1.1-30.3-2.6-60.6-2.8-90.9c-0.1-14.4,1.8-28.9,3.8-43.2c1.3-9.2,3.7-10,12.7-11.3
	c24.3-3.6,48.8-3.9,73.2-3.7c16.2,0.1,32.4,1.1,48.6,2c6.9,0.4,13.8,1.2,20.6,1.9c5.2,0.5,8.8,4.9,9.3,12.1
	c0.6,7.6,0.9,15.2,1.1,22.8c0.4,17.1,0.9,34.2,1,51.3c0,15.4-0.5,30.9-1,46.3c-0.2,6.3-1.2,12.6-2,18.9c-0.5,4.2-2.9,6.9-7.2,7.4
	c-7.7,0.8-15.4,1.8-23.1,2c-16.1,0.3-32.2,0.1-48.3,0.1L481.1,478.7z M405.8,466.5c19.3,1.1,37.9,2.7,56.5,3.1
	c16.2,0.4,32.5-0.3,48.8-0.8c12.1-0.4,24.1-1.3,36.1-2.2c1.3-0.1,3.4-1.8,3.5-2.9c0.9-9.9,1.9-19.7,2-29.6
	c0.3-17.9,0.4-35.8,0.1-53.6c-0.3-16.7-1.2-33.4-2.2-50.1c-0.1-1.6-2.5-4.2-4-4.3c-16.8-1.3-33.6-2.6-50.4-3.1
	c-28.8-0.8-57.7,0.1-86.4,2.8c-4.2,0.4-4.5,3.2-4.8,5.6c-1.3,12.8-2.8,25.6-3,38.4c-0.2,20.7,0.3,41.5,1,62.2
	C403.4,443.5,404.8,455,405.8,466.5z"/>
<path d="M239.6,481.7c-9.5,0-19,0.4-28.4-0.1c-16-0.7-32-1.7-47.9-3.2c-2.5-0.2-5.3-3.4-6.9-5.9c-1.4-2.2-1.8-5.3-1.9-8
	c-0.8-14.2-1.6-28.4-2.1-42.6c-0.5-12.9-1.2-25.9-0.8-38.8c0.5-16.8,1.4-33.7,3.1-50.4c0.8-8,3.8-12.5,13.1-13
	c16.3-0.7,32.6-2.4,48.9-2.8c19.1-0.5,38.3-0.4,57.4,0.1c12,0.3,24,1.8,35.9,2.9c6,0.5,9.8,5,10,12c0.8,25.9,1.9,51.7,2,77.6
	c0.1,19.2-1.2,38.4-2,57.6c-0.4,8.9-4.3,12-15.7,12.5c-21.5,1.1-43,2-64.5,2.9L239.6,481.7z M165.2,469.3
	c18.4,1.2,35.9,2.8,53.4,3.3c16.2,0.4,32.5-0.3,48.8-0.8c12.7-0.4,25.4-1.4,38.1-2c2.5-0.1,4.5,0,4.7-3.5
	c0.9-21.6,2.1-43.3,2.8-64.9c0.3-7.6-0.5-15.2-0.9-22.8c-0.7-15-1.2-30.1-2.2-45.1c-0.1-1.6-2.5-4.2-4-4.4
	c-15.6-1.3-31.3-2.7-46.9-3.1c-29.8-0.7-59.6-0.4-89.4,2.8c-3.1,0.3-5.1,1.5-5.4,4.6c-1.1,12.3-2.9,24.6-2.9,36.9
	c0.1,26,1,52,1.8,78.1C163.5,455.5,164.6,462.4,165.2,469.3z"/>
<path class="st0" d="M514.8,626.5c6.3,0,12.6,0,18.9,0c5.3,0,8.6-2.6,8.8-7.7c0.6-12.8,1-25.6,1-38.4c0-7.6-3.3-11.3-9.2-11.7
	c-6.8-0.5-13.5-1-20.3-1c-6.6,0-13.2,0.6-19.8,0.9c-4.6,0.3-8.2,2.4-8.4,7.2c-0.6,13.8-1.1,27.5-0.8,41.3c0.1,6.8,4.1,9.3,11.3,9.4
	C502.5,626.5,508.7,626.5,514.8,626.5z M513.2,694.6c7-0.7,14-1.7,21-2.1c4.7-0.2,7.5-2.5,8.3-6.8c2.8-14.3,2.3-28.8,0-43.1
	c-0.6-4.2-4.2-7.2-8.4-7.1c-13.3-0.1-26.6-0.2-39.9,0c-4.2,0.1-7.9,1.7-8.6,7c-1.6,13.7-1.3,27.4-0.2,41.2c0.3,4.2,1.8,7.7,6,8.5
	C498.6,693.5,505.9,693.9,513.2,694.6L513.2,694.6z M446,626.5L446,626.5c6.5,0,13,0.2,19.5-0.1c4.1-0.2,7.5-1.7,8.5-6.5
	c2.5-13.4,1.6-26.8,0.4-40.3c-0.5-5.9-2.3-10.8-9.3-11c-12.5-0.4-25-0.9-37.4-0.8c-5.8,0.1-10.3,4.3-10.5,8.7
	c-0.5,11.8-1.1,23.5-0.9,35.3c0.2,12,3.5,14.6,15.4,14.6L446,626.5z M445.7,635.5c-6.8,0-13.6-0.1-20.4,0c-3.9,0.1-7.4,1.3-7.4,6.1
	c-0.1,14.3-0.2,28.7-0.3,43c0,3.9,1.5,7,5.5,7.6c6.1,1,12.4,2,18.6,1.9c8.7-0.1,17.4-0.7,26-2c2.3-0.3,5.8-3.8,5.9-6
	c0.9-13.5,1.3-27.1,1.1-40.6c-0.1-7.5-3.6-10-11-10.1L445.7,635.5z"/>
<path d="M286.4,641.5c-16.8,1.1-31.7-13.3-31.2-30.7c0.5-18.2,14-31,31.6-30.7c16.8,0.3,30,12.8,30.3,31.6
	C317.3,627.1,302.8,643,286.4,641.5z M307.1,611.2c-0.4-13-9.1-21-20.9-21.6c-10.8-0.5-21.7,10.6-22,21.7c-0.3,9.9,11,21.5,21.6,21
	C297.8,631.9,306.4,624.7,307.1,611.2z"/>
<path d="M514.8,626.5c-6.1,0-12.3,0-18.4,0c-7.2,0-11.1-2.5-11.3-9.4c-0.3-13.8,0.2-27.5,0.8-41.3c0.2-4.7,3.8-6.9,8.4-7.2
	c6.6-0.4,13.2-0.9,19.8-0.9c6.8,0,13.5,0.5,20.3,1c5.8,0.4,9.2,4.2,9.2,11.7c0,12.8-0.4,25.6-1,38.4c-0.2,5.1-3.5,7.7-8.8,7.7
	C527.5,626.5,521.1,626.5,514.8,626.5z M533.8,616.6c0-11.8,0-22.8,0-33.9c0-2.5-0.5-4.1-3.5-4.2c-10.6-0.2-21.2-0.7-31.8-0.8
	c-1.2,0-3.5,1.4-3.5,2.2c-0.3,11.2-0.3,22.4-0.1,33.6c0,1,2.2,2.9,3.4,2.9C509.6,616.7,520.9,616.6,533.8,616.6L533.8,616.6z"/>
<path d="M513.2,694.7c-7.3-0.8-14.6-1.1-21.7-2.4c-4.2-0.7-5.6-4.3-6-8.5c-1.1-13.7-1.5-27.4,0.2-41.2c0.6-5.3,4.4-6.9,8.6-7
	c13.3-0.3,26.6-0.2,39.9,0c4.2-0.1,7.8,2.9,8.4,7.1c2.3,14.3,2.8,28.8,0,43.1c-0.8,4.3-3.6,6.5-8.3,6.8
	C527.2,692.9,520.2,693.9,513.2,694.7z M494.8,645.5c0,11.9-0.1,23.2,0.2,34.6c0,1.2,2.2,3.3,3.5,3.3c10.5,0.3,21.1,0.1,31.6,0.2
	c2.8,0,3.8-1.1,3.8-3.9c-0.1-10.1-0.1-20.3,0-30.4c0-2.8-1.2-3.8-3.9-3.8C518.4,645.5,507,645.5,494.8,645.5L494.8,645.5z"/>
<path d="M446,626.5h-14.5c-11.9,0-15.1-2.6-15.4-14.6c-0.2-11.8,0.4-23.5,0.9-35.3c0.2-4.4,4.8-8.7,10.5-8.7
	c12.5-0.2,25,0.4,37.4,0.8c7,0.2,8.8,5.1,9.3,11c1.2,13.4,2.1,26.8-0.4,40.3c-0.9,4.8-4.4,6.4-8.5,6.5
	C459,626.7,452.4,626.5,446,626.5L446,626.5z M445.8,616.6L445.8,616.6c5,0,10-0.2,15,0.1c3.7,0.2,5.2-1.3,5.1-4.8
	c-0.3-10.4-0.6-20.8-1.1-31.3c0-1-1.6-2.9-2.4-2.9c-10.9-0.2-21.7-0.2-32.5-0.2c-2.7,0-4,1.4-3.9,4.4c0.2,10.1,0.2,20.3,0,30.4
	c0,3.4,1.4,4.3,4.5,4.2C435.5,616.5,440.7,616.6,445.8,616.6L445.8,616.6z"/>
<path d="M445.7,635.5h17.9c7.4,0,10.9,2.5,11,10.1c0.2,13.5-0.2,27.1-1.1,40.6c-0.1,2.2-3.6,5.6-5.9,6c-8.6,1.3-17.3,1.9-26,2
	c-6.2,0.1-12.4-1-18.6-1.9c-4-0.6-5.5-3.7-5.5-7.6c0.1-14.3,0.1-28.7,0.3-43c0-4.8,3.5-6,7.4-6.1
	C432.1,635.5,438.9,635.5,445.7,635.5z M466.3,662.9c-0.5-4.9-0.7-10-1.5-15c-0.2-1.2-2-3.1-3.2-3.2c-10.5-0.2-21-0.2-31.5,0
	c-1.1,0-3,2.1-3,3.2c-0.2,10.7-0.2,21.3,0,32c0,1.2,2.2,3.3,3.4,3.4c10.3,0.3,20.7,0.3,31,0c1.2,0,3.1-1.9,3.3-3
	C465.5,674.6,465.8,668.8,466.3,662.9z"/>
<path d="M510.8,333.5c8.1,0.5,16.2,0.6,24.2,1.6c2.4,0.3,6.2,3.1,6.4,5c0.8,10.4,0.8,20.8,1,31.2c0,3-0.5,5.9-0.6,8.9
	c-0.1,9.1-2.5,12.2-11.4,12.4c-8.6,0.2-17.2-0.5-25.8-0.8c-4.4-0.1-8.8,0.3-13.1-0.2c-4.1-0.5-6.8-2.8-6.9-7.5
	c-0.2-11.6-0.6-23.3-0.8-34.9c0-1.2,0.1-2.3,0.1-3.5c0.6-8.3,4-11.6,12.4-11.9c4.8-0.1,9.6,0,14.5,0V333.5z M532.8,344.9
	c-4.9-0.6-9.6-1.5-14.3-1.6c-7.2-0.1-14.5,0.2-21.7,0.7c-1.4,0.4-2.5,1.6-2.9,3c-0.2,11.5-0.1,22.9-0.1,34.9
	c12.1,0,23.9,0.1,35.6-0.2c1.1,0,3.1-2.5,3.2-3.8C532.9,367.1,532.8,356.3,532.8,344.9L532.8,344.9z"/>
<path d="M415,363.9c0-5.3,0-10.6,0-16c0-8.9,4.4-13.7,13.3-13.9c11.5-0.2,23.1-0.2,34.6,0c6.8,0.1,10.7,4.4,10.9,12.5
	c0.3,12.3,0.2,24.6,0,36.9c-0.1,4.8-5.1,9.4-10.5,9.3c-13.1-0.1-26.2-0.5-39.2-1c-4.9-0.2-9-5.2-9.1-10.4
	C414.9,375.5,415,369.7,415,363.9z M424.9,382.9h35.4c3.8,0,4.8-2.2,4.6-5.5c-0.4-9.6-0.8-19.2-0.9-28.8c0-4.2-2.1-5.6-5.7-5.7
	c-9.6,0-19.2-0.2-28.8,0.2c-1.6,0.1-4.3,2.8-4.4,4.4C424.7,358.7,424.9,369.9,424.9,382.9L424.9,382.9z"/>
<path d="M441.8,459.9c-5.6-0.4-11.6-0.7-17.5-1.1c-5-0.4-8.1-4-8.3-10.4c-0.2-12.7-0.6-25.4,0.1-38.1c0.5-7.9,2.4-8.8,12.7-9.2
	s20.8-0.1,31.1-0.1c10.9,0,13.8,2.8,13.8,13.6c0,10.5,0,21.1,0,31.6c0,7.6-3.3,13.1-12.4,12.7C455,458.6,448.6,459.5,441.8,459.9z
	 M425.9,410.9c0,12.2,0,23.7,0,35.2c0,3,1.8,3.7,4.1,3.7c9.3,0.1,18.6,0.1,27.9,0c3.5-0.1,6.4-1.5,6.4-5.7
	c0.1-9.6,0.4-19.2,0.1-28.8c0-1.5-2.6-4.1-4.1-4.2C449.1,410.7,437.8,410.8,425.9,410.9L425.9,410.9z"/>
<path d="M512.9,401.8c7,0,14-0.1,21,0c4.2-0.2,7.7,3.1,7.9,7.3c0,0.1,0,0.3,0,0.4c0.4,10.6,0.8,21.2,0.9,31.8
	c0.1,3.5-0.3,6.9-1.1,10.3c-1.2,4.7-4.8,7-9.5,7.1c-12.9,0.1-25.7,0.2-38.6,0c-6.4-0.1-9.3-3.3-9.5-11.3c-0.4-12-0.3-24,0-36
	c0.1-6.5,3.8-9.5,10.4-9.5L512.9,401.8z M493.8,410.8c0,12.2-0.1,23.7,0.1,35.2c0,1.3,1.9,3.6,2.9,3.6c10.9,0,21.8-0.3,32.7-0.9
	c1.1-0.1,3.1-2.4,3.1-3.7c0.3-10.2,0.3-20.4,0-30.6c0-1.2-2.2-3.4-3.4-3.4C517.6,410.7,506,410.8,493.8,410.8L493.8,410.8z"/>
<path d="M272.1,393.9c-6.5,0-13,0.1-19.5,0c-4.5-0.1-7.5-2-8.6-7c-3.1-13.9-2.2-27.9-0.6-41.9c0.8-6.8,5.6-9.9,15.7-9.9
	s20.1,1.2,30.1,1.7c3.9,0.2,8.5-1,10.6,3.5c1.4,3.1,2.2,6.5,2.1,9.9c0,11.9-0.4,23.8-1,35.8c-0.3,5.3-3.5,7.8-8.9,7.9
	C285.4,393.9,278.8,393.9,272.1,393.9z M292.1,383.8c0-11.6,0.1-22.8-0.1-34c0-1.3-1.7-3.6-2.6-3.6c-11.9-0.2-23.9-0.2-36.4-0.2
	v37.8L292.1,383.8z"/>
<path d="M272.4,402.9c6,0,12,0,17.9,0c7,0,10.6,3.6,10.8,10.5c0.2,8.3,0.8,16.5,0.9,24.8c-0.1,4.9-0.4,9.9-1,14.8
	c-0.4,3.7-5.2,7.7-9.5,7.8c-13.2,0.1-26.4,0.3-39.5-0.1c-4.7-0.1-7.1-3.2-8-8.2c-2.4-13.9-3-27.8,0-41.7c1.3-6.2,3.9-7.7,10-7.8
	S266.3,402.9,272.4,402.9z M252.9,412.8v38c12.6,0,24.4,0.1,36.2-0.1c1,0,2.9-2.2,2.9-3.4c0.2-10.3,0.3-20.6,0-30.9
	c0-1.2-2.2-3.4-3.4-3.4C277,412.7,265.3,412.8,252.9,412.8z"/>
<path d="M203.9,402.9h18c7.5,0,11.1,2.6,11.2,10c0.2,13.4-0.4,26.8-0.9,40.2c-0.2,4.8-4,7.2-8.4,7.5c-8.7,0.6-17.5,1.1-26.3,0.9
	c-5.8-0.1-11.6-1-17.2-2.7c-2.1-0.6-4.5-4.3-4.6-6.7c-0.4-13.9-0.3-27.7-0.2-41.6c0-3.6,3.9-8.2,9-7.9
	C190.9,403.2,197.4,402.9,203.9,402.9z M184.9,450.6c12.4,2,24.4,1.5,36.2,0.1c0.8-0.1,1.9-1.9,2-2.9c0.1-11.5,0.1-23,0.1-34.7
	h-38.3L184.9,450.6z"/>
<path d="M203.9,393.9c-6.3,0-12.6,0-19,0c-5.8-0.1-10.5-4.8-10.6-10.6c-0.1-11.6-0.1-23.3,0-34.9c0-8.5,5.3-12.7,12.9-13.2
	c10.7-0.6,21.4-0.3,32.1-0.1c8.7,0.2,13.6,5.4,13.8,14.9c0.3,11.3,0.2,22.6,0,33.9c-0.1,6.5-3.8,9.9-10.3,10
	C216.5,393.9,210.2,393.9,203.9,393.9z M224.6,368.7c-0.4-5.9-1.4-11.9-1.2-17.7c0.1-4.4-2.2-5.9-5.4-6c-10-0.3-20-0.3-30,0.1
	c-1.3,0-3.5,2.7-3.5,4.3c-0.3,10.4-0.3,20.7,0,31.1c0,1.2,1.9,3.3,3,3.4c10.7,0.6,21.5,0.9,32.2,0.9c1.3,0,3.4-1.9,3.7-3.2
	C224,377.2,224.4,373,224.6,368.7L224.6,368.7z"/>
</svg>
