<svg xmlns="http://www.w3.org/2000/svg" viewBox="0 0 118.06 241.07"><g id="Layer_2" data-name="Layer 2"><g id="Layer_1-2" data-name="Layer 1"><path d="M8,4c-.59,7.14-1.19,14.28-1.83,22.06,4.22.12,8.22.41,12.22.33,21.86-.43,43.7-.48,65.53.94,4.21.27,8.42.47,12.63.74A5.31,5.31,0,0,1,99.4,29c-15.46-.66-30.92-1.58-46.39-1.9S21.9,27,6.12,27c-.36,4.81-.76,9-1,13.17C4.34,56.11,3.25,72,2.92,88c-.45,21.85-.22,43.72-.45,65.58-.17,15.8-.66,31.59-1,47.39-.22,11.81-.35,23.62-.51,35.44,0,1.54,0,3.09,0,4.64l-.7,0a5.49,5.49,0,0,1-.3-1.34c.41-18.18,1-36.35,1.21-54.52.22-17.8,0-35.59.12-53.39.11-15,.31-29.92.74-44.87C2.42,74.46,3,62,3.76,49.5s1.7-24.63,2.58-36.94c.16-2.29.3-4.59.53-6.87a8.93,8.93,0,0,1,.61-1.92Z"/><path d="M118,7.35a7.71,7.71,0,0,1-1.42.2c-16-.41-32-.71-48-1.31C54,5.68,39.33,4.89,24.73,4c-6.56-.4-13.1-1.19-19.63-1.91A26.13,26.13,0,0,1,.87.85C1.57.31,1.81,0,2,0c5.32.87,10.6,2.25,16,2.6Q43.17,4.22,68.43,5.16c15.47.6,30.95.82,46.42,1.23,1.07,0,2.14.24,3.21.37Z"/><path d="M108.35,231.54c-34.73,2.58-69.67,2.7-104.3,8.41a14.69,14.69,0,0,1,2.84-1c7-1,13.92-2.42,20.93-2.94,25-1.85,50-3.41,75-5,1.83-.12,3.68,0,5.53,0Z"/></g></g></svg>