<?xml version="1.0" encoding="utf-8"?>
<!-- Generator: Adobe Illustrator 25.0.1, SVG Export Plug-In . SVG Version: 6.00 Build 0)  -->
<svg version="1.1" id="Layer_1" xmlns="http://www.w3.org/2000/svg" xmlns:xlink="http://www.w3.org/1999/xlink" x="0px" y="0px"
	 viewBox="0 0 106.8 174.4" style="enable-background:new 0 0 106.8 174.4;" xml:space="preserve">
<g id="Layer_2_1_">
	<g id="Layer_1-2">
		<path d="M22.8,89c-2.9-3.4-5.9-6.5-8.5-9.9c-5-6.6-8.9-14-8.7-22.5C6.1,44,11.5,33.5,21.7,25.8c3-2.3,6.1-4.3,9.2-6.5
			c5.6-4.1,12.3-6.4,19.2-6.7c5.2-0.3,10.4-0.4,15.6-0.1c3.2,0.2,6.3,1.6,9.8,2.6c2.9-4.9,7.7-8.3,12.8-11.5C90.1,2.6,92,1.6,94,0.8
			c2.5-1.1,5.3-1.1,7.8,0c1.6,0.6,3.3,1.1,5,1.6l-0.2,0.8c-1.6-0.4-3.2-0.7-4.8-1.3c-2.2-0.9-4.4-1.4-6.7-0.5
			C88,4.3,81.7,8.3,77,14.5c-0.3,0.4-0.5,0.8-0.7,1.2c-0.1,0.2-0.1,0.3-0.1,0.5c6.6,5.9,7.1,14.2,8.2,22.2c0.3,2.1-0.3,4.2-2.4,5.3
			s-4,0.1-5.7-1.1c-5-3.5-7.2-10-5.4-16.6c0.9-3.2,2.3-6.3,3.5-9.6c-2.6-1.8-5.6-2.9-8.7-3.1c-7.5-0.6-15.1-0.2-22.6,1.3
			c-0.6,0.1-1.2,0.3-1.8,0.5C25.1,22.3,11.2,31.8,7,50.7C5.5,57.6,7.1,64,9.9,70.3C13,77,17.7,82.5,23,87.5c0.7,0.5,1.6,0.7,2.4,0.4
			c10.2-4.1,21-4.6,31.7-5.9c2.3-0.1,4.5,0.4,6.5,1.6c4,2,4.8,5.8,2.8,9.7c-2.9,5.5-7.5,7.9-13.7,7.8c-10.2,0-19.3-2.8-26.8-9.9
			c-1.2-1.5-3.3-1.7-4.8-0.6C9.9,97,2.4,105.6,1.4,118.9c-0.2,2.7-0.4,5.5-0.4,8.2c0,4.5,2,8,5,11.2s5.5,6.6,8.4,9.7
			c1.4,1.5,3,2.7,4.9,3.6c7.5,3,15.3,5.3,22.3,9.6c2.7,1.7,5.7,1.5,8.7,1.3s6-0.3,8.9-0.4c16.9-0.4,30.2-7.9,40.5-21
			c2.3-3,4.3-6.2,6.4-9.4l0.6,0.2c-0.4,1-0.7,2.1-1.2,3c-6,12.1-15,21.5-26.2,28.9c-4.4,2.9-9,5.5-13.6,8
			c-5.4,2.9-11.2,3.2-17.1,1.8c-3.2-0.8-6.5-1.1-9.7-1.1c-6.8,0.2-13.4-2.5-18.1-7.4c-1.6-1.6-3-3.4-4.6-5.1
			c-2.3-2.4-4.5-4.8-6.9-6.9c-3.8-3.1-6.2-7.6-6.7-12.5c-0.6-4.7-2-9.3-2.2-14c-0.3-6.4,0.2-13.1,3.1-18.8
			c3.5-7.4,9.3-13.4,16.6-17.2C20.8,89.9,21.8,89.5,22.8,89z M24.8,89.3c0.8,0.8,1.4,1.3,2,1.9c7.9,7.1,17.4,9.5,27.8,9
			c5.8-0.2,9.3-3.4,11.5-8.4c1-2.3,0.7-4.8-1.4-6.2c-1.8-1.2-4.1-2.5-6.1-2.5c-4.3,0-8.6,0.8-12.9,1.3
			C38.6,85.1,31.7,86.3,24.8,89.3L24.8,89.3z M75.7,16.8c-2.6,4.6-4.5,8.8-4.5,13.6c0,5.2,2.1,9.5,6.8,12.2c2.8,1.6,5,0.4,5.5-2.8
			c0.1-0.4,0.1-0.8,0.1-1.1c-0.3-6-1.7-11.8-4.2-17.2C78.6,19.8,77.1,18.5,75.7,16.8z"/>
	</g>
</g>
</svg>
