<svg xmlns="http://www.w3.org/2000/svg" viewBox="0 0 137.26 256.39"><g id="Layer_2" data-name="Layer 2"><g id="Layer_1-2" data-name="Layer 1"><path d="M105.5,154.73c-4.61.56-9,1.4-13.36,1.56-9.49.36-19,.34-28.5.53-4.45.09-8.88.34-13.33.43-6.28.13-12.58.39-18.85-2-.89,3-1.71,5.69-2.5,8.38-7.82,26.62-15.62,53.24-22.1,80.23-.76,3.19-2.05,6.25-3.13,9.36a5.2,5.2,0,0,1-1,2,8.23,8.23,0,0,1-2.1,1.17c-.19-.83-.39-1.66-.58-2.5l.71-.16.8,2a46.38,46.38,0,0,0,2.22-5.25c2.75-10,5.76-20,8-30.18,4.85-21.62,9.91-43.18,17-64.2A9.09,9.09,0,0,0,29,155c-3.2-1.54-5.14-1.08-5.4,1.23-1.52-1.18-1.52-2,.19-2.57,1.51-.48,3.17-.46,4.71-.88a2.73,2.73,0,0,0,1.72-1.43C39.53,122.87,49.1,94.47,57.9,65.84,61.8,53.14,64,39.94,67.21,27c2-8,4.29-16,6.46-23.95A3.15,3.15,0,0,1,74.05,2c.56-.74,1.19-2,1.81-2A3.15,3.15,0,0,1,78,1.71a59.2,59.2,0,0,1,3.08,7.42c7,21.5,14.05,43,20.85,64.55,6.09,19.3,11.9,38.69,17.79,58,4.47,14.7,7.42,29.74,10.09,44.85,3,17.21,5.88,34.46,7.18,51.9a187.49,187.49,0,0,1,.08,18.82,18.25,18.25,0,0,1-1.5,5.75c-.92,2.43-2.36,2.77-3.77.58a52.81,52.81,0,0,1-5.89-11.07c-6.08-17.41-10.13-35.39-14-53.38-2.31-10.79-4-21.71-6-32.57C105.78,155.8,105.56,155,105.5,154.73Zm-.83-4.64c-.81-4.19-1.51-7.86-2.23-11.54-2.6-13.39-5.49-26.73-7.73-40.18-2.15-12.85-3.65-25.8-5.37-38.71-1.31-9.87-2-19.85-3.9-29.6-1.72-8.75-4.7-17.25-7.23-25.83-.38-1.29-1.33-2.41-2.33-4.15a31.71,31.71,0,0,0-1.21,3C71.86,13.63,69,24.2,66.32,34.82c-3.72,14.84-6.7,29.89-11,44.55-7,23.58-14.76,46.92-22.2,70.37-.24.75-.39,1.53-.69,2.77,4.15-.82,7.88-1.31,11.46-2.34a108.6,108.6,0,0,1,36.56-4.58C88.5,146.06,96.75,145.77,104.67,150.09Z"/></g></g></svg>