<svg xmlns="http://www.w3.org/2000/svg" viewBox="0 0 217.14 205.31"><g id="Layer_2" data-name="Layer 2"><g id="Layer_1-2" data-name="Layer 1"><path d="M23.47,138.37c-9.41,3.19-15.57,9.42-18.33,19C3,165,.78,172.62,1,180.62c.15,5.9,1.39,11.56,4.83,16.54,3.81,5.52,9.3,7.15,15.52,4.46,5-2.14,8.91-5.66,12.6-9.49,9.34-9.75,16.9-20.83,24-32.26q30.23-48.81,60.34-97.69c.43-.7.84-1.42,1.45-2.46-3.65-1.46-7.07-3-10.58-4.22-8.86-3.16-17.79-6.13-27.2-7.25a71.41,71.41,0,0,0-30,2.35,181,181,0,0,0-21.44,8c-6.72,3.09-13.17,6.92-16.95,13.85L13,72.21A6.27,6.27,0,0,1,13.87,70c2.33-2.41,4.5-5.12,7.23-7C35,53.63,50.42,48.59,67.06,47c13.24-1.28,25.7,2,38.06,6.14,4.58,1.52,9.22,2.86,13.81,4.33,1.49.47,2.33.06,3.16-1.32q12.56-20.64,25.25-41.2c.84-1.35,1.88-2.58,2.83-3.87l1,.42a20.11,20.11,0,0,1-.56,3.82q-3.3,9.79-6.79,19.51c-2.74,7.64-5.57,15.25-8.35,22.87-.29.78-.51,1.59-.87,2.72,2.57.39,4.95.82,7.35,1.08,8.17.89,16.36,1.52,24.52,0,9.78-1.86,17.87-7,25.51-13.12,14.57-11.61,20.58-27,20.1-45.28,0-.93.1-1.87.16-2.81L213,0a22.42,22.42,0,0,1,1.5,2.76c3.11,8.13,3.26,16.51,1.65,24.93-1.72,9-4.87,17.5-10.38,24.86C194,68.27,178.1,74.92,158.6,73.23a77.53,77.53,0,0,1-23.47-6.11c-.77-.32-1.55-.62-2.79-1.12-2,7.12-4.41,14-5.7,21-3,16.13-5.56,32.34-8,48.56-2,13.57-3.62,27.22-3.25,41a58.69,58.69,0,0,0,1.45,11.36c1.45,6.34,4.07,9,12,8,5.27-.7,10.3-3.27,15.44-5,.88-.29,1.78-.52,3.39-1a14.23,14.23,0,0,1-1.23,2.61c-5,6-11.22,10.5-18.94,12.32-10.58,2.48-20.25-4.46-22.59-15.71-2.13-10.26-1.3-20.46.3-30.65,4-25.56,11.42-50.19,20.59-74.33,2.1-5.51,3.7-11.21,5.43-16.85a2.21,2.21,0,0,0-.57-2c-3.22-1.76-6.54-3.35-10-5.07-.65,1-1.27,1.82-1.82,2.71Q88.17,112.52,57.52,162.1c-6.6,10.64-13.65,21-22.45,30a60.26,60.26,0,0,1-11.55,9.36c-7.75,4.69-14.75,2.64-19.33-5.16C.12,189.35-.59,181.77.4,174a85.16,85.16,0,0,1,5.91-22.15C9.24,144.8,15,141,21.54,138a6.5,6.5,0,0,1,1.79-.25ZM150.16,13.25l-.59-.26L121.89,58.15c2.24.44,4.16.87,6.1,1.2,5.53.93,5.54.91,7.47-4.43Q142.3,36,149.13,17.11C149.58,15.86,149.82,14.54,150.16,13.25Z"/></g></g></svg>