<svg xmlns="http://www.w3.org/2000/svg" viewBox="0 0 24.14 283.34"><g id="Layer_2" data-name="Layer 2"><g id="Layer_1-2" data-name="Layer 1"><path d="M11.85,25.1A11.93,11.93,0,0,1,0,13C0,6.56,6.15.09,12.49,0c6.07-.08,11.56,5.52,11.65,11.9S17.88,25.07,11.85,25.1Z"/><path d="M11.7,283.34c-.27-2.55-.7-5.11-.79-7.67-.19-5.83-.31-11.66-.28-17.48.08-17.65-.05-35.29.45-52.92.46-16.4,1.52-32.78,2.48-49.15,1.92-32.47,3.79-64.92,2.4-97.47-.2-4.75-.23-9.51-.31-14.26a15.51,15.51,0,0,1,.15-1.66l.58-.07a6.75,6.75,0,0,1,.35,1.48c.12,19.79.79,39.59.17,59.35-.82,26-2.68,51.9-4,77.85-1.38,26.36-1.66,52.74-1.2,79.12.13,7.28.63,14.54.94,21.81a4.54,4.54,0,0,1-.17,1Z"/></g></g></svg>