<svg xmlns="http://www.w3.org/2000/svg" viewBox="0 0 941.21 339.89"><path d="M351,175c3.5-2.86,6.5-5.47,9.67-7.87,9.2-7,19.42-8.34,30.39-5.28,9.19,2.57,13.69,9.69,12.38,19.12-1.37,9.83-2.58,19.68-3.71,29.53a34.82,34.82,0,0,0,0,7.43c1,10.16,10.57,16.27,20.17,12.73,4-1.48,7.77-3.61,11.64-5.46.82-.39,1.63-.82,2.44-1.23l.48.61a9.12,9.12,0,0,1-1.62,1.39c-3.65,1.87-7.25,3.87-11,5.44-12.5,5.23-24.27-1.73-25.49-15.24-.69-7.59-.61-15.25-1.06-22.87A106.11,106.11,0,0,0,394,182.23c-.54-3.26-1.46-3.78-4.2-2.14-13,7.79-26.34,15.28-35.49,27.94-4,5.55-7.45,11.55-11.5,17.08a43.74,43.74,0,0,1-7.72,8,12.31,12.31,0,0,1-10.83,2.45c-7-1.7-10.29-8.65-7.13-15.57a29.41,29.41,0,0,1,4.79-7.41,14,14,0,0,0,3.75-8.73c.77-11.37,6.53-20.81,11.37-30.63.72-1.45,1.46-2.89,2.17-4.35.2-.42.31-.89.66-2l-4.55,1.35c-10.4,3-19.1,8.42-25.5,17.37-4.38,6.14-9.05,12.06-13.61,18.06a51.26,51.26,0,0,1-14.32,13.45,27.47,27.47,0,0,1-5.93,2.74c-4.9,1.5-9.22,0-11.23-4.71-1.49-3.49-1.81-7.49-2.58-11.27a17.24,17.24,0,0,1,0-3c-1.12.54-2,.94-2.88,1.4-6.65,3.58-13.44,6.89-21,8a35.35,35.35,0,0,1-9.36,0,59.42,59.42,0,0,1-9.43-2.12,42.31,42.31,0,0,1-5.24-2.27l.46-1.34a12.84,12.84,0,0,1,3.35.94c5,3.13,9.29,1.54,13.19-2.07a36.79,36.79,0,0,0,11.57-22.74c.64-4.79-.24-9.21-5.05-11.78-5.06-2.71-9.56-2.45-13.81,2a107.76,107.76,0,0,0-12.56,15.87c-12.83,20.16-22.6,41.93-32.68,63.52q-20.46,43.76-40.74,87.59a22.35,22.35,0,0,1-1.2,2l-.78-.34c.37-1.07.69-2.15,1.1-3.2,19-48,37.87-96,50.36-146.25a79.06,79.06,0,0,0,2.16-13.22c.3-4-1.74-5.35-5.12-3.21-5.21,3.3-10.53,6.72-14.89,11-7.94,7.81-15.27,16.26-22.75,24.54-4.61,5.1-8.91,10.49-15.53,13.25a5.8,5.8,0,0,0-2,2c-11.88,15.43-26.18,28-43.72,36.67-7.08,3.49-14.15,7.26-21.63,9.65-13.4,4.28-25.81,1.66-36.61-7.67C13.49,251.16,5.94,235.81,2.22,218.21a106.74,106.74,0,0,1-1-38.13,224.46,224.46,0,0,1,43.51-104A160,160,0,0,1,85.27,38.89C92,34.5,98.62,30,105.54,26a42.42,42.42,0,0,1,10.39-3.89c3.36-.89,5.65.46,6.71,3.72,1.23,3.79,2.12,7.7,3.15,11.56l-1.12.3c-.68-2.48-1.42-4.94-2-7.43-1.92-7.66-3.6-8.68-11.05-5.72-12.39,4.94-22.51,13-31.24,23C64.08,66.29,52,87.46,42.5,110.26a242.27,242.27,0,0,0-13.65,43.63,210.23,210.23,0,0,0-3.94,58.32c.69,9.64,2.52,19,7.17,27.48,8.42,15.31,20,17.44,34.08,13.86,12.63-3.21,21.36-11.94,29.54-21.21,12.36-14,21.25-30.27,29.28-47,5.31-11.09,10.78-22.14,15.46-33.51,7.15-17.36,11.36-35.42,10.24-54.39-.77-12.93-3.9-25.24-10.53-36.48a29.66,29.66,0,0,0-4.82-6c-5.29-5.17-11.55-6.56-18.43-3.68a100.13,100.13,0,0,0-9.05,4.88c-.87.48-1.72,1-3,1.75.07-.91,0-1.38.14-1.56,5.91-6,15.33-12.36,25.87-9.32,6.36,1.84,11,6,14.85,11.15,8.64,11.64,13.53,24.91,16.29,39a119.3,119.3,0,0,1,.85,41c-1.94,12.79-4.61,25.51-7.69,38.08-3.69,15-11.65,28.13-20.42,40.72a5.92,5.92,0,0,0-1.28,3.1c1.62-1.19,3.48-2.15,4.81-3.6,5.74-6.26,11.08-12.9,17-18.93,7.15-7.25,14.7-14.13,22.28-20.94a27.81,27.81,0,0,1,7.35-4.35c3.41-1.53,5.87,0,5.74,3.68a61.57,61.57,0,0,1-1.56,11.86c-8,34.1-19.74,67-32,99.81-3.56,9.55-7.24,19.06-10.85,28.59a5.29,5.29,0,0,0-.42,2.77c2.08-4.37,4.18-8.73,6.23-13.12,14.14-30.35,28.1-60.79,42.46-91,6.59-13.87,13.85-27.45,23.56-39.5a44,44,0,0,1,7-6.75c4-3.19,8.51-3,12.94-.73A10.18,10.18,0,0,1,244,178.1c-1,12.54-5.82,23-17.26,29.48-.32.18-.62.39-1.1.71a21.1,21.1,0,0,0,14.79.4c6.88-2.49,13.56-5.55,20.22-8.6,1-.47,1.84-2.08,2.13-3.32,2.84-12,7.4-23.06,16-32.14a17.19,17.19,0,0,1,4.34-3.22c2.57-1.36,4.53-.3,4.39,2.6a30.58,30.58,0,0,1-1.63,8.64,50.53,50.53,0,0,1-20.14,25.65c-1.69,1.13-2.69,2.32-2.47,4.37.33,3,.26,6.15,1.08,9,2,7,7.07,9.31,13.72,6.26a41.66,41.66,0,0,0,15.53-12.83c10.5-13.59,20.85-27.28,31.27-40.93,3.52-4.61,7.32-8.84,13.27-10.34,5.52-1.4,10.63,1.22,12,6.77.81,3.28.66,6.79.89,10.2C351.1,172.06,351,173.3,351,175Zm-87.35,22.48.88.36a50.19,50.19,0,0,0,20.69-26.77,26.27,26.27,0,0,0,1.14-6.72c.12-2.36-1-3.08-3-1.82a24.73,24.73,0,0,0-5.43,4.55,60.21,60.21,0,0,0-11.19,20.11C265.59,190.58,264.7,194.05,263.68,197.48Z"/><path d="M856.6,193.08c-9.36,4.09-18.5,8.13-27.67,12.09-12,5.17-24.29,9.06-37.39,9.73a35.34,35.34,0,0,1-11-1.13c-7.77-2.15-12.29-8.66-12.12-18,.13-6.73,1.36-13.44,2.11-20.16a3.15,3.15,0,0,0-.16-1.87l-2.17,2.48c-9.54,11.12-19.72,21.57-31.66,30.13a65.41,65.41,0,0,1-28.16,12,34.92,34.92,0,0,1-20.65-2.76c-8.18-3.82-11.06-9-9.83-17.94,1.44-10.48,4.91-20.37,9.14-30,1.82-4.17,3.89-8.24,5.57-12.62a17.74,17.74,0,0,0-1.55,1.7c-9.36,13.12-18.5,26.41-28.15,39.32a176,176,0,0,1-15.72,17.73c-2.25,2.29-5.44,3.86-8.46,5.14-3.75,1.58-6.72-.29-6.69-4.33a31.77,31.77,0,0,1,1.81-10.31c4.68-13,12.49-24.19,21.21-34.77.85-1,1.72-2,2.57-3.07a6.91,6.91,0,0,0,.5-1c-1.26.49-2.16.82-3,1.19-28.22,12-54.48,27.51-79.56,45.11-11.1,7.79-22.5,15.22-35.28,20a70.65,70.65,0,0,1-18.49,4.58c-14.33,1.18-24.77-5.84-31.91-17.79-9.24-15.49-12.27-32.49-11.2-50.35.82-13.68,4.67-26.7,9.35-39.4,9.15-24.81,19-49.32,31.75-72.59,14.12-25.77,36-41.7,63.36-50.86,8.62-2.89,17.24-5.76,26.51-5.12,10.81.75,20.74,4,29.39,10.75,10.31,8,13.43,18.86,11.21,31.15C647.08,59.4,638,73.4,624.13,84.42c-5.29,4.21-10.24,8.85-15.54,13a66.41,66.41,0,0,1-9.75,6.33c-1.88,1-3.84.47-4.8-2.78,4.08,3.51,6.91.87,9.62-1.05A37,37,0,0,0,615.9,86.22c5.34-10.79,10-21.74,12.84-33.57,3.75-15.77-5.8-31.77-16.89-35.82a32.63,32.63,0,0,0-29.63,3.08c-5.58,3.45-11.29,7.09-15.82,11.73-12,12.29-24.1,24.57-34.75,38-12.57,15.83-20.3,34.35-25.58,53.93-6.14,22.72-7.85,45.84-7,69.17a66.7,66.7,0,0,0,3.83,19.22c4.21,12.11,14.09,17,27.49,14.75,12-2.05,22.71-7.23,33-13.29,13.25-7.78,26.21-16.06,39.45-23.85a435.89,435.89,0,0,1,56.61-27.48,24.64,24.64,0,0,0,6.5-4A108.92,108.92,0,0,1,694,140.58a21.67,21.67,0,0,1,5.49-1.43,3,3,0,0,1,2.37,1c.32.44-.06,1.64-.45,2.3-8.36,14-15.79,28.42-20,44.26a89.88,89.88,0,0,0-2.43,14.6c-.51,5.37,2.11,9.34,6.78,12,8.72,4.92,17.91,5.43,27.43,2.94,11.23-2.93,20.91-8.69,29.7-16.11a206.45,206.45,0,0,0,27-27.63,12.61,12.61,0,0,0,2.32-4.8c5.73-23.49,12.66-46.58,23.51-68.31,4.87-9.78,10.6-19,18.36-26.82a29.26,29.26,0,0,1,5.33-4.28c3.33-2,6-.72,6.08,3.19a34.61,34.61,0,0,1-.93,8.77c-2.91,12.67-8.67,24.19-14.78,35.53-10,18.44-21.88,35.57-34.65,52.14a15.2,15.2,0,0,0-3,6.57c-1.12,7.14-2.32,14.34-2.49,21.54-.24,10.93,6.76,17.56,17.7,17.83,9.48.24,18.52-2,27.57-4.52,14.2-3.89,25.74-11.77,35.32-22.77a3,3,0,0,1,.39-.41c11.31-9.26,16.37-22.32,22.15-35.16a627.75,627.75,0,0,1,38.92-72.92c.5-.81,1.1-1.56,1.68-2.32,5.49-7.18,12.77-7.73,19.36-1.46,8.45,8,10.9,19.71,6.19,31.37-4.82,11.93-12,22.54-19.34,33-13,18.58-29.67,33.27-48.72,45.36-1.78,1.13-2.61,2.16-2,4.32,2.38,8,4.21,16.25,7.08,24.08,2.76,7.53,8,10.37,15.89,8.82,9.34-1.83,18.51-4.51,27.77-6.78a61.25,61.25,0,0,1,6.44-1.32c.71-.1,1.51.46,2.28.72-.28.66-.37,1.55-.86,2-8.94,7.42-17.42,15.67-29.69,17.39-7.46,1-14.56,0-20.6-4.78a156.23,156.23,0,0,1-12.19-10.82c-6.07-5.94-8.45-13.44-8.34-21.82C856.61,194.92,856.6,194,856.6,193.08Zm-83.16-26.24.82.32.68-.9a375.27,375.27,0,0,0,32-47.68c6.71-12.1,13.07-24.39,16.32-38a39.43,39.43,0,0,0,1-9.32c0-2.68-1.74-3.52-4.1-2.18a23.89,23.89,0,0,0-4.76,3.61,89.36,89.36,0,0,0-15.26,20.61c-9,16.12-15.29,33.37-20.54,51C777.4,151.79,775.49,159.34,773.44,166.84Zm-76.79-19.36c-.51-.1-.72-.21-.84-.15q-16.21,7.8-32.4,15.65a7.65,7.65,0,0,0-2.35,1.58c-11,11.82-20.32,24.75-26.1,39.94a31.52,31.52,0,0,0-1.79,9.45c-.2,3.67,2,5.2,5.34,3.81a24,24,0,0,0,7.55-4.47c4.83-4.7,9.71-9.48,13.73-14.87,11.68-15.66,22.94-31.63,34.37-47.47ZM870.17,165c23-24.81,38.31-54,49.73-86.17C910.42,83.1,873.25,147.67,870.17,165ZM700.74,141l-.69-1c-12.14,3.51-22.5,10.26-32.1,18.39,10.55-4.26,21.26-8.22,30.57-15A16.77,16.77,0,0,0,700.74,141Z"/></svg>