<?xml version="1.0" encoding="utf-8"?>
<!-- Generator: Adobe Illustrator 25.0.1, SVG Export Plug-In . SVG Version: 6.00 Build 0)  -->
<svg version="1.1" id="Layer_1" xmlns="http://www.w3.org/2000/svg" xmlns:xlink="http://www.w3.org/1999/xlink" x="0px" y="0px"
	 viewBox="0 0 878.1 297.1" style="enable-background:new 0 0 878.1 297.1;" xml:space="preserve">
<path d="M716.9,217.3c-4,9.3-8.5,18.1-14.5,26c-5.8,7.6-12.2,14.8-20.2,20.1c-7.8,5.2-15.2,3.8-20.2-4.2
	c-6.8-10.9-9.9-23.6-8.8-36.4c0.8-10.4,3.3-20.3,5.9-30.3c0.8-2.9,0.8-6,1.1-9l-0.6-0.1c-1.8,6.2-3.5,12.4-5.3,18.6
	c-4.3,15.5-10,30.6-17,45.1c-2.1,4.2-4.5,8.2-7.2,12c-6,8.2-12.3,7.4-16.2-2c-2.9-7.1-2.8-14.6-1.9-22.1c1.3-9.6,4.1-19,8.3-27.7
	c-0.6,0.4-1.2,0.8-1.8,1.2c-7.6,7.4-15.2,14.7-22.7,22.2c-10.3,10.3-17.9,22.6-24.5,35.4c-2.2,4.4-4.8,8.7-7.6,12.7
	c-5.2,7-12.1,7-17.8,0.2c-5.9-7-8.2-15.5-9.2-24.3c-1.5-14.5-0.7-29.1,2.2-43.3c2.7-13.3,6.2-26.4,9.3-39.6c0.1-0.6,0.2-1.1,0.3-1.7
	l-50-1.6c-1.1,4.8-2.4,9.9-3.5,15c-3.2,14.4-7.1,28.6-13.2,42.1c-10.3,22.7-19.7,45.7-26.9,69.6c-0.2,0.6-0.5,1.2-0.8,1.7l-0.7-0.1
	c-0.1-0.7-0.1-1.4,0-2.1c2.8-13.6,5.2-27.3,8.4-40.8c4-16.9,8.4-33.8,12.9-50.6c1.8-6.8,4.4-13.5,6.7-20.2
	c1.9-5.6,3.9-11.1,5.9-16.7c-5.9-2-11.8-3.8-17.6-6s-10.8-5.4-14.2-10.5l0.6-0.7c0.7,0.8,1.4,1.7,2.2,2.5c4.2,4.4,9.6,7.1,15.2,9.1
	c3.9,1.4,8,2.4,12,3.7c1.6,0.5,2.5,0.2,3.1-1.5c6.6-18.7,14-37.2,19.6-56.2c6-19.9,10-40.4,11.8-61.2c0.5-5.5-0.3-11.2-0.8-16.8
	c-0.1-1.2-1.1-2.3-1.8-3.5c-1.2,0.8-2.3,1.5-3.5,2.3c-0.5,0.4-0.9,0.9-1.2,1.5c0.1-2.4,2.2-4.9,4.1-4.9c2.4,0,2.9,1.9,3.3,3.6
	c1.6,8.1,1.7,16.5,0.3,24.7c-3,16.9-6.5,33.6-9.6,50.5c-2.1,11.5-3.9,23-6,34.5c-1.7,9.1-3.6,18.1-5.4,27.1
	c-0.1,0.6-0.2,1.3-0.4,2.4c5.2,0.4,10.3,0.9,15.4,1.1c10.7,0.3,21.3,0.4,32,0.6c2,0.1,2.8-0.6,3.4-2.4c3.6-11.8,6.8-23.8,11-35.4
	c5.9-16.5,12.3-32.9,18.8-49.2c6.2-15.3,9.6-31.2,13.2-47.2c1.2-5.3,2.4-10.6,3.7-15.9c0.4-1.2,1.1-2.4,2.1-3.2
	c-1,3.7-2,7.4-2.9,11.1c-7,29.6-14.2,59.1-20.9,88.8c-3.8,17-6.8,34.3-10,51.5c-0.2,1.3,0.6,2.8,1,4.3l-1.5-0.3
	c-0.2,0.4-0.4,0.9-0.5,1.4c-1.8,10.9-3.4,21.9-5.3,32.8c-1.6,9-3.4,17.9-5.3,26.8c-2,9.1-4.1,18.1-3.8,27.5c0.2,5.3,1,10.5,4,15.1
	c1.8,2.9,3.5,3.2,5.6,0.6c2.7-3.1,5.1-6.5,7.2-10.2c10.4-19.1,24.7-34.9,40.8-49.2c4.8-4.3,9.7-8.6,14.4-13.1
	c1.7-1.6,3.1-3.3,4.4-5.3c5.6-8.7,12.1-16.5,20.8-22.3c2.7-1.7,5.5-3,8.4-4.1c1.2-0.3,2.5-0.2,3.7,0.3c1.3,0.3,2.1,1.6,1.8,2.9
	c-0.1,0.5-0.3,0.9-0.7,1.2c-1,1.1-2.1,2-3.3,2.8c-11.2,7.4-21.8,15.6-31.7,24.7c-1.2,1.1-2.2,2.4-2.9,3.8c-5.6,10.9-8.8,22.8-9.5,35
	c-0.4,5.1,0.5,10.3,2.4,15.1c0.7,1.7,1.7,3.4,2.8,4.8c2,2.6,4.6,3.3,7.1,1.2s5.3-4.6,6.8-7.5c4.6-9,9.5-18,12.9-27.5
	c5.5-15.6,10-31.5,14.9-47.3c0.3-1,0.8-2,1.5-2.7c0.2,0.4,0.3,0.8,0.4,1.2c-1.1,9.8,0.6,19.4,1.9,29c1.4,11.1,2.3,22.2,3.5,33.3
	c0.5,5.2,1.2,10.3,3.8,15c1.8,3.3,4,4.2,7.4,2.6c2.4-1.1,4.7-2.4,6.8-4.1c13-10,22.2-22.9,29.2-37.6c3.3-6.9,4.4-14.3,6.1-21.6
	c1.5-6.8,2.8-13.7,4.1-20.5c0.1-0.5,0.4-0.9,1.3-1.3c0.2,0.7,0.3,1.3,0.3,2c-0.2,4.3-0.6,8.7-0.8,13c-0.2,3.8-0.4,7.6-0.4,11.5
	c0,8.4,0.1,16.9,0.2,25.3c0.1,7,0.2,14,2.3,20.8c0.1,0.2,0.2,0.5,0.2,0.7c3.1,9.5,10.2,11.5,17.5,4.7c6.9-6.6,12.5-14.3,16.6-22.9
	c3.9-7.6,7.1-15.5,9.7-23.6c2-6.4,2.2-13.2,3.3-19.9c0.4-2.3,1-4.7,1.7-6.9c0.4-0.9,0.9-1.8,1.5-2.6l0.9,0.2
	c0.2,0.9,0.3,1.8,0.2,2.7c-0.8,4.2-1.5,8.4-2.5,12.5c-1.2,4.6-1.5,9.4-0.8,14.2c1,7.9,1.6,15.8,2.8,23.6c0.5,2.9,1.4,5.8,2.8,8.4
	c2.7,5.5,6.4,6.7,12,4.3c5.1-2.2,9.6-5.6,13.2-9.9c8-9.2,13.5-19.9,17.9-31.1c4.6-11.6,8.6-23.5,12.8-35.3c0.2-0.8,0.6-1.5,1.2-2.1
	c0.6,7.4,3.5,13.8,7.6,19.6c4.3,6.2,9.2,12.1,14.1,17.9c5.8,6.9,11.5,13.8,15.5,21.9c7.2,14.3,1.7,29.4-13,35.6
	c-1.9,0.7-4,1.1-6,1.1c-1.1,0-2.1-0.6-2.7-1.4c-0.3-0.7,0.2-2.1,0.8-2.9c1.7-2,3.6-3.9,5.3-5.9c5.7-6.5,6.6-13.1,1.9-20.4
	c-4-6.2-8.7-12-12.9-18.1c-3.4-4.9-6.8-9.8-9.8-15c-3.2-5.3-4.9-11.4-4.9-17.6c-0.3,0.6-0.6,1.3-0.8,2c-5,14-10.2,28-17.9,40.9
	c-4.5,7.6-9.6,14.8-17.2,19.6c-2.3,1.5-4.7,2.7-7.3,3.6c-4.2,1.4-7.7,0.1-10.5-3.2c-3-3.7-4.5-8.1-5.4-12.6
	c-1.3-6.2-2.3-12.4-3.5-19.1c-0.4,1.1-0.8,2-1.1,2.8c-4.6,13.7-11.7,26.4-20.8,37.6c-2,2.4-4.3,4.6-6.9,6.4
	c-6,4.1-12.6,2.7-16.9-3.1c-3.5-4.7-5-10.2-6-15.9C718.5,230.7,717.8,224.1,716.9,217.3z M627.4,196.6l0.5,0.4l0.8-0.6
	c9.3-6.7,18.7-13.4,28-20.2c0.6-0.4,1.3-0.9,1.8-1.4c1.3-1.3,1-2.8-0.8-2.8c-2.1,0-4.2,0.4-6.1,1.3c-6.1,3.2-11.4,7.5-15.8,12.7
	C632.7,189.5,630.1,193.1,627.4,196.6z M774.5,189.6l0.7,0.1c0.7-3.5,1.5-7,2.2-10.5l-0.8-0.1C775.9,182.6,775.2,186.1,774.5,189.6
	L774.5,189.6z"/>
<path d="M352.8,272.8c0.9-5.1,2-10.3,2.8-15.5c1.4-9.8,1.8-19.7,1-29.6c-0.1-1.8-0.8-2.4-2.4-2.9c-6.6-2.1-11.1-6.5-12.3-13.4
	c-0.4-2.9,0-5.8,1.1-8.4c1.4-3.5,4.9-4.1,7.4-1.3c2.1,2.3,3.7,5.1,4.7,8c1.2,4,2.2,8.1,2.7,12.3c0.4,2.1,1.1,3.1,3.2,2.7
	c6.9-1.2,13.7-2.4,20.6-3.8c6.4-1.3,12.7-3.4,19.4-2.9c4.9,0.4,9.4,3,12.1,7.1l-0.4,0.6c-0.4-0.2-0.9-0.5-1.2-0.8
	c-4.6-5.7-10.8-6.7-17.4-5.5c-8.4,1.6-16.6,3.8-24.9,5.5c-3.5,0.7-7.1,0.8-10.6,1.2c0.2,5.3,0.6,10.6,0.6,15.9
	c0.1,12.2-1.6,24.3-4.1,36.3c-0.1,1.2-0.4,2.3-1,3.4c-0.8,1.1-2.1,2.7-3.2,2.7c-1.3,0.1-3.4-1-3.8-2.1c-1.4-3.5-2.4-7.1-3-10.8
	c-1.1-8.5,0.7-17.2,5.2-24.5c2-3.4,3-7.4,4.1-11.2c0.4-1.2-0.1-3.5-1-4.1s-3.1,0-4.1,0.8c-2.5,1.9-4.7,4.2-6.6,6.7
	c-4.2,6.3-8.1,12.8-12.1,19.3c-4.9,8-9.9,16-17.5,21.8c-4.4,3.4-9.1,6.2-14.8,6.3c-9.1,0.1-15.9-4.1-20.3-11.9
	c-4.9-8.6-5.4-17.8-3-27.3c0.4-1.7,0.8-3.4,1.2-5.1c-5.7-0.8-11.2-1.2-16.7-2.3s-10.8-3-16.6-4.6c0.3,1.1,0.6,2.1,0.9,3.1
	c4.8,15.5,3.2,30.2-5.5,43.9c-2.4,3.7-5.5,7-9,9.7c-9.9,7.5-22.7,5.2-29.8-5.1c-4.9-7.2-6.6-15.5-7-24c-0.2-5.2-0.1-10.4-0.6-16.4
	c-0.3,0.9-0.8,1.7-1.3,2.4c-10.6,11.5-21.4,22.8-34.2,31.9c-8.5,6-17.7,10.6-28,12.6c-3,0.6-6.1,0.8-9.1,0.6
	c-6.8-0.5-11.3-4.5-13.2-10.7c-1.7-5.4-2.7-10.9-3-16.5c-0.7-16,2-31.6,5.7-47.1c2.4-10.1,5.2-20.1,7.9-30.2
	c0.2-0.8,0.3-1.5,0.2-2.3c-0.5,0.8-1,1.6-1.5,2.5c-12.7,22.5-26.1,44.6-42.4,64.8c-6,7.5-12.6,14.7-20.3,20.5
	c-5.1,3.8-10.4,7.2-16.9,7.9c-7.3,0.8-13-2.2-17.2-8.1c-5.2-7.3-6.7-15.7-7.4-24.4c-1.8-21,2.4-41.2,8-61.3
	c6.8-24.3,16-47.7,24.9-71.2c7-18.7,14.1-37.3,18.6-56.8c2.1-9.3,3.9-18.8,1.9-28.3c-1.9-9.4-6.9-16.3-16.6-18.8
	c-4.6-1.1-9.4-0.7-13.8,1C21.3,19.3,12,26.7,4.5,36.4c-3.2,4.2-4.6,8.8-1.8,13.8c0.1,0.2,0.1,0.5,0.1,0.7c0,0.1-0.1,0.1-0.1,0.2
	C1,50-0.5,46.4,0.1,43.8c0.4-2.2,1.2-4.3,2.3-6.2c8.4-12,19.3-20.8,33.6-24.4c13.8-3.4,25.8,5.1,28.4,19.8
	c1.7,9.5,0.2,18.9-1.9,28.1c-4.7,20.8-12.4,40.7-19.9,60.6c-9.1,24.1-18.4,48-25,72.9c-3.8,14.4-6.7,28.9-6.9,43.8
	c-0.1,9.5,0.3,19,3.6,28c2,5.7,4.9,10.7,10.5,13.7c4.3,2.4,9.5,2.7,14.1,0.9c7.8-2.8,14-7.8,19.8-13.4
	c10.5-10.4,19.8-21.9,27.7-34.4c10.5-16.5,20.6-33.2,30.3-50.1c3.3-5.8,5-12.5,7.2-18.8c14.8-41.8,33.4-82,54.5-120.9
	c1.1-2,2.4-3.9,3.6-5.9c0.5-0.8,0.8-1.7,1.2-2.5l1.5,1c-0.2,1.2-0.4,2.5-0.8,3.6c-4.2,10.6-8.3,21.2-12.6,31.8
	c-14.9,36.4-31.6,71.9-50.2,106.5c-3.6,6.6-5.2,14.4-7.2,21.7c-5.2,18.6-9.5,37.3-10.6,56.7c-0.4,7.5-0.6,15,1.3,22.4
	c3.6,13.5,10.3,15.8,21.9,13.9c11.1-1.8,20.8-7,29.8-13.5c13.1-9.6,24.1-21.3,35-33.3c0.6-0.8,1-1.7,1.1-2.8
	c4-36,12.5-71.3,25.5-105.1c7.6-19.9,16.7-39.1,28.9-56.6c4.8-6.9,10.1-13.4,17-18.3c1.6-1.2,3.4-2.2,5.3-2.9
	c4.3-1.5,7.8,0.1,8.5,4.6c0.7,4.5,0.7,9.1,0,13.7c-2.2,15.1-7.7,29.3-13.4,43.3c-10.4,25.3-21.6,50.2-34.9,74.2
	c-9.1,16.1-19.9,31.2-32.4,44.9c-2.6,2.6-4.1,6-4.2,9.7c-0.4,9.9-0.3,19.6,3.3,29c3,7.9,7.9,13.8,16.6,15.5c6.7,1.3,12.5-1,17.4-5.4
	c8.4-7.5,12.5-17.3,14.2-28.2c1.4-8.6-0.3-16.8-2.9-24.9c-0.3-1.4-1.5-2.5-3-2.6c-4.9-0.6-9.8-1-14.7-1.6c-3.2-0.4-6.4-1-9.5-1.7
	c-1-0.4-1.8-1.2-2.1-2.2c-0.1-0.5,1.1-1.7,1.9-2c4.7-2.3,9.9-3.3,15.1-3.1c5.4,0.3,8.8,3.5,11,8c0.8,1.7,2.3,2.9,4.1,3.4
	c9,3.2,18.2,5.6,27.9,6.1c2.8,0.1,4.2-0.6,5.1-3.4c2.3-7.3,5.8-14,11.5-19.4c5.5-5.2,11.2-5.7,17.2-1.8c4.4,2.9,5.7,7.5,3.3,12.2
	c-1.9,3.6-5,6.4-8.7,8c-6.8,3.2-14,4.6-21.5,5c-1.5,0.1-2.3,0.5-2.6,2.1c-1.5,8.3-1.9,16.7,0.5,24.8c2.5,8.4,7.7,14.4,16.6,16.4
	c4,0.9,8.1,0.4,11.7-1.4c6.2-2.9,11.6-7.4,15.5-13.1c4.8-6.8,9-14,13.6-21c3-4.6,6-9.3,9.5-13.6c1.8-2.1,4.1-3.8,6.6-5
	c2.6-1.3,4.5,0.1,4.6,3.1c-0.1,1.4-0.2,2.9-0.4,4.3c-0.3,4-0.6,8-0.9,11.9c-0.4,5.7-0.7,11.3-1.1,17c-0.1,1.8-0.2,3.6-0.3,5.5
	L352.8,272.8z M193.3,242.7l0.6,0.2c0.2-0.2,0.5-0.4,0.7-0.7c11-12.4,21.2-25.4,29.8-39.6c12.3-20.6,22.2-42.3,31.8-64.1
	c7.4-16.9,14.4-33.9,18.9-51.8c1.6-6.4,3.1-12.8,2.1-19.4c-0.9-6.3-4.5-8-10.2-5c-0.8,0.4-1.5,0.8-2.2,1.4
	c-3.7,3.4-7.7,6.6-10.9,10.4c-10.8,12.6-18.7,27-25.6,42c-16.2,35.1-26.8,71.9-32.7,110.1C194.7,231.6,194,237.1,193.3,242.7
	L193.3,242.7z M182.8,38.3c-24.2,42.8-44.7,87.2-60.3,133.7C146.3,129.1,165.6,84.2,182.8,38.3z M276.8,240.9
	c2.1-0.2,3.9-0.3,5.6-0.5c6.5-0.9,13-2.1,18.8-5.4c3.2-1.6,5.7-4.2,7.1-7.4c1.7-4,0.6-7.6-2.9-10.1c-5.2-3.7-10.6-3.5-15.4,0.7
	C283.1,224.1,279.6,232,276.8,240.9L276.8,240.9z M356.4,223.9c-0.8-4.2-1.3-8.2-2.4-12c-0.8-2.8-2-5.4-3.5-7.8
	c-0.8-1.2-2.9-2.7-3.9-2.4c-1.4,0.4-2.8,2.3-3.2,3.8C340.7,213.4,347.5,223.1,356.4,223.9L356.4,223.9z M212.6,228.1l0.1,1.1
	c8.5,3.7,18,1.5,26.9,4.2c-2.5-6.6-7.1-9.6-13.5-9.1c-2.2,0.2-4.4,0.6-6.5,1.1C217.1,226.2,214.9,227.2,212.6,228.1L212.6,228.1z"/>
<path d="M112.1,72.3c0.2-12.7,8.1-20.9,18.5-21.5c1.3-0.1,2.5-0.4,3.6-0.9c8.9-4.4,19.3,2.2,18.6,12c-0.8,11.1-6.4,19.2-16.4,24.2
	c-1.7,0.8-3.3,1.7-4.8,2.8c-6.2,4.5-13.8,2.6-16.4-4.5C113.5,79.8,112.7,74.8,112.1,72.3z"/>
<path d="M106.6,35.3c-11.5,0-19-7.9-17.5-17.1C90,12.7,93.5,9,98.4,6.4c1.9-1,3.7-2.1,5.5-3.3c3.8-2.5,7.6-4,12.3-2.7
	c8.5,2.3,11,8.3,10.3,15.4c-0.4,3.1-1.4,6.2-2.8,9C119.9,32.3,113.6,35.7,106.6,35.3z"/>
</svg>
