<svg xmlns="http://www.w3.org/2000/svg" viewBox="0 0 265.48 401.53"><defs><style>.cls-1{fill:#fff;}</style></defs><g id="Layer_2" data-name="Layer 2"><g id="Layer_1-2" data-name="Layer 1"><path d="M67.15,249.65C61.69,251,56.38,252.36,51,253.53c-13.15,2.89-26.37,3.65-39.63.69C1.34,252-2,246.72,1.11,237c4-12.69,11.79-22,25.85-23.19,11.35-1,21,3.57,28.46,12.27a64.8,64.8,0,0,1,11,18.8c.45,1.13.89,2.26,1.41,3.59,3.06-1,6-1.78,8.85-2.86.54-.2,1-1.43,1-2.19,0-9-.34-18.11-.13-27.16.46-20.24.91-40.49,1.85-60.71.86-18.38,2.39-36.72,3.56-55.08,1.7-26.55,4-53.08,3.42-79.73-.15-6.43-.57-12.86-.82-19.28,0-.34.34-.69.73-1.42a7.9,7.9,0,0,1,.53,1.6,539.68,539.68,0,0,1-.36,57.73c-1.44,22-3,44.06-4.36,66.1-1.08,17.3-2.42,34.59-2.89,51.9-.6,22.08-.44,44.18-.6,66.28a7.67,7.67,0,0,0,.24,1.3c1.56-.51,3-.95,4.43-1.44a300.17,300.17,0,0,0,99.74-58.17,330.7,330.7,0,0,0,37.12-37.64,10.5,10.5,0,0,0,2.48-6.45c1.19-17.82,2.07-35.67,3.81-53.44,1.9-19.38,4.51-38.73,10.91-57.26a133.12,133.12,0,0,1,8.82-19.66c1.5-2.8,4.39-5.1,7.12-6.93,3.35-2.25,6-1.4,8.25,2,3.16,4.64,3.66,10.06,3.88,15.41,1.37,32.3-6.08,62.63-20.62,91.35a8.63,8.63,0,0,0-1.07,3.66c-.22,18.64-.58,37.28-.43,55.92q.24,26.67,1.4,53.34c.81,19.15,2.08,38.28,3.17,57.41.74,13.09,1.6,26.17,2.26,39.27.58,11.79.79,23.6,1.48,35.38a197.66,197.66,0,0,1-1.08,33.27,33.5,33.5,0,0,1-2,8,4.54,4.54,0,0,1-3,2.62c-.86.12-2.5-1.29-2.86-2.34a135.31,135.31,0,0,1-4.79-15.79c-2.32-10.86-4.46-21.78-6.18-32.76-2-12.56-3.54-25.19-5-37.83-1.26-11.11-2.21-22.27-3.08-33.43-.67-8.48-1.26-17-1.42-25.48q-.69-35.77-.92-71.56c-.05-10.88.54-21.76.84-32.65,0-.81,0-1.63,0-3.1l-3.63,4.24C180.9,194.17,135.83,226.61,81.18,245c-2,.67-2.66,1.49-2.6,3.69.46,16.57.6,33.14,1.13,49.7.44,13.64,1.35,27.26,1.92,40.9.74,17.7,1.65,35.4.54,53.12a18.16,18.16,0,0,1-.5,2.48H81a20,20,0,0,1-.6-3.2q-.27-10-.42-20c-.25-17.1-.08-34.23-.8-51.31-1-23.27-4.33-46.23-11.21-68.57C67.71,251.11,67.42,250.41,67.15,249.65ZM67,249c-3.91-10.75-8.6-20.2-17.07-27.11-7.42-6-16.15-8.71-25.58-6.92C12.19,217.3,5.51,225.84,2,237.07c-3,9.59.06,14.31,10,16.37a80.92,80.92,0,0,0,31.28.54C51.07,252.56,58.82,250.75,67,249ZM244.12,111.68c.09-.16.26-.41.39-.68a183.34,183.34,0,0,0,20.12-86c-.07-5.14-1.29-10.3-2.31-15.39-.27-1.34-1.75-2.45-2.68-3.67-1,1.09-2.31,2-2.88,3.29a42.93,42.93,0,0,0-3,8.43c-1.91,9-3.92,17.95-5.22,27-1.44,10.07-2.24,20.24-3.1,30.38-.63,7.32-1,14.67-1.31,22C244,102,244.12,106.86,244.12,111.68ZM68.05,249.3c5.51,16.18,8,32.69,10.67,49.16-.35-17.32-.7-34.64-1-52.15Zm13.28,96.06-.3.1v44.22h.3Z"/><path class="cls-1" d="M68.05,249.3l9.62-3c.35,17.51.7,34.83,1,52.15C76.05,282,73.56,265.48,68.05,249.3Z"/><path class="cls-1" d="M81.33,345.36v44.31H81V345.46Z"/></g></g></svg>