<?xml version="1.0" encoding="utf-8"?>
<!-- Generator: Adobe Illustrator 25.0.1, SVG Export Plug-In . SVG Version: 6.00 Build 0)  -->
<svg version="1.1" id="Layer_1" xmlns="http://www.w3.org/2000/svg" xmlns:xlink="http://www.w3.org/1999/xlink" x="0px" y="0px"
	 viewBox="0 0 265.5 401.5" style="enable-background:new 0 0 265.5 401.5;" xml:space="preserve">
<style type="text/css">
	.st0{fill:#FFFFFF;}
</style>
<g id="Layer_2_1_">
	<g id="Layer_1-2">
		<path d="M67.2,249.6c-5.5,1.4-10.8,2.7-16.2,3.9c-13.2,2.9-26.4,3.6-39.6,0.7C1.3,252-2,246.7,1.1,237c4-12.7,11.8-22,25.9-23.2
			c11.4-1,21,3.6,28.5,12.3c4.7,5.6,8.4,12,11,18.8c0.4,1.1,0.9,2.3,1.4,3.6c3.1-1,6-1.8,8.8-2.9c0.5-0.2,1-1.4,1-2.2
			c0-9-0.3-18.1-0.1-27.2c0.5-20.2,0.9-40.5,1.8-60.7c0.9-18.4,2.4-36.7,3.6-55.1c1.7-26.6,4-53.1,3.4-79.7
			c-0.2-6.4-0.6-12.9-0.8-19.3c0-0.3,0.3-0.7,0.7-1.4c0.2,0.5,0.4,1,0.5,1.6c0.9,19.2,0.8,38.5-0.4,57.7c-1.4,22-3,44.1-4.4,66.1
			c-1.1,17.3-2.4,34.6-2.9,51.9c-0.6,22.1-0.4,44.2-0.6,66.3c0,0.4,0.1,0.9,0.2,1.3c1.6-0.5,3-0.9,4.4-1.4
			c36.7-12.8,70.6-32.5,99.7-58.2c13.4-11.5,25.8-24.1,37.1-37.6c1.5-1.8,2.4-4.1,2.5-6.4c1.2-17.8,2.1-35.7,3.8-53.4
			c1.9-19.4,4.5-38.7,10.9-57.3c2.4-6.8,5.4-13.4,8.8-19.7c1.5-2.8,4.4-5.1,7.1-6.9c3.4-2.2,6-1.4,8.2,2c3.2,4.6,3.7,10.1,3.9,15.4
			c1.4,32.3-6.1,62.6-20.6,91.4c-0.6,1.1-1,2.4-1.1,3.7c-0.2,18.6-0.6,37.3-0.4,55.9c0.2,17.8,0.6,35.6,1.4,53.3
			c0.8,19.1,2.1,38.3,3.2,57.4c0.7,13.1,1.6,26.2,2.3,39.3c0.6,11.8,0.8,23.6,1.5,35.4c0.6,11.1,0.2,22.2-1.1,33.3
			c-0.3,2.7-1,5.4-2,8c-0.5,1.3-1.6,2.3-3,2.6c-0.9,0.1-2.5-1.3-2.9-2.3c-1.9-5.2-3.5-10.4-4.8-15.8c-2.3-10.9-4.5-21.8-6.2-32.8
			c-2-12.6-3.5-25.2-5-37.8c-1.3-11.1-2.2-22.3-3.1-33.4c-0.7-8.5-1.3-17-1.4-25.5c-0.5-23.8-0.8-47.7-0.9-71.6
			c-0.1-10.9,0.5-21.8,0.8-32.7c0-0.8,0-1.6,0-3.1l-3.6,4.2c-37.6,43.3-82.6,75.7-137.3,94.1c-2,0.7-2.7,1.5-2.6,3.7
			c0.5,16.6,0.6,33.1,1.1,49.7c0.4,13.6,1.3,27.3,1.9,40.9c0.7,17.7,1.7,35.4,0.5,53.1c-0.1,0.8-0.3,1.7-0.5,2.5H81
			c-0.3-1-0.5-2.1-0.6-3.2c-0.2-6.7-0.3-13.3-0.4-20c-0.2-17.1-0.1-34.2-0.8-51.3c-1-23.3-4.3-46.2-11.2-68.6
			C67.7,251.1,67.4,250.4,67.2,249.6z M67,249c-3.9-10.8-8.6-20.2-17.1-27.1c-7.4-6-16.2-8.7-25.6-6.9C12.2,217.3,5.5,225.8,2,237.1
			c-3,9.6,0.1,14.3,10,16.4c10.3,2.2,20.9,2.4,31.3,0.5C51.1,252.6,58.8,250.8,67,249z M244.1,111.7c0.1-0.2,0.3-0.4,0.4-0.7
			c13.6-26.6,20.5-56.1,20.1-86c-0.1-5.1-1.3-10.3-2.3-15.4c-0.3-1.3-1.8-2.4-2.7-3.7c-1,1.1-2.3,2-2.9,3.3c-1.3,2.7-2.3,5.5-3,8.4
			c-1.9,9-3.9,18-5.2,27c-1.4,10.1-2.2,20.2-3.1,30.4c-0.6,7.3-1,14.7-1.3,22C244,102,244.1,106.9,244.1,111.7z M68.1,249.3
			c5.5,16.2,8,32.7,10.7,49.2c-0.3-17.3-0.7-34.6-1-52.1L68.1,249.3z M81.3,345.4l-0.3,0.1v44.2h0.3V345.4z"/>
		<path class="st0" d="M81.3,345.4v44.3H81v-44.2L81.3,345.4z"/>
	</g>
</g>
</svg>
