<svg xmlns="http://www.w3.org/2000/svg" viewBox="0 0 717.51 775.36"><path d="M717.51,310c-14.08-1.32-28.17-2.7-42.26-3.93-5.92-.52-11.87-.65-17.8-1.08-17.76-1.29-35.5-2.7-53.26-3.93-4-.28-7.94,0-12.56,0,.41,2.94.57,5.65,1.19,8.24,3.08,13,6.49,26,9.39,39,3,13.69,5.69,27.47,8.42,41.23,2.63,13.3,5.38,26.58,7.63,40,1.81,10.82,3,21.74,4.36,32.64,1.72,14.35,3.29,28.71,4.87,43.07.43,3.93.92,7.88,1,11.82.42,21.92,1.74,43.88.78,65.73-.83,18.79-3.53,37.6-6.82,56.16a419.56,419.56,0,0,1-11.92,48.35,377.39,377.39,0,0,1-15,39.72c-3.92,9.09-8.92,17.76-14,26.31-2.69,4.59-7.66,6.37-12.83,7.14-13.44,2-26.87,4.09-40.33,5.9-7,1-14.07,1.38-21.11,2.06-10.31,1-20.6,2.28-30.92,3-19,1.22-37.95,2.08-56.92,3.14a9.06,9.06,0,0,0-2.52,1H326.05c-.67-.33-1.33-.92-2-1-11.6-.39-23.21-.4-34.78-1.13-16.11-1-32.19-2.56-48.28-3.87-8.53-.7-17.09-1.21-25.6-2.08-10.94-1.12-21.85-2.58-32.78-3.78-10.29-1.13-20.58-2.35-30.9-3.1-7.72-.56-14.08-2.65-17.14-10.61-7.47-19.42-15.53-38.63-22.39-58.26a450.52,450.52,0,0,1-12.42-43.69,310.51,310.51,0,0,1-6.17-35.21c-1.87-15.51-3.4-31.11-4.06-46.71-.88-20.89-1.39-41.84-.91-62.73.38-16.77,2-33.56,4-50.24,1.63-14.11,4.13-28.15,6.82-42.11,4-21,8.3-41.93,13-62.79,3.73-16.68,8.21-33.19,12.28-49.79a5.54,5.54,0,0,0-.22-2.33c-4.39,0-8.31-.13-12.22,0-16.54.61-33.07,1.18-49.6,2-16.32.82-32.63,1.91-48.94,3-4.41.28-8.8.87-13.2,1.32L0,301.12c5.61-3.38,11.25-6.72,16.82-10.16,30.77-19,61.74-37.68,92.21-57.14,20.95-13.39,41.59-27.33,61.64-42,18.72-13.72,36.74-28.45,54.58-43.31,13.19-11,26-22.46,38.27-34.46,22.83-22.31,44.19-46,62.7-72.09,8.86-12.51,17.54-25.14,26.42-37.64,3.68-5.18,9.12-5.79,13.11-1.22,11,12.61,21.74,25.48,32.69,38.15,5.61,6.51,11.25,13,17.19,19.2,25.89,27,51.4,54.44,78,80.74C512,159.34,531.41,176.6,551.38,193q36.43,30,74.68,57.69c19.31,14,39.76,26.52,59.89,39.41,10.31,6.6,21,12.57,31.56,18.83ZM230.27,293c-27.17.34-54.33,1.32-81.5,2-2.16.06-4.56-.59-6.43.16-2.85,1.13-6.92,2.65-7.7,4.95-3.62,10.77-6.49,21.81-9.27,32.85-3.46,13.75-6.63,27.56-9.77,41.39-1.59,7-3,14.07-4.22,21.14q-2.52,14.25-4.67,28.55c-1.88,12.64-3.85,25.27-5.26,38-1.14,10.31-1.84,20.71-2.15,31.09-.57,19.31-1.5,38.66-.82,57.94s2.93,38.71,4.91,58c1,9.92,2.19,19.93,4.6,29.57,4.94,19.75,10.15,39.47,16.43,58.83,5.06,15.63,11.74,30.75,18,46,1.07,2.62,3.25,6.13,5.52,6.67,6.34,1.51,13,1.71,19.54,2.35,10.8,1.06,21.62,2,32.42,3.1,11.76,1.22,23.48,2.77,35.24,3.86,10,.92,20.09,1.36,30.13,2.07,18.42,1.28,36.83,3.13,55.27,3.76,19.66.67,39.37.35,59.05.19q32.63-.27,65.24-1.12c8.72-.23,17.43-1.15,26.12-2,12.1-1.18,24.17-2.59,36.25-3.92,9.78-1.08,19.58-2.11,29.34-3.33q13.17-1.65,26.29-3.7c4.06-.63,8.84-.14,11.2-4.6,5.64-10.63,12.11-21,16.37-32.14,6.78-17.78,12.42-36,17.8-54.31,2.94-10,4.71-20.36,6.36-30.67,1.53-9.56,2.51-19.24,3.18-28.9,1-14.27,2.09-28.57,2-42.85-.09-17.7-1.26-35.39-2.13-53.07-.31-6.29-1-12.56-1.76-18.81-1.28-10.42-2.72-20.81-4.18-31.2-1.52-10.86-3-21.72-4.77-32.55-1.55-9.5-3.36-19-5.23-28.43q-3.7-18.7-7.71-37.35c-3.34-15.45-6.87-30.86-10.29-46.29-1.58-7.13-3.43-9.24-10.88-10.28-7.16-1-14.4-1.51-21.63-1.89q-31.2-1.65-62.42-3-28-1.2-56.09-2c-16.59-.48-33.18-.87-49.77-1-22.8-.16-45.6,0-68.4,0m359.75,4.94c.2-.42.39-.85.58-1.27-1.47-1.13-2.89-2.34-4.44-3.36-13.4-8.82-27.2-17.07-40.15-26.49-23.48-17.08-46.63-34.62-69.56-52.41-12.74-9.88-24.95-20.46-37.07-31.09q-16.76-14.7-32.79-30.23c-15.6-15.11-31.07-30.37-46.2-45.94-11.92-12.26-23.35-25-34.8-37.7-8.91-9.87-17.51-20-26.25-30.05-6.9-7.93-13.86-15.81-20.68-23.81-2.53-3-4.19-2.85-6.25.54-4,6.57-7.8,13.32-12.51,19.34C328.25,54.71,312.8,75.38,295.7,94.56c-15.06,16.9-31.56,32.64-48.45,47.74-17.89,16-36.46,31.33-55.69,45.68q-38.76,28.92-79.08,55.75c-20.39,13.62-41.79,25.72-62.69,38.58-3,1.88-5.83,4.21-8.73,6.33l.62,1.34c1.6,0,3.22.1,4.81,0,12.16-.95,24.3-2.2,36.47-2.87,21.46-1.18,42.94-2.11,64.42-3,12.92-.52,25.86-.77,38.79-1.06,15.73-.36,31.48-1,47.22-.92q85.31.25,170.61.89c19.75.13,39.5.6,59.25,1,6.94.15,13.87.67,20.81.94,17.37.69,34.75,1.24,52.11,2,11.89.54,23.76,1.31,35.63,2.09Q599.68,291,627.57,293c7.88.57,15.75,1.33,23.62,2Z" style="fill:#fff"/><path d="M163.28,606.52c0-4.16-.18-8.33,0-12.48.95-19,1.74-38,3.12-56.9.68-9.29,2.36-18.51,3.89-27.72.82-4.95,4.34-7.08,9.18-6,9.53,2.19,18.95,5,28.57,6.64,19.38,3.36,38.94,5.36,58.59,2.65,12.3-1.7,24.53-3.91,36.76-6.1,3.82-.69,7.5-2.18,11.29-3.14,5.75-1.46,9.35.5,10.33,6.32,2.21,13.06,4.38,26.15,5.93,39.3,2.27,19.43,4.87,38.89,5.7,58.4s-.17,39.17-.69,58.75c-.24,8.72-1,17.47-2,26.13-1.51,12-3.47,24-5.48,35.9A144.43,144.43,0,0,1,325,743c-1.24,4.46-4.9,5.52-8.82,4.75-11.2-2.21-22.23-5.82-33.52-6.88-13.75-1.29-27.71-.95-41.55-.52-9.66.31-19.29,1.83-28.91,3-9.9,1.25-19.79,2.64-29.64,4.28-6.61,1.11-11.82-2.49-12.26-9-1-15-2.07-29.95-3-44.93-1.07-17.47-2.24-35-2.91-52.44m153.14,96.55c1.94-13.43,4.09-26.14,5.54-38.92,1.67-14.71,3.45-29.46,3.84-44.23.48-17.39-.2-34.83-.9-52.23-.59-14.48-1.57-29-3.09-43.38-1.45-13.84-3.84-27.57-5.81-41.35-.43-3-1.37-5-5.12-3.66a50.37,50.37,0,0,1-8.48,2.31c-11.89,2.16-23.73,5.09-35.72,6-13.29,1-26.72.36-40.09.17a75.53,75.53,0,0,1-13.23-1.43c-8.32-1.63-16.56-3.63-24.84-5.47l-10-2.2a38.3,38.3,0,0,0-1.38,5.21c-1.4,13.39-3.18,26.78-3.93,40.21-.88,15.9-1.4,31.85-1.07,47.76.53,25.78,1.75,51.55,2.94,77.32.77,16.64,1.91,33.27,3.17,49.89.12,1.58,2.19,4.18,3.48,4.26,3.17.2,6.43-.77,9.64-1.31,10.64-1.8,21.22-4.45,31.94-5.22,15.53-1.11,31.16-1.26,46.73-1,8.32.1,16.64,1.57,24.9,2.85C302.83,734.48,309.48,736.17,317.52,737.86Z" style="fill:#fff"/><path d="M565.71,627.88c0,8.15.32,16.32-.06,24.46-.79,17-1.89,34-3,50.93-.29,4.47-4.92,7.86-10.8,8.1-17.86.73-35.72,1.64-53.59,2q-24.61.5-49.27-.06c-13.21-.28-26.41-1.2-39.61-2-6.52-.38-11-5.59-11.41-12.9-.68-12.71-1.61-25.41-1.95-38.13-.54-20.41-1.08-40.84-.84-61.25.14-11.83,1.69-23.65,2.83-35.45.7-7.27,6-11.52,13.3-12,16.43-1.12,32.82-2.94,49.26-3.67,11.07-.49,22.19.43,33.29.66,4.82.11,9.66-.13,14.47.15,15,.87,30,1.56,44.9,3,8.28.82,9.67,4.66,10.21,12.54,1.44,21.14,2,42.35,2.9,63.53ZM409,701.46c21.26,1,41.72,2.45,62.2,2.87,16.41.34,32.84-.38,49.26-.93,10-.34,20.09-1.13,30.1-2,1.15-.1,3-2.11,3.05-3.33.87-12.85,2.11-25.73,2-38.6-.27-31.51-1.25-63-1.8-94.51-.06-3.07-1.39-4.15-4.06-4.28-20.47-1-40.95-2.86-61.42-2.79-25,.08-49.92,1.83-74.88,2.72-3.95.14-5.21,2.54-5.49,5.59-1.14,12.29-2.77,24.6-2.89,36.92-.22,21.57.48,43.16.9,64.73.14,6.94.48,13.89,1,20.81C407.35,692.83,408.28,697,409,701.46Z" style="fill:#fff"/><path d="M481.06,478.74c-7.82,0-15.64.13-23.46,0-12.59-.24-25.19-.52-37.77-1.09a102,102,0,0,1-17.09-2.1c-2.15-.48-4.45-2.75-5.55-4.81a20.2,20.2,0,0,1-2.07-8.49c-1.11-30.29-2.61-60.57-2.83-90.86-.1-14.4,1.81-28.89,3.79-43.21,1.27-9.16,3.74-10,12.68-11.3,24.31-3.64,48.78-3.86,73.23-3.72,16.2.09,32.4,1.14,48.59,2,6.9.35,13.76,1.23,20.64,1.86,5.21.48,8.81,4.88,9.35,12.1.58,7.57.93,15.18,1.13,22.77.42,17.09.94,34.18.95,51.27,0,15.42-.45,30.85-1,46.27-.24,6.31-1.18,12.61-2,18.89-.53,4.18-2.94,6.94-7.24,7.39-7.69.82-15.39,1.84-23.11,2-16.08.31-32.17.1-48.26.1Zm-75.3-12.27c19.27,1.12,37.87,2.68,56.49,3.14,16.24.39,32.52-.28,48.77-.82,12.05-.4,24.08-1.26,36.1-2.16,1.28-.09,3.38-1.77,3.49-2.86.91-9.85,1.86-19.73,2-29.61.33-17.87.43-35.75.1-53.61-.31-16.71-1.2-33.4-2.17-50.08-.1-1.58-2.49-4.23-4-4.34-16.79-1.29-33.59-2.6-50.42-3.1a717.82,717.82,0,0,0-86.37,2.77c-4.21.39-4.53,3.19-4.76,5.58-1.26,12.79-2.82,25.61-3,38.43-.25,20.74.27,41.51,1,62.25C403.43,443.52,404.82,455,405.76,466.47Z" style="fill:#fff"/><path d="M239.64,481.74c-9.48,0-19,.35-28.45-.08-16-.72-32-1.69-47.9-3.18-2.51-.23-5.26-3.38-6.87-5.86-1.42-2.17-1.78-5.27-1.95-8-.84-14.19-1.6-28.39-2.13-42.6-.49-12.92-1.18-25.87-.82-38.78.46-16.83,1.36-33.68,3.1-50.42.82-7.95,3.79-12.55,13.13-13,16.31-.72,32.59-2.38,48.9-2.8,19.12-.5,38.27-.43,57.4.06,12,.31,24,1.8,35.94,2.86,6,.52,9.75,5,10,12,.75,25.85,1.87,51.7,2,77.56.07,19.19-1.16,38.39-2,57.58-.38,8.85-4.3,12-15.73,12.55-21.5,1.08-43,2-64.53,2.93Zm-74.42-12.4c18.45,1.18,35.91,2.81,53.39,3.26,16.24.41,32.51-.26,48.76-.79,12.71-.41,25.4-1.38,38.1-2,2.47-.13,4.54,0,4.68-3.51.89-21.64,2.1-43.28,2.83-64.92.26-7.59-.52-15.21-.86-22.81-.66-15-1.23-30.07-2.19-45.08-.1-1.59-2.47-4.23-3.95-4.35-15.62-1.3-31.26-2.73-46.92-3.08-29.81-.67-59.64-.4-89.35,2.84-3.06.33-5.12,1.55-5.39,4.6-1.1,12.29-2.89,24.61-2.86,36.91.06,26,1,52,1.82,78.05C163.5,455.45,164.56,462.43,165.22,469.34Z" style="fill:#fff"/><path d="M514.82,626.48c6.31,0,12.63,0,18.94,0,5.29,0,8.6-2.58,8.83-7.72.57-12.78,1-25.57,1-38.36,0-7.57-3.35-11.33-9.17-11.72-6.75-.46-13.51-1-20.27-1-6.58,0-13.17.56-19.75.93-4.6.26-8.23,2.43-8.44,7.15-.62,13.76-1.13,27.55-.83,41.31.15,6.83,4.06,9.34,11.27,9.37C502.53,626.5,508.68,626.48,514.82,626.48Zm-1.62,68.17c6.95-.72,14-1.73,21-2.09,4.74-.24,7.47-2.45,8.31-6.77,2.79-14.35,2.28-28.79,0-43.12a8.21,8.21,0,0,0-8.39-7.07c-13.29-.13-26.58-.23-39.86,0-4.2.09-7.94,1.67-8.57,7-1.61,13.74-1.28,27.44-.16,41.18.34,4.19,1.81,7.74,6,8.46C498.64,693.51,505.89,693.9,513.2,694.65ZM446,626.47v0c6.49,0,13,.22,19.47-.08,4.08-.18,7.54-1.72,8.45-6.54,2.55-13.41,1.65-26.82.41-40.26-.55-5.9-2.33-10.78-9.33-11-12.47-.41-25-.94-37.43-.77-5.76.08-10.32,4.3-10.51,8.73-.51,11.75-1.12,23.53-.89,35.28.24,12,3.49,14.64,15.35,14.61Zm-.26,9.07c-6.81,0-13.62-.09-20.43,0-3.93.08-7.35,1.3-7.4,6.08-.15,14.34-.17,28.69-.26,43,0,3.89,1.45,7,5.45,7.62,6.15,1,12.39,2,18.58,1.93a189.1,189.1,0,0,0,26-2c2.29-.35,5.75-3.78,5.88-6,.85-13.51,1.26-27.08,1.08-40.61-.1-7.51-3.57-10.05-11-10.06Z" style="fill:none"/><path d="M286.44,641.53c-16.84,1.13-31.69-13.31-31.24-30.7.46-18.24,14-31,31.55-30.74,16.77.27,30,12.81,30.31,31.63C317.31,627.07,302.8,643.05,286.44,641.53Zm20.7-30.28c-.4-13-9.1-21-20.85-21.59-10.79-.54-21.72,10.56-22.05,21.7-.29,9.87,11,21.45,21.57,21C297.82,631.94,306.44,624.66,307.14,611.25Z" style="fill:#fff"/><path d="M514.82,626.48c-6.14,0-12.29,0-18.43,0-7.21,0-11.12-2.54-11.27-9.37-.3-13.76.21-27.55.83-41.31.21-4.72,3.84-6.89,8.44-7.15,6.58-.37,13.17-.94,19.75-.93,6.76,0,13.52.51,20.27,1,5.82.39,9.15,4.15,9.17,11.72,0,12.79-.42,25.58-1,38.36-.23,5.14-3.54,7.69-8.83,7.72C527.45,626.51,521.13,626.48,514.82,626.48Zm19-9.87c0-11.75,0-22.84,0-33.92,0-2.51-.48-4.13-3.5-4.19-10.59-.21-21.18-.66-31.78-.77-1.22,0-3.51,1.44-3.53,2.25q-.4,16.78-.1,33.58c0,1,2.21,2.89,3.42,2.92C509.62,616.7,520.91,616.61,533.79,616.61Z" style="fill:#fff"/><path d="M513.2,694.65c-7.31-.75-14.56-1.14-21.67-2.36-4.17-.72-5.64-4.27-6-8.46-1.12-13.74-1.45-27.44.16-41.18.63-5.33,4.37-6.91,8.57-7,13.28-.28,26.57-.18,39.86,0a8.21,8.21,0,0,1,8.39,7.07c2.26,14.33,2.77,28.77,0,43.12-.84,4.32-3.57,6.53-8.31,6.77C527.16,692.92,520.15,693.93,513.2,694.65Zm-18.4-49.18c0,11.9-.1,23.24.16,34.57,0,1.17,2.24,3.26,3.48,3.29,10.52.26,21.05.1,31.57.18,2.81,0,3.83-1.11,3.8-3.86q-.12-15.21,0-30.44c0-2.82-1.22-3.79-3.93-3.77C518.43,645.51,507,645.47,494.8,645.47Z" style="fill:#fff"/><path d="M446,626.47H431.49c-11.86,0-15.11-2.63-15.35-14.61-.23-11.75.38-23.53.89-35.28.19-4.43,4.75-8.65,10.51-8.73,12.47-.17,25,.36,37.43.77,7,.22,8.78,5.1,9.33,11,1.24,13.44,2.14,26.85-.41,40.26-.91,4.82-4.37,6.36-8.45,6.54-6.48.3-13,.08-19.47.08Zm-.16-9.87v0c5,0,10-.21,15,.07,3.7.21,5.21-1.29,5.1-4.79-.33-10.42-.61-20.84-1.12-31.26-.05-1-1.57-2.86-2.44-2.88-10.85-.22-21.7-.23-32.55-.17-2.7,0-4,1.42-3.91,4.43q.25,15.19,0,30.42c-.05,3.41,1.39,4.29,4.49,4.2C435.5,616.48,440.66,616.6,445.81,616.6Z" style="fill:#fff"/><path d="M445.71,635.54h17.94c7.43,0,10.9,2.55,11,10.06.18,13.53-.23,27.1-1.08,40.61-.13,2.2-3.59,5.63-5.88,6a189.1,189.1,0,0,1-26,2c-6.19.06-12.43-1-18.58-1.93-4-.63-5.47-3.73-5.45-7.62.09-14.34.11-28.69.26-43,.05-4.78,3.47-6,7.4-6.08C432.09,635.45,438.9,635.54,445.71,635.54Zm20.56,27.34c-.45-4.92-.73-10-1.51-15-.2-1.24-2.05-3.14-3.17-3.16q-15.75-.36-31.52,0c-1.08,0-3,2.09-3,3.25q-.34,16,0,32c0,1.2,2.18,3.33,3.38,3.36q15.51.4,31,0c1.16,0,3.1-1.86,3.26-3.05C465.5,674.6,465.79,668.83,466.27,662.88Z" style="fill:#fff"/><path d="M510.77,333.54c8.09.48,16.22.6,24.23,1.65,2.4.31,6.22,3.08,6.38,5,.85,10.35.83,20.79,1,31.2,0,2.95-.54,5.91-.57,8.87-.08,9.1-2.47,12.19-11.4,12.42-8.58.22-17.19-.52-25.78-.76-4.36-.12-8.77.32-13.08-.19-4.06-.48-6.84-2.84-6.93-7.49-.23-11.65-.57-23.29-.84-34.93,0-1.16.07-2.33.15-3.48.58-8.29,4-11.64,12.37-11.85,4.82-.12,9.65,0,14.47,0Zm22,11.32c-4.93-.57-9.59-1.49-14.26-1.56-7.22-.12-14.47.21-21.69.68a4.24,4.24,0,0,0-2.85,3c-.21,11.47-.13,22.93-.13,34.92,12.13,0,23.87.11,35.61-.17,1.14,0,3.14-2.45,3.17-3.79C532.87,367.09,532.76,356.26,532.76,344.86Z" style="fill:#fff"/><path d="M415,363.89c0-5.32,0-10.64,0-16,0-8.9,4.4-13.74,13.29-13.93,11.53-.25,23.06-.18,34.59,0,6.78.1,10.7,4.37,10.92,12.54.32,12.3.2,24.61,0,36.92-.07,4.77-5.14,9.35-10.48,9.3-13.08-.12-26.16-.49-39.23-1-4.86-.19-9-5.19-9.09-10.39C414.89,375.53,415,369.71,415,363.89Zm9.91,19h35.38c3.77,0,4.76-2.21,4.64-5.52-.36-9.59-.81-19.19-.88-28.78,0-4.2-2.07-5.64-5.73-5.66-9.61-.05-19.24-.23-28.84.19-1.58.07-4.31,2.82-4.37,4.41C424.68,358.73,424.86,369.93,424.86,382.9Z" style="fill:#fff"/><path d="M441.83,459.87c-5.62-.36-11.56-.68-17.48-1.14-5-.38-8.14-4-8.26-10.39-.24-12.69-.62-25.42.11-38.07.46-7.85,2.41-8.75,12.72-9.22s20.75-.08,31.13-.11c10.88,0,13.79,2.84,13.8,13.62,0,10.54,0,21.07,0,31.61,0,7.64-3.33,13.1-12.44,12.72C455,458.62,448.57,459.49,441.83,459.87Zm-15.91-49c0,12.22.05,23.73,0,35.24,0,3,1.81,3.66,4.11,3.67,9.31.07,18.63.13,27.94,0,3.54-.06,6.36-1.45,6.4-5.72.09-9.61.39-19.22.11-28.81,0-1.49-2.61-4.12-4.07-4.17C449.09,410.67,437.81,410.83,425.92,410.83Z" style="fill:#fff"/><path d="M512.88,401.84c7,0,14-.08,21,0a7.59,7.59,0,0,1,7.9,7.71c.39,10.58.78,21.17.94,31.76a40.27,40.27,0,0,1-1.06,10.28c-1.19,4.67-4.79,7-9.49,7.09-12.86.14-25.73.18-38.59,0-6.37-.1-9.27-3.3-9.52-11.27-.36-12-.28-24,0-36,.14-6.53,3.81-9.54,10.44-9.55Zm-19.06,9c0,12.18-.09,23.68.13,35.17,0,1.26,1.87,3.56,2.86,3.56q16.37,0,32.71-.85c1.14-.06,3.07-2.4,3.1-3.72q.39-15.32,0-30.62c0-1.21-2.19-3.36-3.4-3.38C517.62,410.73,506,410.83,493.82,410.83Z" style="fill:#fff"/><path d="M272.11,393.85c-6.49,0-13,.1-19.46,0-4.52-.11-7.51-2-8.62-7-3.11-13.94-2.22-27.91-.62-41.85.78-6.8,5.57-9.93,15.68-9.88s20.06,1.16,30.1,1.74c3.88.22,8.49-1,10.57,3.48a23.7,23.7,0,0,1,2.15,9.89q-.06,17.88-1,35.76c-.27,5.31-3.51,7.81-8.9,7.85C285.41,393.89,278.76,393.85,272.11,393.85Zm20-10.08c0-11.63.09-22.84-.12-34,0-1.28-1.68-3.62-2.62-3.63-11.93-.25-23.86-.17-36.43-.17v37.84Z" style="fill:#fff"/><path d="M272.41,402.9c6,0,12,0,17.94,0,7,0,10.58,3.59,10.76,10.47.22,8.26.81,16.51.88,24.77a143.62,143.62,0,0,1-1,14.79c-.36,3.67-5.23,7.72-9.54,7.76-13.18.11-26.37.27-39.54-.09-4.66-.12-7.14-3.16-8-8.25-2.36-13.94-3-27.83,0-41.68,1.33-6.19,3.87-7.74,10-7.77S266.26,402.9,272.41,402.9Zm-19.55,9.89v38c12.57,0,24.38.09,36.19-.15,1,0,2.89-2.2,2.91-3.41.24-10.3.26-20.61,0-30.91,0-1.22-2.18-3.39-3.39-3.42C277,412.68,265.34,412.79,252.86,412.79Z" style="fill:#fff"/><path d="M203.88,402.88h18c7.53,0,11.07,2.58,11.16,10,.16,13.41-.36,26.83-.95,40.23-.21,4.83-4,7.23-8.37,7.54-8.74.64-17.53,1.12-26.28.92a65.53,65.53,0,0,1-17.22-2.68c-2.08-.62-4.52-4.3-4.6-6.66-.44-13.85-.33-27.72-.17-41.59,0-3.61,3.9-8.23,9-7.86C190.87,403.24,197.39,402.88,203.88,402.88Zm-19,47.7c12.44,2,24.36,1.48,36.25.06.79-.1,1.94-1.9,2-2.91.14-11.49.08-23,.08-34.68H184.92Z" style="fill:#fff"/><path d="M203.9,393.85c-6.32,0-12.63,0-19,0a10.79,10.79,0,0,1-10.62-10.63c-.07-11.63-.05-23.27,0-34.91,0-8.5,5.26-12.74,12.89-13.16,10.66-.59,21.39-.33,32.08-.09,8.71.2,13.59,5.43,13.83,14.94.27,11.29.19,22.61,0,33.91-.1,6.53-3.81,9.92-10.28,9.95C216.53,393.87,210.22,393.85,203.9,393.85Zm20.66-25.14c-.44-5.92-1.37-11.85-1.17-17.74.14-4.39-2.24-5.86-5.44-6q-15-.45-30,.08c-1.28.05-3.49,2.74-3.54,4.26-.32,10.36-.28,20.72,0,31.08,0,1.19,1.9,3.29,3,3.35,10.73.56,21.48.89,32.22.93,1.28,0,3.44-1.91,3.7-3.23A124.05,124.05,0,0,0,224.56,368.71Z" style="fill:#fff"/></svg>