<svg xmlns="http://www.w3.org/2000/svg" viewBox="0 0 128.55 254.67"><g id="Layer_2" data-name="Layer 2"><g id="Layer_1-2" data-name="Layer 1"><path d="M20.63,227.62A22.8,22.8,0,0,1,23,229.06c5.59,4.29,11.35,8.31,17.92,11A27.89,27.89,0,0,0,55.33,242c7.72-1,15.41-2.28,23.12-3.33,5.14-.7,10.15-1.84,14.54-4.61,9.61-6.07,17.53-14,22.83-24,4.27-8.09,2.45-16.18-2.64-23.36-4.59-6.49-9.54-12.73-14.6-18.86-3.45-4.18-8.43-6.26-13.31-8.29-5.86-2.43-11.76-4.74-17.66-7.07A68.11,68.11,0,0,1,46.26,139.7c-9.94-9.06-20.08-17.93-29.64-27.37a57.33,57.33,0,0,1-15-24.9C-.63,79.73-.1,72.05.61,64.24,3.07,36.88,19.87,20.07,42.35,7.61A60.18,60.18,0,0,1,69.08,0c11.69-.5,21.78,3.84,31,10.79,4.44,3.36,7.59,8.38,13.24,10.24a8.41,8.41,0,0,1-6.22-2.62c-2.55-2.31-5-4.73-7.71-6.86C89.7,3.94,78.8-.13,66.36,1.16A68.08,68.08,0,0,0,37.2,11.36C22.43,20.55,10.8,32.63,4.45,49.13A34.46,34.46,0,0,0,4.45,75C8.74,86,13.6,96.57,20.3,106.24c8.46,12.22,19.05,21.78,32.77,28.2,16.74,7.84,33.07,16.58,48.27,27.25,2.75,1.93,5.75,3.52,8.45,5.51a45.49,45.49,0,0,1,18.4,29.12c.93,5,0,9.87-1.7,14.63-3.57,10.27-10.42,17.91-19.42,23.67a150.37,150.37,0,0,1-32.14,16,79,79,0,0,1-17.36,3.9,23.67,23.67,0,0,1-11.16-1.87c-10.72-4.51-19-12.09-25.29-21.85A15.06,15.06,0,0,1,20,228.1Z"/></g></g></svg>