<?xml version="1.0" encoding="utf-8"?>
<!-- Generator: Adobe Illustrator 25.0.1, SVG Export Plug-In . SVG Version: 6.00 Build 0)  -->
<svg version="1.1" id="Layer_1" xmlns="http://www.w3.org/2000/svg" xmlns:xlink="http://www.w3.org/1999/xlink" x="0px" y="0px"
	 viewBox="0 0 985.6 259.6" style="enable-background:new 0 0 985.6 259.6;" xml:space="preserve">
<path d="M555.2,107.3c4.8-0.4,8.9-1,13-0.9c9.3,0,18.6,0.4,27.9,0.7c1.2,0.1,2.4,0.5,3.5,1.1c2.3,1.1,2.6,3.3,0.3,4.5
	c-2.7,1.5-5.6,2.6-8.7,3.2c-11.5,1.7-23,3-34.5,4.5l-5,0.6c-1.3,5.1-2.5,10.3-4,15.4c-6.1,21.8-13.9,43.1-23.2,63.7
	c-6.1,13.6-11.1,27.7-16.5,41.6c-0.7,2.2-1.3,4.4-1.6,6.7c-0.6,2.6-1.7,4.9-4.4,5.9c-1.3,0.5-2.9,0.1-2.4-1.3
	c2.5-7-2.2-12.9-2.5-19.4c-0.3-3.4-0.3-6.9,0-10.3c2-14.1,7.1-27.2,12.4-40.4c8.2-20.4,16.2-40.9,24.5-62c-2.4-0.3-4.7-0.5-7.1-0.5
	c-0.6,0-1.2,1.3-1.7,2.2c-11.3,20.3-22.2,40.9-34.1,60.8c-7.3,12.2-16.1,23.6-24.6,35.1c-2.4,3.2-5.4,5.9-8.8,8
	c-5.5,3.5-10.9,2.1-14.5-3.4c-3.4-5-4.5-10.8-4.9-16.7c-0.3-4.8-0.1-9.6,0-14.4v-3.1l-0.7-0.2c-0.9,1.9-1.8,3.7-2.7,5.6
	c-3.9,8.6-7.7,17.2-13.5,24.7c-3,3.9-6.4,7.4-11.4,8.8c-8.5,2.3-17.4-2.4-20.2-10.8c-1.8-5.5-2.3-11.4-1.4-17.1
	c1.3-9.6,4.1-19,8.3-27.7c0.2-0.4,0.3-0.9,0.5-1.3l-2.1,0.9c-5.1,2.2-10.3,4.4-15.3,6.8c-0.9,0.4-1.7,1.3-2,2.2
	c-4.8,20.3-16.4,35.1-35.1,44.2c-2.7,1.2-5.5,2-8.4,2.4c-8.5,1.4-13.8-3.7-12.8-12.3c0.9-7.7,4.1-14.7,7.8-21.4
	c2.6-4.6,5.7-8.9,8.8-13.6c-0.8,0.4-1.6,0.8-2.4,1.2c-7.8,5-15.8,10-23.5,15.2c-10.7,7.2-21.9,13.2-34.6,15.8
	c-7.2,1.5-14.5,2.2-21.5-0.3c-3.7-1.5-7.2-3.5-10.5-5.8c6.7,0.9,13-1.3,19.4-2s12.8-1.9,19.2-3.1c7.6-1.5,14.6-4.5,20.1-10.3
	c1.9-2,3.3-4.3,4.2-6.9c2-6.1-0.5-10.7-6.6-12.8c-10.3-3.5-20.5-2.4-30.3,1.9s-18.1,10.5-24.4,19.2c-3.5,4.8-7,9.6-10.6,14.4
	c-0.2,0.3-0.6,0.5-1.4,0.4c0.3-0.8,0.7-1.6,1.1-2.4c3-4.2,5.8-8.5,9.1-12.5c14.2-17,25.6-36,37.3-54.8c15.2-24.7,30.6-49.3,45.9-74
	c2.4-3.8,4.5-7.8,6.4-12c-0.4,0.3-0.7,0.6-1,0.9c-23,28-46.3,55.8-68.7,84.2c-12.1,15.3-22.6,31.9-33.9,47.8
	c-7.1,10.3-15.5,19.7-24.9,28c-10.1,8.6-22,14.9-34.8,18.3c-8.6,2.4-16.7,6.2-23.9,11.4c-1.4,1-2.2,1.8-3.7-0.7
	c-2.2-3.8-1.6-7.2-0.6-10.8c3.9-13.9,8.1-27.8,11.9-41.7c7.3-26.8,17-52.7,27.1-78.5c0.3-0.8,0.6-1.6,1-2.8
	c-1.2-0.2-2.3-0.5-3.4-0.7c-8.4-1.6-16.8-3-25.1-4.7c-2-0.4-2.9,0.3-3.9,1.7c-21.9,30.4-43.8,60.8-65.8,91.1
	c-12,16.6-24.1,33.3-38.7,47.8c-5,4.8-10.3,9.2-15.9,13.3c-2.5,1.7-5.3,2.9-8.2,3.5c-6.2,1.4-10.8-1.5-14.4-6.4
	c-4.7-6.3-6.6-13.6-7.3-21.1c-2.2-24.8,1.9-49.8,12-72.5c3.7-8.7,10-16,18-20.9c4.2-2.7,9.2-3.6,14.1-2.4c1,0.3,1.9,0.9,2.4,1.8
	c-1.5-0.4-3-0.7-4.5-1c-4.7-0.5-9.5,0.8-13.3,3.7c-7.9,5.6-13.3,13.1-17,22c-6.3,15.1-9.2,30.9-10.7,47c-1,10.3-0.8,20.6,1.8,30.7
	c1.4,5.4,3.5,10.4,7.6,14.4c3.4,3.7,8.8,4.9,13.5,3c6.9-2.4,12.3-6.9,17.5-11.9c14-13.4,25.8-28.6,37.1-44.2
	c23.8-32.8,47.5-65.6,71.1-98.5c0.2-0.3,0.5-0.7,1-1.6l-8.3-1.1c-7.8-1-15.7-2.2-22.9-5.5c-2.4-1.1-4.5-2.8-7.2-4.4
	c1-0.4,1.2-0.6,1.3-0.5c6.5,5.3,14.4,7,22.4,8.3c4.3,0.7,8.6,1.1,12.9,1.8c1.7,0.4,3.4-0.3,4.3-1.8C169.4,77,185.2,55.6,201,34.3
	c8-10.8,16.2-21.5,24.4-32.3c0.6-0.7,1.3-1.4,2-2l0.6,0.4c-9,33-17.9,65.9-27,99.3c5.7-0.5,10.9-1,16.2-1.3c4-0.2,8-0.2,12-0.3
	c0.4-0.1,0.9,0,1.3,0.2c1.4,0.8,2.7,1.7,4.1,2.5c-1.2,1.2-2.2,3-3.6,3.4c-6.3,1.5-12.6,2.8-19,3.8c-3.8,0.5-7.6,0.7-11.4,0.6
	c-1.7,0-2.2,0.7-2.6,2.2c-5.1,18.6-9.9,37.4-15.7,55.9c-7.3,23.1-18.1,44.7-29.7,65.9c-1.1,2.1-2.3,4.1-3.5,6.3
	c0.5,0,0.7,0.1,0.8,0.1c8.8-5.6,18.7-8.5,28.5-11.7c16.5-5.5,29.8-15.8,40.5-29.2c9.4-11.8,18.2-24.1,26.7-36.5
	c16.7-24.3,35.1-47.3,54.1-69.9c11.3-13.4,22.4-26.9,33.6-40.3c1.1-1.3,2.3-2.5,3.5-3.7l0.9,0.6c-0.4,1.2-0.9,2.4-1.5,3.6
	c-5.3,8.9-10.7,17.8-16.2,26.6c-15,24.4-30,48.9-45.1,73.2c-6.2,10-12.9,19.8-19.8,30.2c1.2-0.9,1.9-1.4,2.6-1.9
	c10.2-7.6,21.2-12.6,34.3-11.7c3.1,0.2,6.2,0.8,9.1,1.7c8.8,2.7,11.6,10.9,6.3,18.5c-4.2,6-10.4,10.2-17.5,11.9
	c-8.1,2.1-16.5,3.4-24.7,4.9c-5.1,0.9-10.3,1.5-16.2,2.4c4.3,3,9.4,4.7,14.7,4.9c13.4,0.6,25.6-3.5,37-10.2
	c9.3-5.4,18-11.7,27.1-17.5c9.8-6.2,19.6-12.4,29.7-18.2c3.5-2,7.6-2.9,11.5-4c1.3-0.4,2.9-0.1,4.3-0.1c0.1,0.4,0.2,0.9,0.4,1.3
	l-7.4,3.8c6.8-0.6,10.5,2.2,11.4,8.9c5-2,9.6-3.7,14.1-5.6s8.6-4.6,11.3-9.2c1.6-2.5,3.6-4.7,5.9-6.5c1.5-1.3,3.3-2.4,5.2-3
	c4.9-1.7,7.5,0.7,6.3,5.7c-1.7,7-3.8,13.9-5.5,20.8c-1.9,8.4-2.6,17-2.1,25.7c0.9-0.7,1.8-1.4,2.6-2.1c5.9-5.9,11-12.6,15-19.9
	c0.8-1.8,1.9-3.4,3.2-4.9c2.8-2.7,5.3-5.3,6.8-9.1c0.9-2.3,3.4-3.4,5.6-2.6c1.2,0.5,2.2,1.5,2.6,2.7c1,2.9,1.3,6,0.9,9
	c-1.3,8.6-3.4,17.1-4.5,25.7c-0.6,4.7-0.4,9.6,0.5,14.3c1.5,7.9,6.9,9.9,13.2,4.8c3.6-2.9,6.8-6.3,9.6-9.9
	c11.6-14.4,21.9-29.8,30.9-45.9c8.2-14.5,16.1-29.2,24.1-43.8c0.4-0.8,0.8-1.6,1.3-2.7c-3.5-0.6-6.7-1.1-10-1.8
	c-8.5-2.1-16.8-4.7-25.3-6.3c-6.5-1.2-13.2-1.1-19.9-1.6c-0.4,0-0.9,0.1-1.3,0.2l-1.6,0.3c0-0.3-0.2-0.9-0.1-0.9
	c0.5-0.3,1.1-0.6,1.6-0.6c5.9,0.2,11.9,0.7,17.8,0.8c10.4,0.2,20.8,0.2,31.1,0.2c3.2,0,6.4-0.3,9.6-0.1c2.3,0.1,3.4-0.7,4.5-2.8
	c8.8-17.1,17.6-34.1,26.6-51c1.1-2,2.4-3.9,3.9-5.7c0.4-0.6,1.5-0.7,2.2-1c0.3,0.7,0.6,1.4,0.8,2.1c0.1,0.9,0,1.8-0.1,2.7
	c-2.3,13.8-4.6,27.6-7,41.4C557.2,99.4,556.2,103.1,555.2,107.3z M226.9,2.9l-1-0.4l-72.7,98.1c1.5,0.2,2.9,0.4,4.4,0.4
	c9-0.1,17.9-0.2,26.9-0.5c0.9,0,2-1.2,2.4-2.1c11.4-26.1,22.7-52.2,33.9-78.4C223.2,14.5,224.9,8.6,226.9,2.9z M346.2,175.1
	c-1.9,1.3-3.8,2.8-5.5,4.3c-8.1,8.2-13.2,18.2-16.8,29c-0.8,2.4-1.3,5-1.5,7.5c-0.5,7.4,3.9,11.2,11.3,10.2
	c8.5-1.1,15.5-5.3,21.9-10.8c10.3-9,17.6-19.9,20.8-33.3c0.1-0.9,0.2-1.8,0.2-2.7c-1.6,0.4-2.7,0.7-3.8,0.9
	c-6.6,1.4-13.1,3.2-20,2.3C348.2,181.9,346.8,180.4,346.2,175.1z M563.4,50.6c-12.6,18.5-21.5,39-31.9,59.1c1.8,0,3.5-0.2,5.3-0.5
	c1-0.2,1.8-0.8,2.3-1.6c6.4-15.4,13.9-30.3,22.4-44.6C563.4,59.2,564.1,54.8,563.4,50.6z M354.2,177.6c7.7,1.7,15,0.2,22.4-1.5
	c-0.5-3.5-1.5-6.2-4.9-7.3C365.3,166.6,356.6,170.9,354.2,177.6L354.2,177.6z M371.5,164l-0.2-0.7c-6.9,0.4-12.8,3.6-18.6,6.9
	l0.3,0.9L371.5,164z"/>
<path d="M862.9,123.5c-1.3,4-2.5,8.1-3.8,12.1c-7,21.3-17,41.6-29.8,60.1c-3.3,4.8-7.5,9-11.7,13.1c-2.1,2-4.6,3.6-7.3,4.8
	c-4.6,2.1-7.7,0.6-8.7-4.3c-0.7-3.3-0.9-6.7-0.5-10c2-13.3,4.2-26.6,6.5-39.9c0.7-4.1,1.6-8.1,2-12.4c-0.4,0.9-0.8,1.7-1.2,2.5
	c-6.4,13.6-12.6,27.4-19.3,40.9c-2.4,4.9-6,9.2-9.3,13.5c-1.8,2.3-4.4,4.3-7.6,3.1s-3.5-4.4-3.7-7.4c-0.4-6.9,1.1-13.6,3-20.2
	c5.2-17.5,12.6-33.9,23.5-48.7c0.3-0.4,0.3-0.8,0.1-1.2c-2.5,1.9-5.1,3.7-7.5,5.6c-15.1,12-26.5,27-36.5,43.3
	c-5.2,8.6-10.6,17-16.3,25.2c-2.4,3.4-5.4,6.4-8.8,8.8c-6.9,4.8-13.1,1.8-14.1-6.4c-0.2-2.4-1.3-4.7-3.1-6.4
	c-5.1-4.9-7-11.4-6.8-18.2c0.3-8.9,1.1-17.9,2.2-26.8c0.9-7.2,2.7-14.3,4.1-21.8c-4-0.3-8.2-0.6-12.3-0.9
	c-10.4-0.8-20.9-1.6-31.3-2.5c-1.5-0.1-2.6-0.4-3.3,1.6c-6.5,19.1-13.9,38-19.7,57.3c-5.9,19.8-14.8,38.2-22.7,57.1
	c-0.5,1-1.2,2-1.9,2.9l-0.8-0.4c0.5-1.4,1-2.8,1.5-4.3c4.2-12.8,8.3-25.7,12.8-38.4c1.9-5.3,4.1-10.4,6.7-15.4
	c9.9-19.3,16.2-39.9,23.6-60.5c-3.7-0.6-7.2-1-10.6-1.7c-2.1-0.5-4.1-1.2-6-2c-0.5-0.2-0.7-1-1-1.7c0.2-0.2,0.4-0.4,0.7-0.6
	c0.4,0.3,0.7,0.8,1.1,1.2c0.5,0.5,1.1,0.8,1.8,1c4.3,0.8,8.5,1.5,12.8,2.4c1.9,0.4,2-1.1,2.3-2.2c4.3-13.6,8.7-27.2,12.9-40.9
	c6.8-22.3,13.5-44.6,20.3-67c0.4-1.5,0.7-3,1.1-5l-3.6,0.7l-0.2-0.8c1.2-0.3,2.5-1.1,3.5-0.8c0.6,0.2,1.3,2.1,1.1,3
	c-2.1,7.5-4.3,15-6.6,22.5c-9.2,29.7-18.4,59.4-27.6,89.1c-0.1,0.4-0.2,0.8-0.4,1.6c3.8,0.3,7.3,0.7,10.9,1
	c10.4,0.8,20.7,1.5,31.1,2.3c4,0.3,3.9,0.3,5.4-3.6c5.5-13.7,10.8-27.4,16.8-40.9c6.4-14.7,13.4-29.2,22-42.9
	c5.1-8.1,11.1-15.2,18.9-20.7c3.1-2.1,4-4.7,2.9-8.2c1.8,0.6,1.8,0.6,1.7,4.8c1.7-1.4,3.2-2.6,4.6-3.9c2-2,3.9-1.9,5.9,0.4
	c-0.1,0.1-0.3,0.3-0.4,0.3c-4.2-1.2-4.1-1.2-6.3,2.6c-5.2,9-10.8,17.7-14,27.7c-2.9,8.8-5.4,17.8-8.4,26.7
	c-6,17.5-12.2,35-18.6,52.4c-5.8,15.9-10.4,32.3-13.9,48.9c-0.6,2.9-1.3,5.7-1.8,8.6c-0.9,4.1,0.3,8.5,3.2,11.6
	c1.9,2,3.3,4.3,4.2,6.9c1,3.3-0.5,4.7-3.9,3.9s-6.6-1.7-10.8-2.9c1,2.9,1.5,5.7,2.9,8s3.8,2.7,6.4,2.2c4.1-1,7.7-3.5,10.1-7
	c6.2-8.9,12.3-17.8,18-27c10.2-16.4,21.4-31.9,36.5-44.1c2.3-1.8,4.7-3.6,7-5.4c3.4-2.7,6.7-5.6,10.3-8c4.4-2.9,9.1-5.5,13.8-7.8
	c1.7-0.8,4-0.5,6-0.4c0.6,0,1.2,0.8,1.8,1.3c-0.5,0.5-0.9,1.3-1.5,1.6c-2.2,0.9-4.5,1.7-6.7,2.5c-0.3,0.1-0.7,0.2-1,0.3
	c-11.6,3-19.7,10-25.5,20.4c-9.3,16.3-16.8,33.1-19.9,51.6c-0.5,3.4-0.6,6.9-0.1,10.3c0.6,4.7,4,6,7.6,2.8c2.7-2.3,5-5,6.9-8.1
	c11.2-19,20.2-39.1,27.7-59.8c1.8-4.8,2.7-9.9,4.1-14.9c0.3-0.9,0.7-1.8,1.1-2.7l0.8,0.3c-0.1,0.7-0.2,1.4-0.4,2.1
	c-6.5,22.1-10.5,44.7-14.2,67.4c-0.8,5.3-1.2,10.6-1.3,15.9c-0.1,3,0,6.5,3.1,8s5.9-0.4,8.4-2.1c7-4.7,12.2-11.1,16.7-18.1
	c13.6-20.8,24-43.4,30.9-67.3c0.7-2.5,1.6-4.9,2.4-7.4l1.1,0.2c0.1,1.1,0.1,2.3,0,3.4c-2.1,13.5-4.3,27-6.3,40.5
	c-1.5,10.4-3.4,20.8-2.2,31.2c0.6,4.3,1.8,8.5,3.6,12.4c2.1,4.7,5.8,6.1,10.3,3.6c4.2-2.4,7.8-5.7,11.5-8.8c1.5-1.4,2.8-3,4-4.6
	c3-3.5,4.7-7.1,4.3-12.2c-0.2-4.7,0.6-9.4,2.5-13.7c5.2-12,11.1-23.6,16.8-35.4c2-4.2,3.8-8.4,5.9-12.5c0.5-1,1.6-2.2,2.5-2.2
	s1.6,1.4,2.4,2.3l-0.5,0.5l-2-1.2c-1.4,5.9-2.9,11.7-4.2,17.6c-2.2,9.9-4.6,19.9-6.5,29.9c-2,10.6-3.6,21.4-3,32.3
	c0,1.8,0.3,3.5,0.8,5.2c0.8,2.5,2.6,3.1,4.8,1.6c1.7-1,3.1-2.3,4.4-3.8c14.8-18.7,28.5-38.2,36.3-61c1.9-6.1,3.5-12.3,4.6-18.6
	c0.5-2.5-0.1-5.3-0.1-7.9c0-2.2,0-4.4,0.1-6.6l1.2-0.1c0.3,0.8,0.5,1.7,0.6,2.5c-0.8,15.2,6.4,27.8,12.8,40.6
	c3.4,6.8,7.6,13.2,11.3,19.9c4.3,7.9,6.5,16.3,3.8,25.4c-2.9,9.5-8.9,16.7-17.2,21.9c-6.4,4-13.3,2.5-16.4-2.9c-1.4-2.4-1.1-3.7,1-5
	c1.9,3.6,5.7,5.4,10.2,5c11-1.1,19.6-9.5,21.8-21c1.3-6.3,0.5-12.9-2.3-18.7c-2.8-5.7-5.9-11.3-9.1-16.8
	c-6.4-10.7-11.6-22-15.4-33.9c-0.2-0.6-0.4-1.1-0.9-2.4c-0.5,2.6-0.9,4.5-1.3,6.3c-3.5,16.4-10.6,31.2-19.7,45.1
	c-6.1,9.3-12.6,18.2-19.1,27.2c-1.5,2-3.3,3.7-5.3,5.2c-2.5,2-4.2,1.8-6.5-0.2c-0.8,1-1.7,2.9-2.4,2.8c-1.7-0.2-3.4-0.9-4.7-2.1
	c-3.8-3.4-4.6-8.3-5.8-12.9c-0.4-1.4-0.6-2.7-1-4.7c-0.8,1.1-1.3,1.9-2,2.6c-4,4.4-8,8.8-12.1,13c-1.5,1.3-3.1,2.4-4.9,3.1
	c-5.7,2.7-9.7,1.4-12.7-4.1c-2.7-4.9-4-10.5-3.7-16.2c0.7-10.2,1.6-20.5,2.9-30.7c1.5-11.1,3.5-22.1,5.4-33.1
	c0.1-0.8,0.2-1.6,0.2-2.4L862.9,123.5z M804.1,122.7l19-7.2c-0.1-0.3-0.2-0.6-0.4-1C815.4,114.2,809.6,118.1,804.1,122.7z"/>
</svg>
