<svg xmlns="http://www.w3.org/2000/svg" viewBox="0 0 1676.55 654.3"><path d="M123.81,77.62c2.92,1.86,6.09,3.42,8.71,5.64,7,5.92,13.59,12.3,20.6,18.19a209.46,209.46,0,0,0,68.16,37.93,410.68,410.68,0,0,1,69,30.23c1.13.63,2.35,1.11,4.13,1.94C300.7,158,307.09,144.87,313,131.5c10.43-23.77,19.39-48.25,33-70.49,12.33-20.1,25.9-39.24,44.51-54.18A85.32,85.32,0,0,1,400,.42c1-.57,2.44-.3,3.68-.42.07,1.25.62,2.75.12,3.72-3.78,7.39-7,15.22-11.81,21.92C367.44,60,345.31,95.82,327,133.92c-6.69,13.94-12.18,28.46-18.2,42.73a22.14,22.14,0,0,0-.76,2.75c33.47,22.51,66.09,45.79,103,62.37,29.49,13.25,56.3,31.08,78.61,54.89,10.15,10.83,18.35,23,21.17,37.9,3.43,18.13-1.12,34.69-10.63,50.12-7.24,11.75-16.66,21.62-27.15,30.49-7.76,6.56-15.8,12.79-23.47,19.45-15.13,13.13-32.65,21-52.25,24.57-.76.14-1.52.3-2.72.54,8.22,5.87,16.2,11.24,23.83,17.06,18.7,14.23,33.84,31.32,43.8,53,9,19.56,7.1,36.73-8.45,52-2,1.94-3.77,4.06-6.61,7.14a140.63,140.63,0,0,0,34.38-15.29C505,559.3,523,539.27,540.15,518.32c7.41-9,12.25-18.36,13.81-30.47C556.4,469,565.71,452.23,575.29,436c5.91-10,12.58-19.63,18.62-29.6,5.26-8.68,10.1-17.61,15.15-26.41,1.1-1.91,2.34-3.74,3.52-5.6l1.62.41c0,3.62.51,7.33-.08,10.85-5.68,33.51-20.24,63.11-40.3,90.23-5.45,7.36-11,14.63-16.23,22.17a11.62,11.62,0,0,0-1.85,7.2c1.84,17.3,10.94,30.82,23.18,42.46,4.33,4.12,9.2,7.68,13.89,11.41a34.52,34.52,0,0,0,19.33,7.29c7.13.57,14.24,1.52,21.33,2.43,9.89,1.28,17.93-2.31,24.88-9,9.47-9.17,16.35-20.2,22.1-31.88,17.41-35.37,32.51-71.62,39-110.8,3.11-18.73,5.59-37.56,8.2-56.36.26-1.87-.52-3.87-.82-5.81-.73-4.72-1.92-9.43-2.07-14.17a10.39,10.39,0,0,1,7-10.57c5-1.92,10-1.11,13.38,2.76a99.27,99.27,0,0,1,11.54,16.13c5.21,9.08,9.85,18.51,14.55,27.88,10.31,20.55,26.52,36.61,40.8,54.15,8.19,10.05,16.9,19.8,21.81,32.13,5.76,14.45,6.12,28.8-.25,43.15-.37.86-.66,1.75-1.13,3,25.92-13.7,47.27-30.74,54.44-60.61,4.28-17.81,8.56-35.64,13.58-53.25,5.61-19.69,12.07-39.14,18.16-58.69,1.83-5.88,3.65-11.75,5.52-17.61a5.4,5.4,0,0,1,2.34-3.11,12.73,12.73,0,0,1,.23,3.11c-3.59,21.29-1.52,42.57.67,63.73,2.18,21,5.34,41.93,8.52,62.81a97.21,97.21,0,0,0,13.34,36.89c7,11.26,16.56,19.13,29.73,21.85A37.27,37.27,0,0,0,1018.82,486a61.25,61.25,0,0,0,7.95-29.63c.2-22.79-.3-45.59-.82-68.39-.56-24.64-1.47-49.28-2.2-73.93a13.27,13.27,0,0,1,.64-2.4,25.24,25.24,0,0,1,1.65,3.29c6.18,21.07,11.43,42.45,18.74,63.11,6.42,18.14,14.57,35.75,23.1,53,3.5,7.11,9.37,13.43,15.27,18.91,16.91,15.68,40.84,9.63,49-11.92,5.38-14.12,4.22-28.44,1.36-42.83-3.55-17.78-7.18-35.54-10.55-53.35-4.62-24.43,4.94-43.53,22.59-59.66,3.47-3.17,6.1-7.28,9.06-11,1-1.3,1.69-2.95,2.86-4.09,16.18-15.74,33.74-29.29,56.49-34.1,9.85-2.08,18.71,0,25.15,8.16,1.73,2.19,2.85,6,2.22,8.52-.42,1.7-4.36,3.3-6.87,3.57-11.91,1.26-23.88,2-35.81,3-13,1.14-24.42,6.5-34.74,14-3,2.14-5.3,6.3-6.12,10-2.77,12.3-4.91,24.75-6.94,37.21-2.07,12.73-1.13,25.37,3.91,37.31,2.89,6.86,6.8,13.33,10.54,19.81,5.16,8.94,10.18,18,16,26.49a262.65,262.65,0,0,0,18.17,23c8.6,9.92,18,19.18,26.41,29.25,5,6,10.36,11.14,17.71,14.13,7.09,2.89,14,6.21,21,9.24,12.85,5.53,26.4,5.55,39.82,3.8,19.12-2.5,38.29-5.21,57.14-9.24,23.34-5,41.31-19.12,57.42-36.24,6.46-6.87,9-13.81,9.32-23.34.76-22.6,3.12-45.15,5.08-67.7,2-22.76,3.24-45.51.88-68.29-3.24-31.31-7.08-62.55-9.86-93.9-2.23-25.19-4.14-50.48.49-75.69a77.29,77.29,0,0,1,15.8-35.17c8.3-10.31,18.61-10.19,25,1.4a157.4,157.4,0,0,1,12.92,31.78c7.82,26.85,14.22,54.09,16.94,82,2.27,23.25,2.76,46.59.39,69.85-2.28,22.32-4.55,44.69-8.36,66.78-2.13,12.32-6.71,24.38-11.49,36-3,7.36-2,14.75-3,22.07-.73,4.88-.14,10-.14,16.51,1.48-2.54,2.29-4,3.13-5.36,13.79-23,30.56-42.93,56.26-53.33,12.56-5.08,25.58-8.88,39.2-9.2,27-.63,42.48,12.73,50.5,38.52s9.86,52.05,8.31,78.49c-1,16.15-4.59,32.26-8.29,48.09-5.9,25.23-5.29,50.6-3.14,76,1,11.46,7.06,21,15.9,28.6a72,72,0,0,1,9.62,9.42c5.48,6.93,12.07,8.23,20,5.22,3.27-1.25,6.59-2.38,9.89-3.57.73.92,1.46,1.83,2.18,2.75a29.35,29.35,0,0,0-5,2.25c-15.64,11-28.74,10.5-43-4-12.16-12.35-22-27.09-31.93-41.46-6.88-10-5.57-21.9-4.2-33.47,2.59-22,5.15-44,7.28-66,.51-5.38-.54-10.95-1.2-16.39a276.49,276.49,0,0,1-.83-60.32c1.7-17.53-1.89-34.52-6.58-51.23-2-7.16-8.39-10.69-17.73-9.62-20.33,2.33-39.23,8.63-55.64,21.49-19.79,15.52-29.24,37-36,60.27-4.66,16.12-5.61,32.74-7.87,49.2a246.56,246.56,0,0,1-5.61,28.9c-2.53,9.67-9.14,15.87-19.34,17.12-9.08,1.11-16.31-2.58-21.34-10.18a21.68,21.68,0,0,1-2-20.65c4.45-11,3.54-22.2,2.89-33.49-.19-3.41-.45-6.82-.73-11.14-4.5,4.93-8.38,9.17-12.25,13.43-16,17.62-35.53,29.87-58.43,35.82-26.71,6.95-53.58,13.49-80.68,18.66-27.93,5.32-50.2-6.22-67.59-27.64-6.48-8-11.85-16.89-17.62-25.44-10.41-15.45-20.63-31-31.14-46.41-9.64-14.09-17.17-29-18.33-46.32a55.19,55.19,0,0,1,.55-10.42q3.14-26,6.48-52c.54-4.28,1.24-8.54,2.06-14.2-3.26,3.07-5.74,5.35-8.16,7.69-16.29,15.72-22.14,34.74-17.73,56.89,3.64,18.3,7.53,36.54,11,54.85,2.39,12.4,2.71,24.81-1.3,37.05-8.24,25.17-34.43,32.11-54,14.25a86.52,86.52,0,0,1-22.54-33.23c-10.17-26.52-19.4-53.4-29-80.14-.54-1.5-1-3-1.83-5.77,0,12.07-.23,22.77,0,33.46.74,28.81,2.29,57.61,2.24,86.41a95.81,95.81,0,0,1-5.85,31.64c-7.69,21.41-29.57,32.26-51.72,27.09-11.78-2.75-19.87-10.54-26.16-20.31-7.73-12-11.29-25.46-12.91-39.55-2.46-21.49-5.55-42.92-7.56-64.45-1.47-15.73-1.63-31.59-2.35-47.39A12.24,12.24,0,0,0,922,332.6c-3.4,9.78-7.37,19.41-10.1,29.37-7.31,26.62-14,53.41-21.14,80.06a205.42,205.42,0,0,1-7.29,21.74c-5.33,13.58-14.54,24.15-26.36,32.55-3.26,2.31-6.5,4.66-9.87,6.81a219.07,219.07,0,0,0-28.22,22c-10.31,9.25-22.51,16.47-34.26,24-5.79,3.71-11.23,1.78-14-3.61-3.3-6.33-1.23-14.91,5.27-17.65a43.65,43.65,0,0,1,15.92-3.29c5.65-.08,9.32-2.06,12.55-6.44,5-6.83,9.7-13.78,8.66-22.73A34.42,34.42,0,0,0,810,484.09c-11.27-22.3-22.2-44.81-34.51-66.52-6.17-10.89-14.82-20.42-22.74-30.24-5.07-6.3-10.85-12-16.92-18.65-.45,2.24-.75,3.47-.95,4.71-5.91,37-11.17,74.14-21.17,110.34-6.61,23.93-16.08,46.63-31.41,66.45a119,119,0,0,1-31,28c-16.19,10.18-31.78,8.12-45.39-5.13a149.6,149.6,0,0,0-15.27-12.83c-15.26-11.29-28.37-24.27-34.93-42.62-1.33-3.71-2.22-7.58-3.49-12-1.21,1.43-2.21,2.63-3.24,3.81-13.06,14.88-25.55,30.32-39.34,44.5-16.74,17.22-37.33,28.73-60.06,36.52a33.25,33.25,0,0,0-10.4,6.38c-14.79,12.66-28.77,26.37-44.21,38.17-17,13-36.66,21-58.53,19.08-12.63-1.11-25.16-4.41-37.47-7.74-16.53-4.47-32.94-9.51-49.1-15.16-5.6-2-10.44-6.32-15.37-9.93-1.64-1.2-2.47-3.5-3.67-5.29l1.07-1.24c1.24.49,2.49.94,3.71,1.47,22,9.61,43.62,20,66,28.53,11.34,4.33,23.84,6.4,36,7.58,15.26,1.49,29.57-3.48,43.1-10.51,16-8.32,29.24-20.28,42.32-32.42,5-4.61,9.81-9.36,15.62-14.92-10.18,1.21-18.68,5.73-28.95,3.69,9.43-2,17.84-3.21,25.95-5.54,4.08-1.18,7.94-3.89,11.28-6.65S453,579.33,456,576c10.28-11.64,12.12-24.57,6.44-39a116.46,116.46,0,0,0-36.14-48.86c-10.11-8.11-21.26-14.9-31.7-22.61-5.85-4.32-12.18-4.19-18.94-4.11-22.46.27-44.95.7-67.39-.11A247.4,247.4,0,0,1,247.29,451c-8-2.36-15.61-6.44-22.92-10.57-3.28-1.85-5.9-5.44-8-8.78-5.88-9.59-1.34-20,9.48-23.17,10.46-3.07,20.43-1.06,30.39,2.12,15.69,5,31.13,11.23,47.16,14.62,23.08,4.88,46.56,8,70,11.28a178.92,178.92,0,0,0,46.3.18c45.75-5.49,81.27-48.06,86.53-76.33,3.4-18.23-.87-34.27-12.17-48.75-13.42-17.19-31.11-29-49.61-39.78q-67.54-39.41-135.15-78.72c-1.69-1-3.45-1.84-5.75-3.06-4,10.34-8,20.16-11.57,30.13-13.23,36.56-32.49,70-52.71,103-12.95,21.15-25,42.88-37.25,64.44-24,42.12-50.73,82.3-83.29,118.3C91.13,536.45,62.93,566.44,35,596.64c-6.45,7-13,13.85-19.52,20.76a48.35,48.35,0,0,1-4.29,4.18C5.87,625.91,2,624.89.88,618.2a64.69,64.69,0,0,1-.64-16.33c3-36,8.6-71.44,20.46-105.69,6.79-19.6,15.84-37.85,32.31-51.36,10-8.21,20.9-14.92,33.82-17.53,3.31-.66,6.77-.6,10.16-.86l.15,1.47a74.43,74.43,0,0,0-8.74,1c-25.29,5.87-43.27,21.25-55.54,43.61C22.69,491,16.36,511.11,12.6,531.74c-4.48,24.51-7.47,49.3-10.89,74a35.87,35.87,0,0,0,.49,10.93c.37,2.06,1.67,4.71,3.32,5.52,1.14.56,3.84-1.27,5.42-2.55,2.18-1.77,3.91-4.08,5.91-6.08C51,579.45,80.17,541,112.17,505.11A740.46,740.46,0,0,0,218,351.06c10-19.44,17.06-40.48,24.59-61.1a965.05,965.05,0,0,1,44.36-103.2c.6-1.18,1.07-2.43,1.92-4.4-7.1-3.28-14-6.86-21.16-9.71-23.86-9.47-45.38-23.07-66.68-37.1-5.15-3.39-10.23-6.91-15.59-9.92A254.48,254.48,0,0,1,136.27,89c-2.09-2-3.57-5.57-8.17-4.11-1.32.42-3.92-3.2-5.93-5Zm1351,272.6,1.07.17c1.05-2.72,2.18-5.41,3.13-8.16,11.5-33.44,13.86-68.35,15.81-103.22,2.77-49.48-6.41-97.42-21-144.42a97.42,97.42,0,0,0-11-23.32c-5.48-8.55-15.28-8-20.16.91a33.09,33.09,0,0,0-3.86,15.63c.53,38.55,10.23,75.69,18,113.13,4.39,21.16,9,42.29,12.88,63.54,4.89,26.63,6,53.56,5.12,80.59C1474.71,346.78,1474.76,348.5,1474.76,350.22ZM555,497c24.65-19.61,62.55-98.64,57.46-118.52-6.23,10.36-12.33,21.15-19.06,31.54-13,20.08-26,40.17-33.91,63C556.85,480.6,554.69,488.33,555,497Zm609.37-231.58,1.07,1.38a10.73,10.73,0,0,0,1.75-.72c14.33-9.18,30.19-12.54,47-12.56a117.15,117.15,0,0,0,17.86-1.24c2.93-.46,5.6-2.59,8.38-4a99.84,99.84,0,0,0-5.39-9.1,6.62,6.62,0,0,0-4.29-2.3c-5.6-.52-11.35-1.53-16.82-.74-13.65,2-25.56,8.42-36.37,16.71C1172.78,256.52,1168.75,261.18,1164.37,265.39ZM794.2,529.51l-.66-1.87c-4.57,1.12-9.25,1.91-13.67,3.45a6.89,6.89,0,0,0-4.63,7.95c.44,2.94,2,4.86,5,2.33C785,537.5,789.57,533.47,794.2,529.51Z"/></svg>