<svg xmlns="http://www.w3.org/2000/svg" viewBox="0 0 1120.48 465.83"><path d="M603.24,222.75c0,.19.12.45,0,.58-7.51,10.91-9,23.76-11.58,36.23-2,9.64-3.29,19.41-4.89,29.12-.06.4,0,.82-.09,1.84,6.3-3.46,13.35-3.84,17.87-10.67a116.92,116.92,0,0,1,49.67-42.69,43.75,43.75,0,0,1,7-2.65c4.63-1.21,7.87.69,8.26,5.49a67,67,0,0,1-.4,15c-2.1,14.36-8.14,27.44-14.24,40.42-10.39,22.06-21.43,43.82-31.36,66.08-5.82,13-10,26.83-14.92,40.29a5.77,5.77,0,0,0-.26,3.09c3.52-6.52,6.89-13.13,10.6-19.54,15-26,30.48-51.87,45.24-78.07,7.13-12.67,13.16-26,19.5-39.07.62-1.29-.09-3.23-.19-5.05,2.49.43,3.33-1.73,4.2-4,3.17-8.32,6.6-16.55,9.58-24.94,4-11.31,11.59-18.92,22.73-23.23,8.06-3.13,16.2-5.72,25-5.43q16,.53,15.9,16.44c0,1.15,0,2.29,0,3.87a19.66,19.66,0,0,0,2-1.47c10.74-10.53,23.08-18.49,37.5-22.86,6.26-1.9,11.64-5.14,16.88-8.81,2.41-1.68,4.83-2.65,7.88-1,1.53.83,1.51,1.5,1.28,2.89-3,18.18-6.11,36.34-8.78,54.57-.58,3.92,0,8.17.87,12.1s3.35,4.69,6.21,2c3.94-3.7,7.89-7.63,10.81-12.13,4.72-7.27,8.62-15.08,12.83-22.68,4.77-8.61,9-17.56,14.41-25.74A72.86,72.86,0,0,1,876.33,188c2.83-2.43,7-3.78,10.73-4.57,6-1.27,9.76,1,12.25,6.71a69.79,69.79,0,0,1,2.47,7.9c4.87-2.67,9.62-5.48,14.55-7.92,5.75-2.85,10.78-1.71,14.93,3.22A23.16,23.16,0,0,1,936,215.5c-2.26,8.06-5.54,15.83-7.76,23.89-1.51,5.46-2,11.21-2.89,16.83l1.29.64a69.11,69.11,0,0,0,5.36-4.42c11.35-11.31,20.59-24.3,29.66-37.4a641.65,641.65,0,0,0,48.19-83.14c.27-.55.46-1.14.93-2.3h-3.94a80.89,80.89,0,0,1-24.69-4.12c-5.71-1.77-10.33-5.1-12.91-10.7a18,18,0,0,1-.86-3.94l.82-.33c.41.35,1.19.74,1.16,1-.42,4.73,2.8,7.3,6,9.53A27.1,27.1,0,0,0,998,125.27c4.63-.94,9.22-2,13.85-2.91a6.19,6.19,0,0,0,4.82-3.91Q1029.23,90.7,1042,63a51.5,51.5,0,0,1,2.63-4.52l1.39.48a41.8,41.8,0,0,1-1.15,5.38c-5.45,15.49-11,31-16.47,46.43-.76,2.15-1.34,4.36-2.17,7.1l6.58-2.08c6.38-2,12.75-4.13,19.16-6.09a8,8,0,0,1,2.87.24,9.15,9.15,0,0,1-1,2.77c-4.47,5.57-10.49,8.94-17,11.47a68.32,68.32,0,0,1-10.83,3.21c-2.39.49-3.42,1.58-4.15,3.85-6.76,21-13.15,42.19-20.64,62.95-7.62,21.13-13.23,42.81-19.52,64.31-2.65,9,2.52,10.31,8.62,10.7,3,.19,5-1.35,7.14-3.74,3.92-4.28,8.75-7.79,13.42-11.32a94.88,94.88,0,0,1,11.07-7.19c18.77-10.43,33.77-25,46.65-42,2.28-3,4.57-6,6.77-9.07,3.66-5.09,6.89-10.16,8.13-16.69,1.81-9.54,6.51-18.1,12.29-25.95a23,23,0,0,1,2.69-3.06c2.15-2,4.56-3.51,7.65-2.24a6.57,6.57,0,0,1,4.2,6.79,126.55,126.55,0,0,1-1.92,13.94c-.79,4.43-2.11,8.77-2.77,13.21a30.65,30.65,0,0,0,4.17,20.5,97.85,97.85,0,0,1,8.22,16.92c5.43,15.64,1.59,34.67-12.88,43.59-9.15,5.64-18.9,7.9-29.43,5-1.9-.53-3.48-2.22-5.21-3.38a30.74,30.74,0,0,1,5.13-2.43c14.17-3.8,22.37-14,20.9-27.89-.54-5.09-3.21-10.11-5.61-14.81-3.4-6.63-7.12-13.09-8.42-20.55-.5-2.87-.71-5.79-1.12-9.28-.9,1.21-1.61,2.14-2.28,3.09-10.06,14.38-20.64,28.38-34.21,39.64-7.14,5.92-15.22,10.72-22.86,16-1.28.89-2.63,1.3-2.3,3.74.26,1.85-1.22,4.17-2.42,6-9.6,14.34-18.74,18.11-31.95,16.54-8.36-1-12.87-6.47-13.2-14.91-.53-13.33,3.93-25.35,9.52-37,7.72-16.17,15.64-32.24,23.36-48.4,6.94-14.5,11.4-29.89,16.32-45.6a72.63,72.63,0,0,0-8,.73c-.82.17-1.56,1.51-2.06,2.46C1002.94,147.73,995,163.9,986,179.49c-14.83,25.71-31,50.55-50.05,73.45a54.67,54.67,0,0,1-7.09,7.1c-4.41,3.66-7.71,2.74-10-2.58-3.56-8.09-4-16.62-3.36-25.28.55-7.72.66-15.42-.95-23.56-.79.93-1.26,1.43-1.68,2-4.3,5.55-8.69,11-12.81,16.7a23.36,23.36,0,0,0-3.37,6.89c-2.55,8.64-4.75,17.38-7.25,26a15.82,15.82,0,0,1-8.86,10.47c-5.23,2.39-10.4,2.61-15.14-1.08s-5.76-8.69-4.69-14.14a33.91,33.91,0,0,1,3.09-8.18c6.81-13.82,13.92-27.49,20.5-41.4,2.07-4.38,3.11-9.31,4.1-14.09.39-1.91,0-5.36-1.14-5.89-1.66-.79-4.64-.23-6.37.85-3.42,2.15-7,4.58-9.41,7.72a156.6,156.6,0,0,0-13.35,19.69c-5,9-8.72,18.62-13.76,27.54a149.55,149.55,0,0,1-15,22.36c-7.19,8.66-14.79,7-18.25-3.83-1.82-5.68-2-11.9-2.84-17.89a30.78,30.78,0,0,1,0-3.77c-3.84,7.24-7.18,14.08-11.05,20.61a80.51,80.51,0,0,1-8.6,11.57c-3,3.48-7,5.62-11.77,4.08-4.6-1.48-7-5.13-8-9.73-2.43-11.24.41-21.71,5.41-31.57,5.48-10.8,13.48-19.66,23-27.35-.68.23-1.39.4-2,.69-9.53,4.33-18.25,9.87-25.52,17.49-6.28,6.6-12.58,13.15-17.33,21.06a44.24,44.24,0,0,1-17.87,16.37c-1.75.92-3.28,2.23-4.94,3.31-4,2.62-7.79,5.87-12.16,7.68-11.41,4.74-22.11,3.49-31.42-5.71a7.13,7.13,0,0,0-.78,1.16c-10.63,25.17-24.95,48.32-38.77,71.78-12.23,20.74-23.57,42-35.57,62.88-6.81,11.84-9.52,25-13,37.88-1.85,7-3.47,14-5.28,21a30.24,30.24,0,0,1-1.72,4l-1.22-.13c-.23-1.2-.82-2.47-.62-3.6,1.21-6.88,1.83-14,4.06-20.54C601,418.37,608.6,395,617.9,372.4c9.48-23,20.78-45.31,31.37-67.88,6.63-14.13,13.68-28.09,17.44-43.36,1.62-6.62,2.93-13.33,1.82-20.21-.83-5.2-3.17-6.77-8.17-4.85a107.6,107.6,0,0,0-43.65,30.38c-5.11,5.91-9.78,12.2-14.64,18.31.14.24.29.48.44.72,1.5-.1,3-.24,4.51-.29.67,0,1.87,0,1.93.25a3.24,3.24,0,0,1-.23,2.31,37,37,0,0,1-3.82,4.57c-4.6,4.6-10.34,7.1-16.59,8.38-5,1-9.23-1.17-10-6.24a81.86,81.86,0,0,1-.23-18.05c1.07-13.77,6.2-26.19,13.66-37.71a1.09,1.09,0,0,0,0-1.08c-.69.78-1.4,1.55-2.08,2.35-13,15.12-25.64,30.47-39,45.26-5,5.54-11.17,10.17-17.34,14.43a26,26,0,0,1-11.89,4.3c-11.48,1.06-19.16-7.34-17-18.74a70.25,70.25,0,0,1,6.36-19.57c4.43-8.37,10.29-16,15.54-23.92a2.83,2.83,0,0,0,.62-1.9c-1,.58-2.1,1.13-3.12,1.76-16.74,10.26-30.36,24-43.15,38.66-6.61,7.59-13.16,15.23-19.89,22.7a27,27,0,0,1-6.1,4.89c-4.29,2.62-8.32,1.53-11.09-2.7-3.07-4.71-3.18-10-2.19-15.18,2.47-13,7.43-25.3,12.69-37.41,3.3-7.59,6.95-15,10.44-22.53a8.61,8.61,0,0,0,1-4c-.81.86-1.64,1.71-2.42,2.59-20.69,23.28-41.62,46.32-64.6,67.41-1.09,1-2.2,1.94-3.31,2.91-3.22,2.79-6.34,5.22-8.22,9.64-2.58,6.07-7.81,10.62-13.77,13.81-9.67,5.16-20.12,1.53-24.73-8.45-3.1-6.73-3.36-13.74-1.93-20.92a102.4,102.4,0,0,1,11.6-31.44c10.63-18.41,22-36.42,32.94-54.64,8.11-13.47,16.09-27,24.11-40.53.26-.43.44-.92.69-1.44-1.92-1.28-2.92-.21-3.95,1.1-10,12.91-19.88,26-30.18,38.66-7.58,9.34-15.55,18.38-23.75,27.17a26.19,26.19,0,0,1-9.95,6.37c-3.53,1.28-7.62,1-12.34,1.57a42.37,42.37,0,0,0-2.09,6.58,110.5,110.5,0,0,1-11.43,32.13c-4.46,8.54-8.44,17.33-12.55,26-1,2.17-2.26,4.05-4.93,3.23-2.88-.89-3-3.5-2.24-5.74,1.53-4.66,3.45-9.19,5.19-13.78,6-15.83,15.46-30.23,19.69-46.82,0-.1.06-.2.09-.3,1.47-5.3.4-7.58-4.7-9.33-.87-.29-2.21.28-3.17.78-18.55,9.49-33.61,22.74-43.77,41.15-5,9.08-9.71,18.33-14.78,27.38s-10.83,17.27-19.11,23.5a29.7,29.7,0,0,1-9,4.95c-8.62,2.58-16.64-2-19-10.71-2.48-9-1.27-17.93,1.7-26.58,2.07-6,4.71-11.82,6.64-18l-2.11,3.41c-5.52,8.9-10.68,18-16.67,26.63-4.23,6.06-9.37,11.52-14.49,16.88-2.67,2.8-6.29,5.1-10.46,3.36-4.33-1.81-5.19-6-5.57-10.2-.83-9.2,1.2-17.91,4.78-26.32a183.9,183.9,0,0,1,23.78-40.93,8.56,8.56,0,0,0,1.74-3.21c-1.67.95-3.38,1.83-5,2.85a118.43,118.43,0,0,0-34.61,33.39q-10.38,15-21.42,29.49A54.44,54.44,0,0,1,133,318.8c-1.58,1.26-4,1.44-6.54,2.26a10.8,10.8,0,0,1,.32-1.51c5.24-.43,8.89-3.65,11.86-7.45,6.83-8.75,13.23-17.83,20-26.6,9.58-12.32,19.17-24.63,29.14-36.63,6.72-8.09,15.38-13.78,25-18a150,150,0,0,0,14.68-7.74c7.89-4.59,16.16-7.48,25.42-6.37a9.35,9.35,0,0,1,4.51,1.9c2,1.63,1.62,4-.85,4.9a64.06,64.06,0,0,1-7.91,2c-10.57,2.33-21,5.23-30.69,10.06a20.62,20.62,0,0,0-5.94,4c-16.78,17.86-29.91,37.81-34.56,62.36a56.9,56.9,0,0,0-1,13.72c.4,6.89,4.52,8.92,9.84,4.66a66.16,66.16,0,0,0,12.46-12.73A458.73,458.73,0,0,0,235.67,247c3.21-6.35,7-12.41,10.53-18.59.28-.47.82-.79,2-.86-.41,1.26-.8,2.53-1.23,3.79-4.79,14.28-10.14,28.4-14.21,42.89-3.16,11.25-3.17,23-1.1,34.6a33.68,33.68,0,0,0,1.38,4.26,34,34,0,0,0,16.17-12.18q10.09-14,19.33-28.64c12.51-19.85,29.29-34.58,50.89-43.82A7,7,0,0,0,322,226c2.53-3.58,5.34-4.06,8.86-1.5a6.08,6.08,0,0,0,2.3.77c3.63.7,5.08,2.39,4.83,6.08a57.64,57.64,0,0,1-.95,5.8,11.21,11.21,0,0,0,11.29-.22c4.62-2.78,9.46-5.7,13-9.63,8.08-8.91,15.58-18.37,23.06-27.81,9.18-11.57,18.09-23.34,27.34-35.32-1.83-.37-3.6-.71-5.36-1.1-9.46-2.11-17.83-6.52-25.66-12.11-3.91-2.79-7.93-5.41-12.39-8.44,1.38.25,2.69.16,3.62.71a85.14,85.14,0,0,1,7.25,5c9.27,6.91,19.12,12.43,30.81,14.15,2.42.36,3.86-.14,5.35-2,9.49-12,18.94-24,28.71-35.81,4.06-4.89,8.93-9.12,13.33-13.73,3.91-4.09,7.64-8.34,11.53-12.43,1.37-1.45,3-2.64,4.51-4l.82.66c-.27.67-.52,1.36-.83,2a2.2,2.2,0,0,1-.57.75c-13.17,11-17.33,27.3-24.17,42-2.15,4.6-4,9.36-6.22,14.73l17.85-6.13c.18.38.36.77.55,1.15a18.15,18.15,0,0,1-2.49,1.94c-5.33,2.92-10.77,5.64-16,8.71a9.4,9.4,0,0,0-3.73,4.19c-8.42,20.45-16.79,40.93-28.25,59.93-8.07,13.37-16.49,26.53-24.63,39.86-6.56,10.74-12.8,21.67-16.89,33.64-.92,2.7-1.16,5.63-1.77,8.76h3.24l1-4.07.73.08v3.5c1.22-.12,2.21-.15,3.16-.33,3.9-.76,7.81-1.47,11.66-2.42a8.22,8.22,0,0,0,3.46-2c11.39-10.68,23.08-21.06,34-32.24,13.31-13.65,25.91-28,38.85-42,1.15-1.25,2.5-2.32,3.75-3.47l1.07.64a36.85,36.85,0,0,1-1.35,4.41c-5.18,11.66-10.79,23.15-15.53,35a179.79,179.79,0,0,0-8.09,26,26,26,0,0,0,.84,12.89c1.88,6.09,7.07,7.53,11.83,3.31a153.55,153.55,0,0,0,15.44-16c12.24-14.53,24.67-28.84,39.77-40.55,3.14-2.44,6.45-4.67,9.72-6.94,6.26-4.35,12.61-8.59,18.82-13,6-4.24,12.31-7.65,19.54-9,1.74-.32,3.69.44,5.54.7-1.35,1.26-2.48,3-4.08,3.7-8,3.56-16.22,6.75-24.25,10.31a18.6,18.6,0,0,0-5.77,4.18c-11.7,12.42-18.9,27.29-23.29,43.61a23,23,0,0,0-.74,6.85c.45,9.94,8.71,15.49,19,12.19a45.49,45.49,0,0,0,12.79-7.11c10.58-7.87,19.26-17.75,27.65-27.82,11.81-14.17,23.35-28.57,35-42.91a8.94,8.94,0,0,0,1-2.67Zm84.18,40.61c2.46.38,4.71.8,7,1.08,10,1.22,20,1.87,30-.3a13.29,13.29,0,0,0,7.77-4.85c7.61-9.17,15-18.54,23.21-27.19,5.17-5.47,5-11.13,3.1-17.34-1.1-3.59-3.72-6.34-7.51-6.86-4.39-.6-9-1.22-13.31-.49-19,3.19-34.88,10.67-40.64,31.2a19.67,19.67,0,0,1-.79,2ZM821.65,196.8c-8.72,3-15.29,8.16-19.15,15.9-7,14-13.48,28.32-20,42.59a15.63,15.63,0,0,0-1.22,11.24,30.31,30.31,0,0,0,4.42-3.19,90.24,90.24,0,0,0,6.89-8.13c6.39-8.64,11-18.25,15.27-28.07C812.27,217.1,816.93,207.19,821.65,196.8ZM1043.93,63.55l-.46-.16-26,56.89c6-.56,7-1.36,8.68-6.61,3.37-10.21,6.73-20.43,10.29-30.57C1038.78,76.52,1041.43,70.06,1043.93,63.55ZM723.83,265.77c-12.44,2.65-24.75.45-37.58-1.13C695.2,274.15,714.3,274.64,723.83,265.77ZM538.1,232.69l25.13-10.49-.54-1.21C553.11,221.85,545.1,226.3,538.1,232.69Zm52,230.21.8.21,8.91-34.94C594.86,439.32,590.37,450.58,590.1,462.9ZM331.52,228.53c1.61,2.62-1.78,5.95,2.39,7.67C336,231.65,335.52,229.16,331.52,228.53Zm-80.78-7.59c-5.28-1.36-10.09.09-14.75,2.39ZM331.39,237c-.7,3.16-1.35,6.07-2.13,9.57C333.55,241.77,334.33,238.06,331.39,237ZM330,228.59l-6.13,2.19,5.31,3.36C329.43,232.23,329.65,230.79,330,228.59Zm91.78-72.82-.69-.48-5.45,6.61C419.74,161.62,419.67,157.78,421.75,155.77Z"/><path d="M169.26,169.72c-4.54,7.41-9.14,15-13.82,22.57-23.09,37.25-48.14,73.18-73.61,108.82-5.91,8.27-11.65,16.68-17.88,24.71a232.51,232.51,0,0,1-17.73,20.76,49.77,49.77,0,0,1-13.5,9.5c-11.39,5.56-24.34.48-29.37-11.2-3.6-8.38-4.07-17-2.49-26.14C4,300.63,12.67,284.56,19,267.64c3.32-8.92,8.74-17.1,13.68-25.35,1.76-2.95,4.66-5.38,7.44-7.53,2.19-1.69,5-2.47,7.65,0-7-1.41-10.54,3.37-13.8,7.91-10.52,14.63-18.32,30.7-20.85,48.59-1.72,12.18-2,24.74,4.27,36.2a56.21,56.21,0,0,0,5.46,8,5.13,5.13,0,0,0,7.31,1.27,87,87,0,0,0,11.59-8.51c13.4-12.47,24.67-26.84,36-41.13,37.06-46.66,70.9-95.6,102.89-145.84Q208.1,98.12,232,53a4.53,4.53,0,0,1,2-2.11c-18.52,39.29-39.61,77.15-62,114.33,8.83-.4,17.46-.72,26.08-1.22,12.25-.7,24.45-1.89,36.31-5.29,34-9.75,59.22-30.68,76.48-61.22a193.57,193.57,0,0,0,12.71-27.6,43.67,43.67,0,0,0-.11-32.25c-2.95-7.44-8.43-12.33-15-16.32-11.92-7.2-25-10.43-38.72-11.75-22.27-2.15-43,4.12-63.49,11.32a510.26,510.26,0,0,0-69.5,30.67c-11.94,6.32-23.9,12.61-37.18,15.73-7.35,1.73-14.74,2-22-.35A53.05,53.05,0,0,1,71,63.78l.28-.8c.34,0,.77-.21,1-.07,8.34,5.15,17.52,5.67,26.43,3a200.05,200.05,0,0,0,28.92-11.19c15.5-7.39,30.42-16,45.93-23.35,23.66-11.23,48.68-18.66,74.08-24.73,10.88-2.61,21.88-5.32,33-6.28,23-2,43.54,3.63,58.52,22.81,10.12,13,14.38,27.74,12.28,43.92-5.38,41.38-28.13,71.59-62,94.31a134.78,134.78,0,0,1-41.72,18.64,108.4,108.4,0,0,1-48.3,1.64c-7.22-1.42-14.25-4-21.19-6.58C175.15,174,172.51,171.73,169.26,169.72Z"/><path d="M614.58,185.55c-9,.22-16.06-5.7-16.44-12.94a35.27,35.27,0,0,1,1.12-12.32c2.28-7.12,9.74-11.2,17.19-10.41,2,.21,4,.34,5.95.38a13.94,13.94,0,0,1,13.44,10,13.54,13.54,0,0,1-4.67,15.72,33.62,33.62,0,0,0-3.47,3.17C623.66,183.35,618.75,185.57,614.58,185.55Z"/><path d="M502.39,138.15c7.05-.59,12,1.28,14.81,7,2.88,5.85,2,11.34-2.16,16.38s-8.63,9.8-15.65,10.72c-10.93,1.43-19.26-8.08-16.35-18.66C486,142.8,491.34,138.74,502.39,138.15Z"/></svg>