<svg xmlns="http://www.w3.org/2000/svg" viewBox="0 0 1942.26 954.4"><path d="M939.59,445.4c-3.71,11.19-7.17,22.48-11.18,33.56-10,27.78-21,55.16-37.44,79.91a100.47,100.47,0,0,1-16.37,19.39c-16.2,14.48-34.08,10.77-43.82-8.7C819,546,818.59,521.75,827.34,497.3c9.68-27,28.72-46,53.32-59.87a14.38,14.38,0,0,0,4.7-3.8h-5A261.89,261.89,0,0,0,800.84,446c-26.67,8.62-53,18.21-79.89,27.51,2.25,3.09,4.7,6,6.64,9.2,7.33,12.12,10.49,25.55,11.38,39.47,2.41,37.36-9,70.06-34.85,97.12a397.25,397.25,0,0,1-34.73,31.49c-5.53,4.55-12.42,7.85-19.19,10.39-13.55,5.08-25,.33-32-12.42-5.15-9.38-7.27-19.66-7.79-30.19-1.62-33.5,4.56-65.7,17.64-96.49,7.09-16.69,18.25-30.52,32.61-41.69a25.19,25.19,0,0,0,4.52-4.37c-14.95,2.42-29,7.18-42.84,13-32,13.4-61.26,31.41-89.34,51.56C524,547,514.74,552.76,503.5,554.9c-.12,29-12.58,55.11-17.33,82.89-2.73,15.89-4.41,32-6.88,47.88-1.69,11-3.88,21.94-6,32.88a31.49,31.49,0,0,1-1.79,4.91l-1.5-.14c-.14-1.92-.68-3.92-.36-5.77,3.74-22,7.88-43.93,11.32-66,1.37-8.83,1.6-17.89,1.77-26.86.45-24.51-.53-49-4.94-73.14-.52-2.83-1.51-5.57-2-8.63,6.69,7.46,15.23,10.07,24.71,10.61,1.34-19.66-11.93-35.91-30.56-38-11.18-1.27-22.11.22-32,5.67C426,527.87,414.12,535,402.54,542.51c-15,9.71-30.15,19-48.05,22.46-15.71,3-31.37,4.33-46.56-2.31a37.45,37.45,0,0,1-10.81-7.12c.66.06,1.48-.13,1.95.2,16.94,11.83,35.63,11.28,54.7,7.65,15.31-2.92,28.74-10.1,41.83-18.29,14.94-9.35,30-18.64,45.55-26.84,10.71-5.64,22.8-6.31,34.57-3.09,15.26,4.18,23.37,15.09,26.42,30.19.23,1.14.42,2.29.62,3.44s.38,2.29.73,4.37c3.27-.92,6.66-1.23,9.36-2.76,8.66-4.92,17.4-9.85,25.53-15.58,31.32-22.09,64.27-41.08,100.56-53.78,7.35-2.58,15.09-4,22.51-6.39a93.27,93.27,0,0,0,16.48-6.52c11.67-6.39,23.81-11.2,37.13-12.05,3.82-.25,7.81,1.19,11.6,2.27,1.13.33,2.7,2.22,2.55,3.15a5.09,5.09,0,0,1-2.9,3.44c-4.1,1.27-8.36,2-12.78,3,2.9,3.59,6.28,4.22,10.5,2.73,20.38-7.21,40.73-14.5,61.22-21.39,27.94-9.4,56.35-16.62,86.14-16.6,5.47,0,11-.41,16.39-.9,2.08-.19,4.1-1.13,6.13-1.78,10.42-3.31,20.64-7.74,31.31-9.56,6.81-1.17,14.36,1.15,21.42,2.63,3.05.64,5.68,3.29,4.81,7.14-.81,3.64-4,3.52-6.85,3.53-14.32,0-28.66.35-43-.16a24.66,24.66,0,0,0-17.4,6c-13.84,11.43-23.17,26.06-29.56,42.64-7.66,19.85-12.49,40.4-13.1,61.72-.24,8.5,1.33,16.93,5.75,24.52,3.9,6.7,8.91,8.91,15.92,5.59,4.71-2.23,9.68-5.23,12.78-9.25,8.62-11.16,17.22-22.51,24.19-34.72,15.41-27,25.84-56.25,36.43-85.37a16.32,16.32,0,0,1,4-6.36c6.35,41.1,7.42,82.35,8.22,124,1-2.36,2-4.72,3-7.09,13.81-33.46,28.59-66.43,48.81-96.64a176.78,176.78,0,0,1,31.79-36.37c21.72-18.61,40.41-13.17,57.74,7,3.32,3.86,5.34,8.82,8.46,12.89,1.54,2,4.08,4.17,6.4,4.48,8.92,1.18,17.79.23,25.49-4.8,10.3-6.74,20.56-13.61,30.35-21.06,16.86-12.81,35.3-21.18,56.62-22.86a20.7,20.7,0,0,0,8.66-3.24c20.91-12.63,42.76-17.65,66.22-8,8.62,3.54,16.36,9,16.59,19.38.53,23.84,8.42,46.35,11.87,69.64.08.57.56,1.08,1.37,2.58.91-8.57,1.47-16.12,2.56-23.6,2.62-18,4.78-36.22,13-52.62,5.13-10.17,11.17-20.27,18.62-28.81,20.27-23.23,51.36-21.36,69.12,3.89,5.09,7.24,8.12,15.94,12,24,.69,1.43,1.07,3,2,5.62,2-3.42,3.47-5.94,5-8.44,9.06-15.14,20.58-27.82,36.32-36.27,19.86-10.67,39.52-5.76,49.6,14.31,6.29,12.51,9.87,26.43,14.18,39.88,6.19,19.32,11.62,38.89,18,58.13,2.07,6.19,6.14,11.75,9.6,17.42.9,1.48,3,2.25,4.5,3.35.87-1.71,2.29-3.35,2.5-5.14.9-7.77,1.48-15.57,2.11-23.37,2.08-25.75,4.25-51.55,12.35-76.25,3-9.07,7.91-17.53,12.34-26.08,1.32-2.56,3.71-4.73,6-6.59,3.93-3.18,8.07-2.65,10.61,1.75a46.22,46.22,0,0,1,5.3,12.84c4.55,20.65,8.59,41.42,13,62.1,3.12,14.53,7.07,28.83,14.62,41.81a56.83,56.83,0,0,0,7.72,10.39c8.25,8.74,17.95,9.52,27.77,2.59,12.7-8.95,20.26-21.64,24.72-36,5.56-18,10-36.29,15.34-54.32,6.42-21.6,17.18-40.81,33.41-56.63,2.53-2.46,7.87-5.88,9.18-5,3.12,2.18,6.27,6.63,6.44,10.29.6,13.42,1.52,27.13-.47,40.31-4.27,28.26-10.27,56.25-15.57,84.35a24,24,0,0,0-.69,6.45c1.94-4.57,3.83-9.15,5.83-13.69,11.1-25.2,22.67-50.14,41.11-71.09a52.79,52.79,0,0,1,5.62-5.67c5-4.14,9.11-3.38,10.48,2.82a133.53,133.53,0,0,1,3,24.65c.84,27.47,1.19,55,1.75,82.44a20.71,20.71,0,0,0,.64,2.72c2.52-5.74,4.75-10.43,6.67-15.24,13.3-33.38,36.61-58.45,65.55-78.76,9.73-6.82,20.12-4.9,27.86,4.59,8.15,10,10.34,22.09,10.2,34.29-.22,19.12-1.13,38.27-2.78,57.31a938.06,938.06,0,0,0-3.07,94.83c.1,7.32-.17,14.66-.53,22-.07,1.62-1.24,3.19-1.91,4.77-1.76-.76-4.36-1-5.12-2.36-4.25-7.46-9.34-14.79-11.78-22.87-8.19-27.09-9.91-55-7.54-83.12,2.2-26,4.79-52.06,6.91-78.11a55.71,55.71,0,0,0-1.11-14.89c-1.39-7.2-6.25-9.51-12.54-5.78a58.8,58.8,0,0,0-12.87,10.19c-26.62,28.53-47.16,60.67-57.41,98.77-1.07,4-2.48,7.95-3.89,11.86-1.29,3.55-3.67,6-7.7,6.07a8.29,8.29,0,0,1-8.55-6.42,79.52,79.52,0,0,1-2.51-14.71c-1.37-19.23,3.63-37.68,7.49-56.24,3.12-15,7.41-29.79,9.49-44.91,1.28-9.35,0-19.22-1.29-28.7-.93-7-4.67-7.78-9.79-2.6-13.25,13.44-23.32,29.2-31.09,46.21-9.18,20.09-17.23,40.7-25.77,61.08-.45,1.06-.88,2.12-1.39,3.15-.1.19-.58.19-1.71.53.17-1.74.2-3.23.48-4.67,5.6-27.87,11.63-55.65,16.7-83.61,4.18-23,5.51-46.31,2.73-69.66-.23-2-1.59-3.76-2.42-5.63-1.71.91-3.72,1.5-5.09,2.78-18.49,17.12-29.88,38.46-36.69,62.45-4.8,16.93-9.07,34-14.24,50.83a70.56,70.56,0,0,1-20.5,32.57c-14.16,12.6-27.42,11.39-38.66-3.88-10.08-13.71-14.62-29.76-18.2-46.05-4.6-20.95-8.63-42-13.2-63a52.08,52.08,0,0,0-5-12.93c-2.3-4.34-6-4.88-9.36-1.29a61.74,61.74,0,0,0-8.85,12c-9.67,17.31-13.55,36.44-15.92,55.81-2.44,20-3.75,40.11-6,60.13-.38,3.44-2,8.45-4.51,9.57-4.22,1.89-6.25-3.3-8.37-6.23-8.58-11.9-13.57-25.54-18.12-39.31-5.79-17.55-11-35.29-17.06-52.75a86,86,0,0,0-9.32-18.71c-8.81-13.5-21.84-15.42-34.77-5.59s-20.55,23.35-24.63,38.5-6,30.66-9.39,45.91A84.41,84.41,0,0,0,1455,494a43.41,43.41,0,0,1-3.64,27.34c-5.91,12.2-19.62,15.35-30.19,6.87a39.61,39.61,0,0,1-14.25-24.6c-2.82-16.06-4.52-32.32-7.34-48.38-2.45-13.92-5.75-27.69-8.8-41.5a12.36,12.36,0,0,0-3.74-6c-1.91,4.5-4.09,8.91-5.68,13.53-6.6,19.16-9.17,39.14-12,59.11-2.43,17.27-5.07,34.59-9.17,51.52-3.24,13.38-11.2,23.68-26.15,26.55-7.91,1.51-14.52-1.07-20.57-5.48-10-7.32-15.39-18-18.77-29.43-3.43-11.62-5.51-23.64-8.18-35.49-.32-1.43-.59-2.89-1.1-5.42-3.19,10.95-5.61,21-9.07,30.71-3.52,9.84-7.18,19.82-12.37,28.82-9.47,16.45-26.23,19.57-40.55,7.12-21-18.21-33.61-41.3-34.62-69.54s6.93-54,26.1-75.52c.19-.21.2-.58.48-1.5-8.26-.63-16.58-1.11-23.89,2.5a328.59,328.59,0,0,0-30.58,17.67c-7.57,4.81-14.43,10.75-21.9,15.74-13.92,9.3-21,11-36.29,9.63,3.8,16.24,7.92,32.66,11.44,49.21,3.48,16.38,6.36,32.9,9.5,49.35l-1.46.53a42.05,42.05,0,0,1-2.39-5.32q-12.55-42.54-25-85.1c-.75-2.55-1.61-5.07-2.31-7.63a18.9,18.9,0,0,0-6.69-10.09c-2.92-2.36-4.81-6.18-6.63-9.63-.53-1,.78-2.94,1.25-4.45,1.4.62,3.42.85,4.07,1.93,2.22,3.68,3.72,7.8,6,11.48a20,20,0,0,0,5.87,5.64c-4-16.58-24-32-39.86-31.68-7.77.17-13.91,4.18-19.8,8.58-13.78,10.32-24.59,23.4-34.12,37.57-20.34,30.25-34.61,63.56-49.29,96.73-6.65,15-5.81,30.53-6.76,46-4.6,74.57-21.11,145.93-54.75,213.12-20.3,40.53-50.07,72.29-86.21,98.76-19.77,14.49-39.8,28.55-63.14,36.91-9.15,3.28-18.48,5.31-28.37,3.7-21.53-3.52-32-17.51-29.52-39.15,3.07-26.75,13.47-50.75,27.26-73.42,21.62-35.55,47-68.07,80.15-93.65,14.74-11.37,30.94-20.82,46.29-31.42,42.37-29.27,72.29-68.72,94.72-114.63,9.69-19.82,14.61-39.87,13.1-62-2.15-31.37-3-62.83-4.41-94.25Zm6.17,133.89-1.38-.14c-.44.86-.88,1.72-1.3,2.59-7.25,15.12-13.62,30.75-21.91,45.27-25.29,44.33-60.6,78.72-104.25,105.31C763.2,765,726.46,813.1,699.24,868.87,691,885.69,686,903.67,686,922.67c.06,13.28,8.12,24,20.76,28,12.3,3.91,24.24,2.06,36.05-2.34,21.79-8.11,40.87-20.87,59.32-34.64,22.75-17,44.63-35,61.82-57.85,24.3-32.33,40.18-68.92,53.14-106.93,14.44-42.33,22.41-86,26.14-130.44C944.35,605.45,944.94,592.36,945.76,579.29ZM682.5,471.51c-5.2,1.72-9.93,2.27-13.43,4.62-11.26,7.56-21.51,16.47-28.86,28-23.53,37-30.4,77.85-27.35,120.8.75,10.51,3.61,20.75,11,28.95,5.61,6.23,12.55,9.73,20.92,6.92,7-2.36,14.44-4.71,20.3-9a297.63,297.63,0,0,0,30.49-25.71c31-29.62,45.82-65.66,41.21-108.82-1.52-14.2-5.33-27.7-14.34-39.32-2.62-3.37-5.24-4.06-9.37-3.21a256.74,256.74,0,0,1-25.56,4C682.13,479.36,681.12,477.8,682.5,471.51Zm603.31-50c-10-4.06-20.36-8.19-30.66-12.46-3.87-1.61-6.86-.88-9.81,2.15-16.24,16.67-21.28,37.28-20.44,59.63.4,10.44,2.3,20.84,3.67,31.23,1.43,10.86,4.6,21.13,10.84,30.29,4.41,6.46,7.4,6.83,12.41,1a47.2,47.2,0,0,0,7-10.27C1273.93,491.15,1286.49,458.5,1285.81,421.51ZM484.67,632.64c10.12-26,18.79-68.18,16.5-76.52l-21.88-6.46C484.46,576.73,484.78,604.67,484.67,632.64ZM1095,444.06l-1.81,1.29,24.43,84a104.13,104.13,0,0,0-2.82-20.7c-4.5-19.06-9.06-38.1-14-57C1100,448.79,1096.94,446.57,1095,444.06ZM946.4,430.24c-4.78-9.73-33.59-6.93-46.19,1.23C906,434.08,942.2,433.11,946.4,430.24Zm-269,41.42c7.56-1.72,15.05-3.78,22.68-5.05,5.13-.85,10.48-.27,15.65-.91,4.15-.52,8.19-1.93,12.85-3.09C721,453,691.45,460.31,677.43,471.66Zm38.75.89c-8.53-6.19-29.67-3.23-33,4.74C694.52,477.82,704.94,475,716.18,472.55ZM471.35,714.81l1.45.26Q475.4,699.52,478,684l-1.23-.21Q474.05,699.28,471.35,714.81Zm616.41-276,1.1-.72-6.52-11.78-1.66.93C1080.47,432.57,1083.77,435.89,1087.76,438.82Z"/><path d="M85.7,530.62c-7.07,4.8-14.56,9.08-21.11,14.5-16.67,13.77-26.2,32.44-34.12,52.07-9.23,22.88-15.84,46.24-14,71.31.9,12.5,1.88,24.9,7.19,36.53,3.8,8.32,9,12.64,15.49,11.61a25.52,25.52,0,0,0,7.86-3c11.6-6.26,20.92-15.32,29.86-24.8,28-29.64,50.43-63.24,71.35-98,34.38-57.18,61.59-117.74,85.93-179.7,8.16-20.78,16.8-41.36,25.11-62.08a59.64,59.64,0,0,0,2.33-8.63c.76-3.18,0-6.94,4.5-8.41,1.19-.38,1.69-3.08,2.4-4.76,19.41-45.9,39.4-91.56,64.19-134.85,12-20.94,25.17-41.23,38.47-61.38,4.34-6.56,10.63-11.86,16.29-17.47,1.36-1.35,3.77-1.63,5.69-2.4.59,2,1.72,4,1.68,5.95-.23,13.35-4.09,26-8.8,38.26q-25,65.32-50.32,130.51-20.88,53.81-42.08,107.48c-1.26,3.21-.49,4.72,2.13,6.48C311,410,328.33,414,346.14,416c27.5,3.16,54.9,1,82.24-2.51,56.78-7.27,108.63-27.26,155-60.89,35.51-25.78,64.31-57.44,81.95-98.23,10.45-24.17,14.55-49.17,8.19-75.15-6.47-26.45-23.17-45-46.62-57.66s-49-18.84-75.31-22c-31.8-3.89-63.79-4.53-95.74-3.75-37.61.91-75.21,2.65-112.78,4.63-35.79,1.88-71.18,1.42-105.5-10.85-27.77-9.93-51.18-25.47-67.26-50.74-5.13-8.06-9.24-16.63-10-26.34-.37-4.4-.26-8.84,3.05-12.45C158.56,26.65,174,44.14,190.8,60.42c19.75,19.15,44.76,28.43,71.07,34.33,36.75,8.23,73,4.12,109.23-4.37,25.6-6,51.26-12,77.14-16.59,31.85-5.61,63.69-3.29,95.34,3.14,29.25,5.94,57.48,14.66,83.4,29.68,31.15,18,51.66,43.71,55.39,80.69,2.59,25.62-3,49.68-14.15,72.63-21.41,44-54.83,77-95.33,103.45-35.84,23.38-75.25,38-116.56,48.32-24.91,6.22-49.73,12.64-75.36,15.08-26.16,2.5-51.63,0-75.38-12.27-5.43-2.82-10.44-6.47-16.33-10.17-3.47,8.41-7.05,16.76-10.4,25.21-28.78,72.5-62.44,142.52-105.92,207.51-22.41,33.49-47,65.13-78.06,91.25a113.41,113.41,0,0,1-32.82,19.77C38,757.22,9,749.74,1.69,715.4-1.87,698.78.54,682.71,5.8,667.21c9.63-28.36,16.31-57.74,29.33-84.93,9.25-19.31,21.63-35.95,40.15-47.35,3.22-2,6.81-3.35,10.23-5Z"/></svg>