<svg xmlns="http://www.w3.org/2000/svg" viewBox="0 0 1264.89 529.19"><path d="M876.66,260.36c-5.36-1.2-10.46-2.45-15.61-3.49-20.06-4-40.22-3.84-60.54-2.13-17.16,1.44-34.41,1.88-51.63,2.66-2.24.1-3.28.64-3.1,3.06a175.77,175.77,0,0,1-5.93,58.94c-1.26,4.73-2.3,9.51-3.48,14.26a2.81,2.81,0,0,1-1.4,1.82,9.81,9.81,0,0,1,0-2.1c2.68-12.24,5.83-24.39,7.94-36.73a72,72,0,0,0,.78-21.47c-1.77-13.28-12.55-22.49-26.06-24-14.48-1.62-27.75,2.6-40.5,8.64-21.77,10.3-39.53,25.69-54.49,44.4-14.49,18.14-28.82,36.41-43.41,54.47-5.19,6.42-11,12.34-16.37,18.62a10.59,10.59,0,0,0-2.33,4.89c-2.92,17.19-4.87,34.59-10.06,51.32-7.47,24-17.47,46.83-33.7,66.44-11.14,13.45-25,23.05-42,26.95-8.06,1.85-16.57,2.18-24.89,2.29-10.52.14-16.45-8.05-13.81-18.25,2.3-8.87,7.49-16.17,13.88-22.42,14.06-13.74,28.66-26.94,42.68-40.71,14.77-14.5,29.16-29.4,43.64-44.19a12.09,12.09,0,0,0,2.32-4c6.44-16.22,13.21-32.34,19.09-48.77,3-8.49,4.67-17.52,6.58-26.38,1.58-7.33,2.65-14.76,3.51-22.33-1.16,2.45-2.19,5-3.5,7.36-6.92,12.5-13.69,25.09-21,37.37a38.48,38.48,0,0,1-14,13.25c-10.52,6.15-20,1.66-21.88-10.44-1.6-10,.62-19.59,3.75-29,6.15-18.35,17.37-32.77,34.19-42.55,3.2-1.86,6.81-3,10.64-4.72-4.29-.42-8.24-.82-12.19-1.18-7.9-.74-15.86-2.43-23.69-2-12.88.76-25.73,2.57-38.49,4.58-23.65,3.72-46.4,11.19-69.45,17.41a79.93,79.93,0,0,1-27.57,2.58c.71.75,1,1.12,1.32,1.4,13.86,11.39,19.32,26.39,17.25,43.76-2.16,18.16-8.41,34.91-21,48.75a67.2,67.2,0,0,1-21.42,16.09c-18,8.47-43.63-4.85-45.07-23.54-.51-6.57.47-13.33,1.44-19.91a127,127,0,0,1,8.09-30.51c5.47-13.08,13.4-24.08,26-31.24a18,18,0,0,0,1.49-1.08c-4.91,0-9.41-.52-13.75.1-9.19,1.32-18.27,3.38-27.44,4.87-11.92,1.93-23.95,2.74-35.88.42-4.41-.86-8.51-3.28-12.78-4.92-4-1.55-8-3.67-12.22-4.26-2.77-.39-6.09,1.06-8.76,2.45-3.61,1.89-5.11,5.09-4.39,9.46.87,5.35,1.26,10.79,1.67,16.21.69,8.9-1.54,17.47-3.43,26-3.05,13.78-6.36,27.5-9.82,41.17a150.1,150.1,0,0,1-6.26,20.35,26.92,26.92,0,0,1-7.56,10.09c-7,5.71-16,2.38-18.7-6.19-1.73-5.39-1.13-10.65.62-15.71,9.21-26.52,19.74-52.41,35-76.23,3.25-5.09,4.2-11.71,5.83-17.73a8,8,0,0,0-.83-5.46c-1.9-3.38-5.67-4.71-9.9-2.88-7.24,3.15-14.66,6.28-21.16,10.66-13.35,9-26.11,18.85-39.19,28.25-9.93,7.13-19.92,14.21-30,21.1-10.41,7.1-21.9,11.21-34.59,11.48a54.91,54.91,0,0,1-9.06-.53,9,9,0,0,1-4-2.09c-.5-.4-.51-1.75-.3-2.54.12-.44,1.18-.61,2-.7-1.9,2.17-.89,3.36,1.15,3.81a34.33,34.33,0,0,0,7.71,1.06c12.83-.16,24.89-3.28,35.47-10.72,17.87-12.57,35.45-25.56,53.39-38.05,10-7,20.46-13.33,30.78-19.87a25.05,25.05,0,0,1,5.19-2.17c7.44-2.6,10.11-1.8,15.06,4.62,6.44-9.44,15.8-7.79,25-6.41A31.54,31.54,0,0,1,271,297c8.55,4.35,17.17,3.91,25.93,1.19,4.89-1.51,9.75-3.16,14.58-4.87,12.67-4.49,25.7-5.4,39-3.92,3.63.41,7.28.85,10.86,1.56a26.26,26.26,0,0,0,13.29-.34,7.43,7.43,0,0,1,8.05,2c1.12,1.11,3.41,1.33,5.2,1.43,9.15.5,18.05-1.08,26.87-3.42,19-5.07,38-10.48,57.19-14.82,12.85-2.9,26.07-4.18,39.12-6.2,9.1-1.41,18,.25,27.06,1.13s17.85,1.33,26.78,2c1.86.13,3.72.31,5.58.47,0,.3,0,.59,0,.89a7.19,7.19,0,0,1-1.93.24c-9.91-1.61-18.64,1.57-26.58,7.05-20.27,14-31.14,33.61-33.67,57.88a38.26,38.26,0,0,0,1.06,13.6c2.22,8.29,9.49,11.28,17.25,7.56,7.37-3.54,12.95-9.22,17.33-16a276.17,276.17,0,0,0,28.74-58c.77-2.16,1.64-4.29,2.52-6.41.08-.2.49-.26,1.64-.82-6.55,15.79-9.76,31.69-11.5,47.82s-2.63,32.47-4,49.53c1.27-1.33,2.13-2.23,3-3.15,19.33-20.66,36.67-42.94,53.81-65.4,14.84-19.45,32.59-35.63,54.36-47.09,11.67-6.14,24-10.38,37.25-11.14,13.63-.78,29.8,6,34.13,21.13a11.06,11.06,0,0,0,.89,1.69c0-4.27,0-8.08,0-11.88,0-3.64.56-4.57,4.13-4.15,11.52,1.37,22.86-.84,34.27-1.47,17.27-1,34.51-3,51.84-2.31a183.74,183.74,0,0,1,40,6.39,12.58,12.58,0,0,0,7.84-.48c11.21-3.83,22.47-4.37,33.63.25A22,22,0,0,1,927.38,268c.69,1.19.55,2.87.79,4.32-1.37.23-2.74.49-4.12.66a8,8,0,0,1-1.84-.35c-2,7.63-4.33,15.18-5.88,22.89a66.34,66.34,0,0,0,.79,29.56,26.22,26.22,0,0,0,1.7,4.71c1.59,3.33,4.06,4.83,7.64,3.84a32.41,32.41,0,0,0,9-4.09c8.1-5.36,13.9-12.87,18.83-21.14,6.38-10.67,12.39-21.61,19.42-31.84,7.94-11.57,17.09-22.27,28.71-30.44a19.49,19.49,0,0,1,8.19-3.55c6.19-.81,10.41,2.26,13.37,8.66,4,8.62,5.84,17.84,7.41,27.13.58,3.44,1.16,6.87,1.89,11.16,3.61-5.35,6.57-10,9.79-14.48,7.35-10.22,15.44-19.82,25.63-27.38a43.64,43.64,0,0,1,9-5c4.77-2,8.08-1,11.42,3,4.28,5.13,5.72,11.34,6.24,17.77s.66,12.85,1,20.31c1.77-2,3-3.45,4.38-4.83,13.09-13.33,27.16-25.45,43-35.49,9.77-6.21,20.67-9.58,31.64-12.63,2.48-.69,6,.57,8.47,2,5.12,2.9,8.15,8,9.93,13.35,4.37,13.18,8.15,26.55,12.19,39.84,2.06,6.78,4.11,13.57,6.27,20.32.73,2.25,2,2.5,4.29,1.35,11.19-5.64,22.42-11.21,33.82-16.4a35.89,35.89,0,0,1,11.21-2.54c3.08-.31,4,1.34,2.74,4.15a14,14,0,0,1-3.4,4.81c-12.08,10.16-24,20.62-36.52,30.14-9.83,7.45-20,5.6-28.16-3.71-4.87-5.55-7.82-12.12-9.77-19.13a382.21,382.21,0,0,1-11.16-58.47,65,65,0,0,0-1.2-6.78,4.3,4.3,0,0,0-5.08-3.63,28.57,28.57,0,0,0-7,1.64c-13.41,5.25-24.29,14.23-34.67,23.89a197,197,0,0,0-29.33,33.83c-2.37,3.5-4,7.54-5.71,11.43-2.12,4.78-5.77,7.55-10.24,7.41s-8.56-3.4-10.27-8-1.46-9.2-.39-13.89c2.58-11.41,5.24-22.8,7.47-34.28.68-3.54.1-7.33.1-11l-1-.4a74.14,74.14,0,0,0-6.24,5A124.39,124.39,0,0,0,1040.3,303c-1.18,3.66-1.78,7.51-2.71,11.25a29,29,0,0,1-1.55,5.08c-3.64,7.85-12.75,9.19-18.58,2.78a20.32,20.32,0,0,1-5.11-12.58c-.51-7.82-.73-15.67-.54-23.5.28-12.54,1.07-25.06,1.5-37.6.15-4.56-2.16-6-6.13-3.68a63,63,0,0,0-10.79,8c-14.54,13.58-25.58,29.72-34.68,47.35-4.21,8.14-8.72,16.27-14.22,23.55-4,5.31-9.59,9.56-15,13.61-2.48,1.87-6.14,2.72-9.35,3-6.26.49-11-3.13-13.24-9-2.87-7.65-1.74-15.33.34-22.81,2.68-9.66,5.94-19.16,8.94-28.73a40.08,40.08,0,0,0,1.48-6c-3.91,6.53-7.63,13.18-11.77,19.55-7.35,11.3-15.93,21.53-27.13,29.26-6.75,4.66-13.87,8.61-22.32,9.16-10.46.68-18-5.8-19.33-16.23-.85-6.79.69-13.1,3.29-19.23A68.17,68.17,0,0,1,874.84,262c.37-.2.74-.39,1.09-.62A6,6,0,0,0,876.66,260.36ZM383.91,295.45c-2.36,4.66-5.41,5.53-9.32,4.24a9.77,9.77,0,0,0-3.11-.28,43.59,43.59,0,0,0-30.39,12.18c-10.61,10.08-15.67,23.13-19.72,36.83-3.95,13.35-2.2,26.17,2.06,39,3.2,9.65,17.92,20,30.43,16.78a50,50,0,0,0,26.21-16.18C390.47,376,397,362,400.45,346.56c3.35-14.75,1.44-28.7-7.45-41.21C390.52,301.86,387.19,299,383.91,295.45Zm536.34-23c-1.34-.5-2-.81-2.68-1-11.88-3.21-23.74-6.49-35.66-9.51a9.14,9.14,0,0,0-5.88.6c-16.15,8.31-27.31,21.05-33.25,38.26-1.95,5.65-2.59,11.47-1,17.28,2.65,9.64,9.37,13,16.32,12.77,7.93-.3,14.89-3.74,21.43-8,10.85-7.13,19.36-16.61,26.54-27.24C911.1,288.19,915.47,280.33,920.25,272.47ZM535.32,407.63c-1.21,1.44-1.84,2.26-2.54,3-7.71,8.39-15.23,17-23.2,25.1-13.08,13.37-26.6,26.32-39.65,39.72-7.5,7.7-14.94,15.61-19.81,25.36a34.48,34.48,0,0,0-3.12,11c-.46,3.77,1.55,5.59,5.37,6.42,8.41,1.83,15.65-1.14,22.47-5.56,7.16-4.62,12.13-11.37,17.41-17.88C512.92,469.26,526.22,440.08,535.32,407.63ZM922.53,268.8c-.08,4.47,2.57,3.27,5.32,3-.63-1.48-.83-3-1.68-3.81-2.72-2.66-5.39-5.58-8.62-7.48-5.88-3.48-12.6-4.23-19.33-4a45.44,45.44,0,0,0-17.59,4.07c12.37,3.33,24,6.45,35.63,9.6C918.5,270.83,920.69,271.54,922.53,268.8Z"/><path d="M12.65,356.78c-2,7.07-4.06,14.16-6.13,21.22C3.36,388.78,1,399.69,1.58,411a37,37,0,0,0,1.9,10.41c3,8.17,10.14,9.75,16.12,3.56,9-9.33,17.75-18.84,24.11-30.36A340,340,0,0,1,81,340.41c9.77-11.66,15.68-25.37,19.74-39.92,2.3-8.25,4.52-16.52,6.86-25.07-4-1.25-7.67-2.28-11.26-3.57-7.59-2.72-14.41-6.63-19.77-12.84-7.82-9.07-9.76-19.82-8.25-31.17.89-6.69,3.07-13.2,4.75-19.77a8.88,8.88,0,0,1,1.42-2.77c1.83-2.62,4.15-2.6,5.52.31a30.58,30.58,0,0,1,2.2,7.47c1,5.86,1.69,11.8,2.82,17.64,2,10.57,7.65,16,18.25,18,1.85.35,3.72.58,5.58.84,4.79.68,4.32,1.61,5.55-4,5.88-26.8,13-53.23,22.66-78.93,9.11-24.17,17.51-48.62,27.17-72.57,6.25-15.49,14.25-30.26,21.35-45.41,4.95-10.58,9.69-21.25,14.71-32.28-7,1.82-13.71,3.78-20.49,5.28C159.11,26.24,138.47,31,117.7,35c-15.51,3-30.58,1.38-43.32-9.13-4.48-3.69-8.26-8.26-12.12-12.64A146.39,146.39,0,0,1,52.08,0a14.2,14.2,0,0,1,2.5,1.93q5.16,6.32,10.18,12.75C73,25.19,83.2,33,96.71,34.34a83.34,83.34,0,0,0,24.88-1.09c25.69-5.32,51.2-11.48,76.75-17.49a8.65,8.65,0,0,0,4.45-3.35c2.12-2.92,3.75-6.19,5.66-9.27a2.67,2.67,0,0,1,1.39-.85c.63.72,1.65,1.63,1.56,2.35A49.78,49.78,0,0,1,209.79,11c-.13.49-.32,1-.64,2,4.36-.8,8.4-1.54,12.44-2.3,9.32-1.74,18.59-3.77,28-5.18C264.5,3.24,276.63,8.82,286.33,20,294,28.78,298,39.51,301.69,50.31c5,14.66,7.26,29.86,7.67,45.29.51,18.73-4.3,36.4-11.67,53.48C285.64,177,270,202.55,248.76,224.47c-19.64,20.26-43.4,33.91-69.91,43-18.12,6.21-36.74,9.84-56,9.44A95.89,95.89,0,0,1,111,275.72c-2-.3-2.67.12-3.22,2.12-2.93,10.75-5.92,21.49-9.16,32.16a84.67,84.67,0,0,1-16.09,29.89A381,381,0,0,0,42.78,398c-6,10.75-14.55,19.38-23,28.07-5.88,6.08-13.53,4.45-17-3.33-3.2-7.22-3.4-15-2-22.5,2.08-11,5-21.77,7.6-32.63.91-3.78,2-7.52,3-11.27ZM114.4,250.33c4.3-.2,7.95-.23,11.57-.56,13.85-1.3,27.12-5,40.06-9.92,28-10.63,52.57-26,71.37-49.88a243.33,243.33,0,0,0,34-58.37c5.12-12.41,8.29-25.23,8-38.72-.1-5.43-.69-10.85-1.17-16.26a148.64,148.64,0,0,0-10.12-42.23c-6.42-16.07-23.94-25.22-35.83-24.1-7.24.69-14.42,2.24-21.57,3.65a6.14,6.14,0,0,0-3.41,2.64c-2.64,4.14-4.67,8.7-7.57,12.64-12.46,17-22,35.6-30.16,54.83-8.36,19.65-15.42,39.86-23,59.86-10.43,27.62-20.73,55.28-27.14,84.2C117.88,235.33,116.19,242.52,114.4,250.33Z"/></svg>