<svg xmlns="http://www.w3.org/2000/svg" viewBox="0 0 1126.23 329.34"><path d="M518.47,254c-6.13,5.25-11.55,10.36-17.45,14.83-10.42,7.9-21.94,13.66-34.93,16.13-8.28,1.57-13-1.22-14.09-9.58-1-7.78-.7-15.71-1-23.57-.05-1.43,0-2.87,0-5-.84,1.12-1.39,1.75-1.83,2.45q-7.67,12.19-15.32,24.41c-3.76,6-7.5,12.05-13.17,16.48a28.65,28.65,0,0,1-7.91,4.58c-7.64,2.68-14.16-1.34-15.91-9.28-1.83-8.35-1-16.63,1-24.76,2.73-11.36,5.93-22.6,8.83-33.91,2.58-10.05,4.26-20.2,2.37-31.29-2.81,1.2-5.81,1.89-8.09,3.58a80.47,80.47,0,0,0-11.85,10.32,169.55,169.55,0,0,0-33.66,55.37c-2.16,5.76-4.65,11.39-7,17.06-.37.88-.86,1.69-1.3,2.53l-.82-.2a16.33,16.33,0,0,1,.6-3.33c3.1-7.63,6.26-15.24,9.42-22.84,7.56-18.14,15.2-36.24,22.63-54.43a38.19,38.19,0,0,0,2.08-9.23c.34-2.45-.79-3.22-2.84-1.88a60.16,60.16,0,0,0-8.33,6.48c-14.16,13.45-25.54,29.14-36.19,45.39-7,10.76-13.73,21.75-20.89,32.43a71.23,71.23,0,0,1-9.26,10.62,20.89,20.89,0,0,1-6.37,4c-5,2.21-8.91.95-12-3.56-3.92-5.68-4.86-12.2-5.13-18.87-.12-3.14,0-6.29,0-9.67a13,13,0,0,0-1.34.86,228.73,228.73,0,0,1-43.31,28.93,96.47,96.47,0,0,0-25.31,18.56c-2.53,2.63-6.22,4.28-9.59,5.94s-5.68.37-6.95-3.28a39.17,39.17,0,0,1-2-16.87c.62-6.19,1.64-12.34,2.53-18.84-.74,1-1.38,1.78-2,2.61-6.82,8.93-13.48,18-20.49,26.77-9.42,11.8-21.48,19.26-36.68,21.25a29.31,29.31,0,0,1-32.08-20.38c-3.49-11.12-2.86-22.36-.73-33.61.66-3.45,1.51-6.86,2.34-10.56A23.7,23.7,0,0,1,89.25,252a32.76,32.76,0,0,1-4.55-9c-.67-1.85,0-2.34,2.28-3.26-2.17,2.87-1.07,5.37.28,7.66a24,24,0,0,0,17.37,12.1c2-5.73,3.79-11.24,5.9-16.61,5.19-13.22,13.3-24.72,21.93-35.8,3.22-4.13,7.6-7.55,12-10.54a24.16,24.16,0,0,1,9.81-3.43c3.85-.59,6.79,1.63,7.56,5.48a19.9,19.9,0,0,1,0,8.82c-5.78,20.77-16.06,38.34-36,48.76a14,14,0,0,1-3.69,1.68c-3.44.65-3.77,2.83-4,5.88a89.07,89.07,0,0,0,1.28,25.41,24.67,24.67,0,0,0,2.09,6.13c2,4.05,4.53,5.22,8.93,4a48.17,48.17,0,0,0,8.28-3.35A126.36,126.36,0,0,0,174.36,269c12.24-13,24.51-26,36.52-39.18,2.88-3.17,4.62-7.35,7.15-10.87q5.39-7.5,11.2-14.67c1.58-2,3.64-3.84,6.56-2.37,2,1,2.33,3.44.77,7.13a61,61,0,0,1-4.84,9.7c-9.95,15.13-19.91,30.27-30.24,45.15-3.57,5.16-4.75,10.91-6.1,16.68-2,8.6-3.15,17.29-1.44,26.12a2.3,2.3,0,0,0,0,.26c.69,2.2.69,5.56,3.33,5.64a10.6,10.6,0,0,0,7.12-3c7.8-8,16.32-14.89,26.29-19.94,17-8.58,33.12-18.39,47.5-30.91a6.75,6.75,0,0,0,2.34-3.67c2.19-17.38,7.23-34,13.43-50.28a570.33,570.33,0,0,1,49.29-99.76,232.57,232.57,0,0,1,40.29-48.3,62.69,62.69,0,0,1,9.53-7.17c4.21-2.58,6.88-1.34,6.82,3.51a113.57,113.57,0,0,1-1.8,19.13c-2.81,15.34-8.67,29.69-15.46,43.63-16.8,34.51-35.71,67.79-59.28,98.23A281.54,281.54,0,0,1,284.46,255c-2.15,1.85-3.52,3.78-3.29,6.65.5,6.11.84,12.24,1.63,18.32a18,18,0,0,0,2.6,6.22c3,5.28,7.18,6.49,12.65,3.75,5.78-2.91,9.86-7.72,13.32-12.94,7.47-11.24,14.53-22.76,22-34,10.75-16.28,22.18-32.06,36.54-45.44a48.9,48.9,0,0,1,8-6.07c2.74-1.66,4.89-.24,4.3,2.92a86.69,86.69,0,0,1-3.64,13.86c-3,8.24-6.47,16.32-9.73,24.46a8.81,8.81,0,0,0-.83,3.47c.6-1,1.23-2,1.81-3a310.08,310.08,0,0,1,27.66-40c2.74-3.43,5.57-7.07,9.11-9.53,8.89-6.17,18.93-2.11,21.88,8.33a28.54,28.54,0,0,1-.39,16.63c-2.63,8.28-5.68,16.43-8.5,24.66-4.42,12.93-9,25.81-13.1,38.85-1.22,3.88-1.38,8.2-1.42,12.32s2.62,5.94,6.78,5a20.08,20.08,0,0,0,10.78-7c3.63-4.27,7-8.81,10.16-13.41,6.06-8.69,12.06-17.44,17.81-26.34,1.18-1.84,1.41-4.41,1.7-6.69,2.48-19.11,7-37.61,17.28-54.17a96.24,96.24,0,0,1,11.24-14.25,19,19,0,0,1,7.75-4.75c6.85-2.31,12.59,2.72,11.4,9.85a39.62,39.62,0,0,1-2.77,9.31,149.79,149.79,0,0,1-24.2,37.88c-6.34,7.34-12.53,14.81-18.63,22.34a8.45,8.45,0,0,0-1.85,4.89c0,9.21.22,18.43.44,27.65a10.7,10.7,0,0,0,.78,3.15c1.74,5.07,4.92,7,10.26,6.28,10.16-1.38,19.32-5.46,28.07-10.54a108,108,0,0,0,25.87-21.42c2.15-2.39,3-6.1,4-9.36a377.13,377.13,0,0,1,29.77-72.79c9.57-17.76,17.7-36.29,26.35-54.53a283.06,283.06,0,0,1,29.91-49.46,26.58,26.58,0,0,1,5-5c2.17-1.66,4.31-1.09,5.23,1.48a19.23,19.23,0,0,1,1.1,6.63c-.13,12.85-3.29,25.1-7.77,37-10.18,27-23.43,52.54-38.54,77.12-.45.73-.88,1.48-1.32,2.23l.7.64a14.2,14.2,0,0,1,2.31-2.82c.77-.58,2.19-1.13,2.86-.78a3.5,3.5,0,0,1,1.64,2.73,48.44,48.44,0,0,1-1.43,8c-3.89,15.27-8,30.49-11.73,45.8-1.54,6.32-2.28,12.84-3.43,19.25a11.06,11.06,0,0,0,3.31,10.43,7.62,7.62,0,0,0,5.39,1.51c5.76-.56,10.36-3.53,14.11-7.89a82.65,82.65,0,0,0,14-24.07c9.39-23.85,22.65-45.55,37.06-66.6a66.92,66.92,0,0,1,7.36-8.71c7.63-7.85,17.83-5.31,21.11,5.17.16.51.28,1,.51,1.88.58-.51,1-.85,1.41-1.26,2.35-2.51,4.43-5.33,7.07-7.5,7.1-5.83,17-3.29,20.35,5.29,1.31,3.4,1.71,7.18,2.3,10.82.28,1.75,0,3.59.59,5.67,1.83-2.27,3.65-4.55,5.49-6.81,5.58-6.89,10.91-14,16.89-20.56a30.54,30.54,0,0,1,10.35-7.2A15.19,15.19,0,0,1,751,160.19a89.18,89.18,0,0,1,.84,17.3c-.23,9.41-.89,18.82-1.47,28.22-.45,7.3-1.05,14.6-1.61,22.18a14.87,14.87,0,0,0,1.42-1.26c10.39-12.23,20.74-24.48,31.17-36.66a8.46,8.46,0,0,0,2.06-5.66c.37-11.44,1.52-22.78,5.24-33.7A56.44,56.44,0,0,1,805,126.32c5.9-5.23,12.12-2.84,13.42,5,1.25,7.5-.29,14.83-2.26,22-4.27,15.54-12.59,29.21-20.47,43.07a28.6,28.6,0,0,1-2.37,4c-3.36,4.18-3.82,8.79-2.43,13.79,1.58,5.66,2.93,11.39,4.71,17,.66,2,2.28,3.78,3.46,5.65,1.56-1.54,3.49-2.86,4.61-4.68q9.74-15.86,19.14-31.93c10.06-17.09,19.85-34.34,30.13-51.3a82.32,82.32,0,0,1,17.14-20.28c.69-.59,1.35-1.2,2.08-1.74,4-3,8.05-2.45,10,2.17a47.27,47.27,0,0,1,3,12.8c.48,3.9.11,7.9.11,12.6,2.41-2.83,4.28-5.1,6.23-7.29,7-7.9,15.29-13.73,26-15.1,12.17-1.57,22,4.73,23.9,18,1.53,10.74-.06,21.32-1.81,31.88a75.91,75.91,0,0,0-.87,8.91c-.45,10.49-.89,21-1.15,31.48-.19,7.53,3,10,10.43,8.37,6-1.28,10.75-4.79,15.17-8.7,10.32-9.12,18.46-20.13,26.62-31.14,7.6-10.25,15.49-20.29,23.39-30.32,2.67-3.39,2.58-7.47,3.28-11.29,2.19-11.94,3.95-24,8.15-35.43,1.44-3.9,3.34-7.64,4.82-11.53,2.56-6.75,4.85-13.61,7.48-20.34a78.28,78.28,0,0,1,5.28-11.28c2.55-4.32,5.91-5.74,9.15-4.63,3.49,1.2,5.62,5.09,5.2,9.84-.68,7.75-1.44,15.5-2.21,23.24-1,10.18-1.87,20.38-3.11,30.53q-1.31,10.65-3.47,21.18c-3.62,17.65-7.18,35.32-11.35,52.84-2,8.25-5.29,16.17-7.91,24.26a85.64,85.64,0,0,0-2.55,9.42c-1,4.73.65,7.05,5.35,8.47,5,1.52,10,1,15.07,0a92.52,92.52,0,0,0,29-10.52c1.62-.93,2-2,2-3.88-.52-16.17.8-32.14,7.73-47,5.18-11.13,13.72-19.76,23.07-27.47,2.1-1.74,5.14-2.67,7.9-3.22,4.37-.87,7.83,1.5,9.22,5.73,1.63,4.93,1.07,9.89-.36,14.72-6.74,22.76-18.82,42.11-37.47,57-3.54,2.82-4.37,5.47-3.15,9.43,2.79,9.07,5,18.35,8.43,27.2,2,5.23,5.5,9.95,8.69,14.65,2.59,3.81,6.8,5.23,11.16,6.15,1,.21,2,.56,2.94.85.06.28.11.55.16.82a15.33,15.33,0,0,1-2.82,1.5c-8.42,2.4-15.57-.26-21.73-5.94-5.74-5.3-8.76-12.3-10.26-19.73-1.58-7.77-2.26-15.72-3.29-23.61a22.11,22.11,0,0,1,0-2.94c-5.58,2.78-10.78,5.69-16.23,8-9.84,4.25-19.9,8.06-30.85,7.75-12.2-.35-18.69-5.74-21.76-16.1-3-10.12-2.88-20.4-1.63-30.71.73-6,1.9-11.94,2.9-18.07-1.85,3.77-3.62,7.49-5.49,11.16-3.08,6.05-6,12.22-9.45,18a34.22,34.22,0,0,1-7.66,8.66c-3.89,3.16-7.75,1.42-8.32-3.55-.39-3.38-.08-6.83-.08-10.73-.73.88-1.31,1.56-1.86,2.26-6.48,8.23-13.44,16-22.72,21.19-5.24,2.94-10.87,4.48-17,3.54-6.33-1-10.66-4.7-13.72-10.1-4.83-8.55-6.07-17.8-4.78-27.36,1-7.17,2.81-14.23,3.67-21.41a95.75,95.75,0,0,0-.79-27.61,4.86,4.86,0,0,0-.54-1c-1.2.58-2.43,1.06-3.56,1.73-14.77,8.75-25.34,21.46-33.84,36.09a9.14,9.14,0,0,0-.74,2.84c-1.59,8.53-2.91,17.11-4.87,25.55a15.89,15.89,0,0,1-4.53,7.21,9.08,9.08,0,0,1-14.6-2.17,20.16,20.16,0,0,1-2.37-7.94c-.84-9.69,1.28-19.11,3.37-28.49,4.1-18.38,8.29-36.75,12.42-55.13.25-1.11.31-2.27.58-4.34a40.74,40.74,0,0,0-4.78,3.12A93,93,0,0,0,851,153.84c-10,16.92-19.55,34.09-29.34,51.13q-8.2,14.25-16.58,28.39a25.33,25.33,0,0,1-3.45,4.53c-1.79,1.86-3.78,1.88-5.39-.13a25,25,0,0,1-3.8-6.23c-2.33-5.88-4.37-11.88-6.62-18.11-.51.79-1.09,1.62-1.59,2.48a80.26,80.26,0,0,1-15.91,19.87,50.41,50.41,0,0,1-22,11.37c-5.77,1.39-10.58-.21-14.71-4.17-4.65-4.46-7.16-10.15-8.94-16.24-2.54-8.7-2.31-17.53-1.34-26.4q1.11-10.23,2.21-20.47l-.74-.59c-3.36,3.57-7.19,6.8-10,10.76-8.94,12.65-14.51,26.89-18.65,41.72a9.81,9.81,0,0,0-.08,3,14.45,14.45,0,0,1-13.85,15.18c-9.33.57-16.53-5-17-13.38a24.11,24.11,0,0,1,1-6.41c3-13.79,6.16-27.57,9.19-41.37a56.64,56.64,0,0,0,1.16-8.7c-5,4.34-10.88,7.6-12.7,14.79-5.2,20.45-12,40.29-23.66,58.13-2.11,3.22-4.29,6.33-8.49,7-5.57,1-9.87-2.84-9.08-8.44,2.27-16.09,5.53-31.95,11.81-47,2.11-5.07,4-10.22,6-15.34l-.62-.37c-1.74,2.34-3.62,4.59-5.21,7-7.69,11.86-15.28,23.79-23,35.65-5.52,8.51-11.12,17-16.72,25.44-4,6.05-8.84,11.39-15.47,14.53A30.13,30.13,0,0,1,567.36,274c-4.71.41-7.4-2.84-7.53-7.58-.3-11.76,2.56-23,5.22-34.27,3.49-14.9,6.45-29.92,9.64-44.9.06-.32,0-.68-.52-1.4-3.18,3.54-6.6,6.89-9.49,10.65-6.67,8.7-13.39,17.39-19.49,26.49-3.61,5.38-6,11.54-9.05,17.32q-5.79,11.08-11.7,22.1a19.2,19.2,0,0,1-2.84,4c-1.24,1.33-2.82,2.08-4.65,1.07s-1.89-2.81-1.39-4.53C516.38,260.06,517.4,257.27,518.47,254Zm-237.27.8,1.08.41c.41-.31.84-.61,1.23-1a293.75,293.75,0,0,0,38.61-40.47c22.92-29.35,41.25-61.52,57.79-94.76,7.89-15.84,14.72-32.15,17.66-49.75a116.79,116.79,0,0,0,1.3-16.2c.09-3.69-1.63-4.64-4.81-2.83a50.32,50.32,0,0,0-7.74,5.47c-11.28,9.65-20.94,20.82-30,32.52-14.05,18.12-25,38.15-35.27,58.55-13.34,26.44-25.79,53.28-33.76,81.92C284.88,237.33,283.21,246.13,281.2,254.83Zm269.23-44.77.41.31c6.26-7.91,13.15-15.41,18.67-23.8a426.88,426.88,0,0,0,35.36-66.63c6.34-14.77,11.91-29.79,13.07-46a42.29,42.29,0,0,0-.71-10.47c-.45-2.43-2.13-2.87-4-1.26a23.47,23.47,0,0,0-5.14,5.54c-3.76,6.28-7.73,12.52-10.66,19.2-8,18.24-15.9,36.54-23.1,55.1-6.83,17.62-12.75,35.6-19,53.44C553.58,200.31,552,205.2,550.43,210.06Zm532.26,19.13,1.06.27c.29-.17.61-.32.89-.52,19.2-14.33,31.73-33.31,38.55-56.09a31,31,0,0,0,.84-11.25c-.44-5.35-4.66-8-9.72-6.23a26.66,26.66,0,0,0-7.7,4.34,33,33,0,0,0-10.52,15c-3.77,10.66-7.51,21.37-10.33,32.31C1083.9,214.16,1083.65,221.77,1082.69,229.19Zm-964,29.09c3.22-1.49,5.83-2.5,8.26-3.84,18.5-10.28,28.13-27.07,33.76-46.63a20.43,20.43,0,0,0,.13-8.81c-.6-3.54-3.1-5.13-6.69-5-4.36.16-8,2.26-11.35,4.74-6.16,4.51-9.88,11-13.68,17.38C121.49,228.83,121,243.31,118.64,258.28Zm334.05-19.66,1.13.59a9.64,9.64,0,0,1,.94-1.59c4.21-4.86,8.33-9.81,12.71-14.51,11.37-12.22,21.19-25.52,28-40.8a35.76,35.76,0,0,0,3-11.39c.44-5.31-4-8.52-9.23-7.08A14.67,14.67,0,0,0,484,166.4a52.64,52.64,0,0,0-7.15,7c-10.07,12.2-15.89,26.47-19.53,41.66C455.44,222.84,454.21,230.76,452.69,238.62Zm560.59-71-1-.51c-.75,1-1.54,2-2.25,3-8.7,12.36-17.23,24.84-26.14,37-4,5.53-4.51,11.48-3.66,17.78.5,3.7,3.36,5,6.31,2.66a25.42,25.42,0,0,0,6.61-7c3.76-6.57,7.65-13.22,10.22-20.3C1007.2,189.59,1010,178.54,1013.28,167.65Zm-223.55,9.91.79.29c.34-.38.7-.74,1-1.14,6.47-8.15,11.18-17.33,15.39-26.77,2.55-5.71,4.44-11.68,4.55-18,.06-2.93-1.37-3.84-3.62-2a25.37,25.37,0,0,0-6,6.83c-5.11,9.17-7.69,19.28-10.11,29.41C790.86,169.9,790.39,173.75,789.73,177.56Z"/><path d="M129.42,23.61c-9.56-1.89-19.55-4.11-29.63-5.79C86.67,15.63,73.51,13.59,60.31,12,42.42,9.84,24.7,10.73,7.5,16.72c-1.87.66-3.66,1.56-5.46,2.4A6,6,0,0,0,.89,20.17l4.17,4.74-.77.68A55.79,55.79,0,0,1,.05,20.72c-.25-.36.45-1.91,1.09-2.31A26.56,26.56,0,0,1,6.27,16c13.8-5,27.7-9.79,42.1-12.73C64.43-.06,80.64.54,96.83,2.34,110.42,3.86,124,5.38,137.6,7c2.52.31,4.35-.24,5.78-2.4a22.78,22.78,0,0,1,3-3.49c.52-.52,1.52-1.28,1.9-1.09a3.08,3.08,0,0,1,1.49,2,60.09,60.09,0,0,1,.34,6.05c3.13.34,6.41.77,9.7,1,6.14.44,12.29.89,18.45,1.1,9.32.33,18.66.34,28,.71,20,.8,40,1.37,60,2.81,7.39.53,14.65,3.15,21.9,5.06,1.37.36,2.44,1.86,3.65,2.84-1.32.79-2.55,1.94-4,2.33a145.55,145.55,0,0,1-33.18,5.3c-18,.64-36,1.89-54,1.9a313,313,0,0,1-52.46-4.41c-2.61-.44-3.86-.17-4.91,2.7-4.35,12-9.31,23.79-13.62,35.81-4.1,11.42-7.75,23-11.45,34.56q-11.25,35.21-25,69.52C83.06,194.64,73.08,220,63,245.32,52.36,271.9,41.66,298.43,31.06,325c-.45,1.11-.24,2.49-.38,4.3-1.6.24-2-.94-1.46-2.7.9-2.75,2.17-5.38,3-8.15,4.65-15.61,9.36-31.21,13.78-46.89,6.86-24.4,13.27-48.93,20.32-73.28,6.26-21.66,12.58-43.35,19.87-64.68C93.83,111.25,102.43,89.22,111,67.2,116.74,52.63,123.18,38.34,129.42,23.61Z"/><path d="M296.48,109.23c.58,6.72-1.08,12.75-5.74,17.77-5,5.42-11.33,7.1-18.51,6.44a22.53,22.53,0,0,0-6.14.24c-9.42,1.81-16.23-4.83-14.64-14.34a17.2,17.2,0,0,0-.2-3.18c0-1.6,0-3.2,0-4.8-.11-11.46,8.86-16.12,16.56-21.4a17.37,17.37,0,0,1,19.53-.64c6.43,3.79,8.8,10,9.15,17.2C296.52,107.42,296.48,108.32,296.48,109.23Z"/></svg>