<svg xmlns="http://www.w3.org/2000/svg" viewBox="0 0 1170.34 522.17"><path d="M296.47,117.94c0,5.32.08,10.32,0,15.32-.44,23.61-.59,47.24-1.46,70.84-2,53.68-12.22,106.15-24.58,158.2-8.39,35.34-18.24,70.33-27.16,105.55-3.69,14.57-6.65,29.33-9.92,44-.87,3.9-2,7.6-6.12,9.39-4.53,2-9.36.82-12.78-4.27A205.36,205.36,0,0,1,204,498.7c-9.45-17.72-14.87-36.91-20.53-56.06-12.11-41-24.2-82-37.15-122.79S119.11,238.93,101.45,200c-7.21-15.91-15.51-31.36-24.09-46.58-3.31-5.89-8.29-11.08-13.35-15.66-6.32-5.72-11.71-5.64-18.93-1C34.35,143.57,27.22,153.41,22.37,165c-5.31,12.65-6.61,25.54-1.62,38.71C26.46,218.74,40.94,224,54.53,221.8a17.51,17.51,0,0,0,5.3-1.89c5.13-2.74,6.13-6.11,3.58-11.33-.57-1.17-1.21-2.31-1.93-3.68,5,2.43,6,9.83,2,13.77C58.88,223.16,53,224.14,47,223.48A62.76,62.76,0,0,1,17.41,212C6.86,204.6,2.47,193.52.6,181.22c-3.92-25.92,11.68-58.13,34.47-71.08,15-8.51,29.84-7.71,44.36,1.19,10,6.13,17.48,14.81,23.94,24.42,13,19.32,22.94,40.28,32.27,61.52,13.22,30.12,24.88,60.86,35.31,92q14.31,42.76,27.6,85.87c8.53,27.78,16.58,55.71,24.35,83.71,2.49,9,3.43,18.38,5.07,27.59a4.87,4.87,0,0,0,1.09,2.65c.6-1.68,1.25-3.35,1.78-5.05,10.09-32.33,21-64.45,30-97.08A1040.23,1040.23,0,0,0,286,273.84c2.9-18,4.58-36.2,6.35-54.36,3.15-32.33,3.47-64.76,2.64-97.21-.09-3.45-.82-5.51-4.42-7-18.09-7.47-31.35-20.57-41.49-37-3.79-6.14-7.73-12.35-10.31-19-6.28-16.24-2.91-31.11,8.52-44.07A100.79,100.79,0,0,1,258.81,4.14c3.47-2.85,7.6-4.63,12.33-4,6.34.82,9.56,5.33,11.92,10.56,4.79,10.59,6.75,22,7.91,33.37,1.62,15.84,2.63,31.75,3.82,47.63.39,5.25.29,5.25,5.6,6.27a118,118,0,0,0,40.24.36C362.77,94.93,384,88.2,405.17,81.16,429.83,73,454.66,65.26,480.33,61c14.24-2.36,28.74-3.48,43.16-4.46,24-1.64,47.57,2,70.88,7.4a77.11,77.11,0,0,1,11.91,4.31c1,.4,1.55,1.7,2.3,2.59-1,.65-1.83,1.7-2.87,1.88-3.83.67-7.71,1.11-11.58,1.53-17.49,1.88-35,3.36-52.45,5.68-18.32,2.43-36.78,4.58-54.72,8.8-25.35,6-50.28,13.68-75.38,20.7-22.33,6.25-44.73,12-68,13.93A124.53,124.53,0,0,1,296.47,117.94Zm-2.85-21.67c-.21-3.85-.27-7-.57-10.22C291.3,67.67,290,49.24,287.48,31c-1-7.68-4-15.23-7.06-22.44-2.71-6.39-8.17-8.47-14.25-6.94-8.38,2.12-16,10.21-16.71,18.9a270.94,270.94,0,0,0-1.32,29.31c.27,12.32,4.72,23.33,14.87,30.82,6.38,4.71,13.71,8.18,20.76,11.94C286.66,94.09,289.92,94.9,293.62,96.27Z"/><path d="M1083.62,226.47c-2.21,9.24-4.43,18.07-6.42,26.94-3.89,17.38-7.29,34.88-11.55,52.16-7.59,30.82-15.27,61.63-23.66,92.23-6.15,22.44-13.3,44.61-20.41,66.76-1.75,5.45-5,10.42-7.77,15.5-.61,1.1-2.13,1.7-3.23,2.54-.6-1.22-1.73-2.45-1.72-3.67,0-9.55-.85-19.3.73-28.62,4.15-24.36,8.88-48.66,14.38-72.75,5.16-22.58,11.55-44.88,17.52-67.27,7.91-29.61,16.3-59.08,27-87.83.15-.4.22-.84.42-1.65-4-1.61-8-3.34-12-4.69-.64-.22-2.16,1.07-2.73,2-7.45,12.16-14.41,24.63-22.24,36.52-32.25,49-64.77,97.74-103.71,141.85-8.48,9.59-16,20-24,30.07-12.85,16.19-29.74,27-47.88,36.24a24.26,24.26,0,0,1-2.47,1c-7.27,2.7-12.81,1-15.5-6.32A123,123,0,0,1,832,432.73c-3.81-26.45-7-53-10.39-79.51a6.49,6.49,0,0,0-.48-1c-.93.91-1.79,1.67-2.57,2.51l-50.1,54.82c-17.16,18.78-36.65,34.84-57.67,49.1-3.59,2.44-7,5.15-10.44,7.82-6.3,4.91-13.21,8.29-21.33,8.65-9.62.43-16.71-5.08-17.63-13.63a15.61,15.61,0,0,1,14.32-17.15c9.65-.63,13.11-7.1,16.05-14.17,3.14-7.52,3.1-15.69,2.71-23.74-.66-13.64-3.47-26.94-6.68-40.15a45.33,45.33,0,0,0-1.83-5.72q-7.71-20.1-15.52-40.15a49.28,49.28,0,0,0-3.36-6.89c-1.71-2.92-3.7-3.29-6.22-.91a71,71,0,0,0-6.9,7.7c-14.93,18.89-29.17,38.36-44.83,56.62a1021.64,1021.64,0,0,1-80.92,83.6c-7.37,6.84-15.46,12.82-25.46,15.5-10.37,2.78-17.18-.06-21.58-9.81A71.71,71.71,0,0,1,476.34,422c4.28-21.64,9.31-43.13,13.81-64.73,1.09-5.21,1.43-10.58,2-15.89a7,7,0,0,0-1-4.1c-1,1.55-2,3.08-2.95,4.65-18.32,30.43-36.36,61-55.05,91.23-9.6,15.53-21.36,29.43-36.79,39.71-12.62,8.4-26,15.33-41.23,17.18-5.83.71-11.92-.26-17.83-1-2.21-.28-4.24-2-6.08-3.76.29,0,.66-.23.84-.11,9.6,6.14,19.91,5.09,30.05,2.37a107.71,107.71,0,0,0,62.5-44.34c14-20.51,26.76-41.86,39.79-63,8.24-13.38,15.93-27.09,24-40.6.84-1.41,2.35-2.42,3.55-3.62.46,1.71,1.55,3.53,1.3,5.13-1.84,11.52-3.78,23-6,34.47-3.47,17.78-7.75,35.43-10.62,53.3a63,63,0,0,0,5.53,36.88c4.38,9.42,10.41,11.94,20.45,9.19,9.86-2.7,17.91-8.62,25.1-15.47,33-31.47,65.37-63.59,93.85-99.34,11.33-14.21,22.3-28.7,33.51-43a38.28,38.28,0,0,1,5.56-5.75c2.67-2.23,5.19-1.95,7.16.94a38.53,38.53,0,0,1,3.91,7.71c4.4,11.44,8.43,23,13.09,34.35A62.4,62.4,0,0,0,692.65,368a114.41,114.41,0,0,1,22.54,57.45c0,.19.2.35.62,1,2.85-2.94,5.68-5.69,8.33-8.62,15-16.51,29.65-33.32,45-49.53,15-15.88,30.64-31.16,46-46.73,1.41-1.42,2.64-3,3.92-4.56,4.29-5.21,9.79-7.95,16.48-6.62,7.41,1.46,11.21,6.92,12.83,13.9,2.29,9.84,1.36,19.68-.08,29.56-3.34,23-7.82,46-8,69.31-.09,9.79.83,19.58,1.32,29.37a13.18,13.18,0,0,0,.46,2.63c1.71,6.77,5.41,9,11.87,6.39,13.72-5.59,26.69-12.86,37.2-23.29,9.45-9.38,17.63-20.05,26.23-30.27,12.56-14.94,25.6-29.51,37.32-45.08,18.22-24.22,36-48.81,53-73.89,15.7-23.13,30.16-47.11,45.15-70.72.59-.92,1.06-1.91,1.69-3.06L1035.56,207A288.23,288.23,0,0,1,993,184a19.31,19.31,0,0,1-3.86-3.16,2.88,2.88,0,0,1-.48-2.61c.38-.68,1.61-.88,2.83-.63l-2.2,1.55a27.9,27.9,0,0,0,13.93,8.45c16.19,4.15,32.44,8,48.67,12,2.6.64,5.22,1.2,7.77,2,2.06.64,3.2.08,4.31-1.79,15.83-26.51,31.83-52.91,47.56-79.47,5-8.43,9.32-17.25,14-25.87a2.85,2.85,0,0,1,1.82-1.39c-16.58,37.69-27.4,77.22-38.91,116.75,7.57,2.69,14.95,5.15,22.22,7.91,18.46,7,36.74,14.41,53.79,24.51a16,16,0,0,1,4,3c.94,1.07,1.33,2.61,2,3.93-1.33.63-2.7,1.86-4,1.77-4.43-.32-9-.55-13.19-1.8-16.85-5-33.62-10.36-50.37-15.73C1096.56,231.4,1090.46,229,1083.62,226.47Zm-19.71-23.8c2.81.79,5.52,1.42,8.14,2.33s3.52.14,4.67-2.31c7-15,13.9-30.13,21.69-44.76a423.2,423.2,0,0,0,21.28-47.87,5.16,5.16,0,0,0,.2-1.1Z"/><path d="M534.39,264.32c0,12.17-10.5,23-21.57,23.1a14.57,14.57,0,0,1-6.43-1.55c-10.76-5.4-17-14.14-18.08-26.18a16.35,16.35,0,0,1,1.8-8c4.13-8.63,12.06-11.87,20.82-12.84,2.69-.31,6,1.53,8.44,3.17,3,2,5.5,4.8,8.17,7.3A21.46,21.46,0,0,1,534.39,264.32Z"/><path d="M872.4,242.34c.18,5.67-1,10.69-5.29,14.67-3.19,3-7,4.76-11.28,3.57-4.52-1.26-9.35-2.64-13.05-5.33-5.65-4.12-6.91-14.21-3.56-21.25a48.28,48.28,0,0,1,4.76-8c3.41-4.6,8-7.09,13.88-6.15,7.25,1.16,11.21,6.08,13.14,12.68C871.93,235.65,872,239.06,872.4,242.34Z"/></svg>