<svg xmlns="http://www.w3.org/2000/svg" viewBox="0 0 114.03 172.3"><g id="Layer_2" data-name="Layer 2"><g id="Layer_1-2" data-name="Layer 1"><path d="M2,66.83c-.88,35.32,3.07,70.33,2.49,105.42l-.8.05a8.07,8.07,0,0,1-.26-1.37c-.55-20-1.13-40.06-1.62-60.1C1.45,96.77,1.23,82.7.89,68.64A10.86,10.86,0,0,0,0,65.72c.37-1,1.16-2.18,1.19-3.36Q1.85,33.59,2.33,4.82c0-1.56-.15-3.12-.24-4.68L2.88,0A11.54,11.54,0,0,1,3.3,1.88a463.89,463.89,0,0,1-.72,51.4c-.22,3.57-.36,7.16-.35,10.74,0,.57.9,1.47,1.54,1.64A16.17,16.17,0,0,0,7.83,66c17.74.06,35.46.3,53.06-3,10.54-2,21.32-2.7,32-3.79,1.34-.14,2.85.83,4.22,1.43a16.55,16.55,0,0,1,4.51,2.81c-.59-.07-1.35.08-1.75-.24-5.22-4.19-11.17-2.73-16.9-2-13.09,1.63-26.1,4.2-39.23,5.13s-26.58.37-39.88.46Z"/><path d="M114,169.07c-.51-2.78-1.23-5.54-1.49-8.35-.8-9-1.53-18-2.11-27-.91-14.37-1.8-28.75-2.47-43.13-.7-14.91-1.1-29.82-1.67-44.73-.42-10.82-.9-21.63-1.33-32.45a6.55,6.55,0,0,1,.55-3.07C108,63.26,109,116.26,114,169.07Z"/></g></g></svg>