<svg xmlns="http://www.w3.org/2000/svg" viewBox="0 0 161.79 181.43"><g id="Layer_2" data-name="Layer 2"><g id="Layer_1-2" data-name="Layer 1"><path d="M150.49,160.37c-1.91-9.11-3.85-17.86-5.54-26.65-2.85-14.75-5.5-29.54-8.31-44.3-2.25-11.81-4.5-23.63-7-35.4-1.52-7.26-4.06-14.36-5-21.69-1.2-9.07-2.34-18.26-1.31-27.49.21-1.87.21-4.21,2.47-4.75s3.42,1.64,4.07,3.33a135.56,135.56,0,0,1,5.54,16c2.14,8.61,3.84,17.35,5.4,26.09.88,5,1.19,10,1.64,15.07.72,8,1.46,16,2,24,.51,7.8,1.09,15.61,1,23.42-.13,18.51,2.32,36.58,8.63,54,1.81,5,4.53,9.68,6.93,14.46.67,1.33,1.23,2.54.13,3.81a2.87,2.87,0,0,1-4,.52,20.91,20.91,0,0,1-3.92-3.15c-14.95-15.83-30.43-31.2-43.54-48.68C98.29,113.76,84.68,100.5,71.28,87c-17.89-18-34.62-37.14-48.55-58.52-4.65-7.13-9.36-14.2-14.2-21.2C7.09,5.18,5.4,3.09,2.16,2.45c-.29,3.76-.88,7.32-.77,10.86.29,8.8.92,17.59,1.38,26.38.45,8.5.85,17,1.29,25.5,1.17,22.72,0,45.4-1.46,68.06a276.91,276.91,0,0,0-.3,35.63c0,.58.18,1.16.35,2.21,1-1.55,1.74-2.71,2.48-3.87l.7.42-3.45,6.1-.66-.17a15.15,15.15,0,0,1-.27-1.64c-1.42-22.56-.05-45.06,1-67.6.73-16.22.36-32.51-.08-48.75C2,43.64.58,31.73.05,19.79-.19,14.61.52,9.39.93,4.2,1.14,1.42,2.38.79,4.74,2.31a66,66,0,0,1,6.87,5c13.14,11,26.32,22.08,39.33,33.29,18.44,15.89,36.64,32.11,51.14,51.81,16.18,22,31.72,44.44,47.54,66.7C149.84,159.43,150.05,159.74,150.49,160.37Z"/></g></g></svg>