<svg xmlns="http://www.w3.org/2000/svg" viewBox="0 0 106.82 174.45"><defs><style>.cls-1{fill:#fff;}</style></defs><g id="Layer_2" data-name="Layer 2"><g id="Layer_1-2" data-name="Layer 1"><path d="M22.79,89c-2.94-3.39-5.92-6.48-8.5-9.88-5-6.63-8.94-14-8.66-22.47C6.05,44,11.5,33.54,21.7,25.8c3-2.26,6.11-4.33,9.18-6.49a35.74,35.74,0,0,1,19.23-6.7,128.09,128.09,0,0,1,15.55-.07c3.19.24,6.29,1.65,9.78,2.63,2.89-4.87,7.74-8.32,12.82-11.46A46.37,46.37,0,0,1,94,.81a10,10,0,0,1,7.82,0c1.64.64,3.35,1.08,5,1.61l-.21.76c-1.59-.43-3.22-.74-4.76-1.31C99.64,1,97.42.49,95.17,1.4,88,4.27,81.74,8.32,77,14.54a10.85,10.85,0,0,0-.71,1.18,1.84,1.84,0,0,0-.1.47c6.62,5.94,7.13,14.19,8.23,22.18.29,2.1-.28,4.23-2.37,5.34s-4,.1-5.72-1.12c-5-3.55-7.24-10-5.45-16.56.89-3.21,2.27-6.29,3.5-9.62a16.49,16.49,0,0,0-8.72-3.1A80,80,0,0,0,43.1,14.59a8.61,8.61,0,0,0-1.76.47C25.11,22.32,11.24,31.84,7,50.69,5.49,57.61,7.06,64,9.92,70.27,13,77,17.74,82.48,23,87.54a2.75,2.75,0,0,0,2.39.45c10.18-4.06,21-4.55,31.69-5.9a12.07,12.07,0,0,1,6.53,1.57c4,2,4.85,5.82,2.77,9.74-2.92,5.49-7.51,7.86-13.7,7.83-10.17,0-19.33-2.75-26.83-9.86A3.53,3.53,0,0,0,21,90.75C9.92,97,2.37,105.64,1.4,118.9c-.21,2.74-.43,5.48-.45,8.23,0,4.46,2.05,8,5,11.2s5.47,6.57,8.39,9.67a14.39,14.39,0,0,0,4.88,3.55c7.5,3,15.32,5.32,22.29,9.59,2.72,1.67,5.68,1.47,8.68,1.27s5.95-.29,8.93-.37c16.88-.45,30.17-7.89,40.47-21,2.33-3,4.3-6.23,6.43-9.35l.58.21c-.4,1-.74,2.07-1.22,3-6,12.1-15,21.51-26.23,28.87-4.39,2.89-9,5.53-13.61,8-5.42,2.92-11.15,3.19-17.14,1.75a40.84,40.84,0,0,0-9.73-1.09,23.88,23.88,0,0,1-18.14-7.4c-1.6-1.65-3-3.44-4.63-5.09-2.27-2.36-4.47-4.82-6.95-6.93A18.88,18.88,0,0,1,2.23,140.5c-.59-4.69-2-9.32-2.16-14-.27-6.42.17-13.08,3.08-18.84a37.74,37.74,0,0,1,16.6-17.22C20.75,89.92,21.78,89.47,22.79,89Zm2,.29c.83.78,1.42,1.35,2,1.9,7.93,7.12,17.37,9.49,27.79,9,5.76-.25,9.28-3.44,11.47-8.41,1-2.34.65-4.77-1.42-6.21-1.78-1.25-4.07-2.46-6.14-2.47-4.31,0-8.63.79-12.94,1.26C38.62,85.13,31.73,86.31,24.82,89.28ZM75.71,16.8c-2.61,4.57-4.5,8.84-4.48,13.59,0,5.2,2.06,9.53,6.8,12.2,2.79,1.56,5,.42,5.46-2.75a5.5,5.5,0,0,0,.07-1.14,48.15,48.15,0,0,0-4.18-17.25C78.59,19.82,77.1,18.52,75.71,16.8Z"/><path class="cls-1" d="M75.71,16.8c1.39,1.72,2.88,3,3.67,4.65A48.15,48.15,0,0,1,83.56,38.7a5.5,5.5,0,0,1-.07,1.14C83,43,80.82,44.15,78,42.59c-4.74-2.67-6.77-7-6.8-12.2C71.21,25.64,73.1,21.37,75.71,16.8Z"/></g></g></svg>