<svg xmlns="http://www.w3.org/2000/svg" viewBox="0 0 184.17 271.31"><g id="Layer_2" data-name="Layer 2"><g id="Layer_1-2" data-name="Layer 1"><path d="M2.77,147.34C12.85,143.26,22.9,143.89,33,146a46.47,46.47,0,0,0,7.5,1c6.57.27,13.14.45,19.71.48,9,0,18.06,0,27.08-.18,14.44-.29,28.89-1.13,43.32-1,11.21.1,22.41,1.39,33.63,2,3.53.2,7.09,0,10.64,0l.1,1a24.54,24.54,0,0,1-4.56.53c-5.18-.35-10.37-.7-15.51-1.4-10.12-1.37-20.27-1.39-30.44-1.13-10.32.26-20.64.64-31,.82-11.93.2-23.87.08-35.79.41-11.07.3-21.94-1.07-32.81-2.87a40.63,40.63,0,0,0-21.15,2.36c-.72.27-1.38,1.73-1.42,2.66C1.8,164.54,1,178.37,1,192.2c-.11,25.39.22,50.78.36,76.17v2.87l-.69.07a22.54,22.54,0,0,1-.29-2.44C.2,249.45,0,230,0,210.59c0-14.9.24-29.81.49-44.72.07-4.58.58-9.15.77-13.73a18,18,0,0,0-.55-3.58,18.1,18.1,0,0,0,1.14-3.38q4.71-34.28,9.29-68.57c2.41-18.11,4.56-36.24,4.52-54.56,0-6,.42-12.07.78-18.09A7.72,7.72,0,0,1,18,0c-.35,3.25-.9,6.5-1,9.76-.42,10.39-.1,20.84-1.14,31.16-1.93,19.23-4.58,38.39-7,57.57-2,15.54-4,31.07-6.05,46.6C2.71,145.69,2.77,146.31,2.77,147.34Z"/><path d="M167.56,271c.45-3.3,1-6.59,1.34-9.9,1.43-15,3.1-29.94,4.09-44.95,1.11-16.85,1.32-33.77,2.41-50.62,1.13-17.39,2.8-34.73,4.32-52.09,1.93-21.94,3.48-43.89,3.32-65.94-.07-9.63.3-19.27-1.35-28.82-.53-3.08-1.28-6.13-1.92-9.19-.14-.69-.2-1.4-.36-2.61l3.75,2.2-2.29.62c4.68,18.67,3.12,37.66,2.77,56.57-.49,25.94-3.78,51.67-5.87,77.5-1.17,14.39-1.75,28.83-2.57,43.26-1.07,18.84-1.94,37.7-3.25,56.53-.59,8.45-2,16.83-3.11,25.24a14.54,14.54,0,0,1-.66,2.29Z"/></g></g></svg>