<svg xmlns="http://www.w3.org/2000/svg" viewBox="0 0 182.35 248.41"><g id="Layer_2" data-name="Layer 2"><g id="Layer_1-2" data-name="Layer 1"><path d="M105.55,117.92c-4.1,10-8.28,19.92-12.28,29.94C84.35,170.18,75.15,192.41,66.82,215,63.1,225,61.19,235.76,58.45,246.2c-.18.7-.38,1.4-.57,2.1l-.69.11a26.74,26.74,0,0,1-1.34-3.65C53.31,232.84,51,220.88,48.3,209c-6.54-29.08-12.91-58.21-20-87.17C21.9,95.34,14.59,69.06,7.81,42.64,5.33,33,3.29,23.25,1,13.55a27,27,0,0,1-1-5.3c3.55,9.46,4.83,19.52,7.44,29.23S12.72,57.17,15.33,67s5.27,19.7,7.79,29.58,4.93,19.79,7.32,29.71,4.71,19.84,7,29.77,4.62,19.86,6.81,29.82,4.28,19.93,6.36,29.91,4.08,19.94,6.11,29.9h.75c.25-1,.53-2,.73-3.09C61.61,225,68,208.49,74.93,192.05,82.27,174.68,88.8,157,95.74,139.43c2.85-7.2,5.93-14.31,8.71-21.54a8.76,8.76,0,0,0,.32-4.84c-3.57-15.68-7.46-31.3-10.88-47a206.76,206.76,0,0,1-5-40.35A48.63,48.63,0,0,1,91.71,7.15c2.61-6.8,7.79-8.88,14.38-5.68,5,2.44,8.43,6.54,11,11.41a61.37,61.37,0,0,1,6.56,32.75c-1.44,23.42-7.74,45.7-16.25,67.42a8.83,8.83,0,0,0-.41,5.33c7.85,37,16.14,73.84,21.64,111.26a15.72,15.72,0,0,0,.53,1.85c1-7.59,1.83-15,3.09-22.28C137.35,179.6,142.46,150,150.71,121c6.6-23.14,13.12-46.3,19.28-69.57,3.31-12.5,5.75-25.23,8.66-37.84.89-3.85,2-7.63,3.08-11.45l.57.05a7,7,0,0,1,0,1.71c-6.73,25.39-11.58,51.24-19,76.47q-10.16,34.35-18.75,69.18c-3.79,15.46-6.36,31.24-9.09,46.95-2,11.62-3.47,23.34-5,35a57,57,0,0,0-.05,7.62l-.75,0c-3.61-20.27-7-40.59-10.9-60.8s-8.37-40.36-12.59-60.53Zm.56-4.39c.37-.78.66-1.31.88-1.86a241.93,241.93,0,0,0,11.35-36.86c2.92-13,5.32-26,4.22-39.36a54.23,54.23,0,0,0-8-25.13c-2.6-4.08-6-7.35-10.81-8.82-4.94-1.53-8.79,0-10.61,4.86a47.33,47.33,0,0,0-2.8,11.07C89,28.33,90.42,39.15,92,49.92c3,21.13,8.46,41.73,13.6,62.39A9.29,9.29,0,0,0,106.11,113.53Z"/></g></g></svg>