<svg xmlns="http://www.w3.org/2000/svg" viewBox="0 0 149.38 263.53"><g id="Layer_2" data-name="Layer 2"><g id="Layer_1-2" data-name="Layer 1"><path d="M149.14,12c0,.52.12,1,.12,1.56,0,15.13.31,30.27-.06,45.39-.36,14.59-1.32,29.16-2.18,43.73-.84,14.11-2.08,28.2-2.8,42.31-1,19.87-2.74,39.65-7.42,59a88.06,88.06,0,0,1-15.56,32.75,64.69,64.69,0,0,1-43.32,25.55,125.14,125.14,0,0,1-16.41,1.17c-4.61.05-8.77-1.88-12.71-4.19-21.88-12.79-36.32-31.72-45.25-55.08-3.45-9-3.64-18.47-2.44-28a50.28,50.28,0,0,0-.34-10.95A209.8,209.8,0,0,1,.72,130c1-13.74,1.26-27.47,1-41.25-.2-10.91.53-21.84.76-32.77.3-13.75.52-27.51.76-41.26a31.78,31.78,0,0,0-.11-4.58,18.78,18.78,0,0,0-1-3.88A8.22,8.22,0,0,1,2.31.07L3.07,0c.21,1.37.55,2.73.63,4.11,1.21,19.57.47,39.1-.63,58.66-.65,11.66-.15,23.39-.38,35.08-.21,10.61-.52,21.23-1.12,31.83-.78,14.07-1.21,28.13.93,42.1.5,3.29,2.4,6.38,3.77,9.52a82.23,82.23,0,0,0,18.59,27c3.6,3.42,6.64,7.41,10.2,10.87a63.35,63.35,0,0,0,10.11,8.58c9.63,6.06,19.54,11.69,29.35,17.48,8.85,5.21,17.73,4.5,26.78.39a51,51,0,0,0,22.8-19.47c7.87-12.4,12.15-25.86,14.66-40.19,2.64-15,3.69-30.14,4.55-45.32.64-11.37,1.8-22.7,2.52-34.06.65-10.14,1-20.3,1.51-30.45.25-4.81.85-9.61.85-14.42,0-12.84-.28-25.68-.36-38.52,0-3.43.3-6.87.49-10.3a3.52,3.52,0,0,1,.31-.95Z"/></g></g></svg>