<svg xmlns="http://www.w3.org/2000/svg" viewBox="0 0 128.16 172.41"><g id="Layer_2" data-name="Layer 2"><g id="Layer_1-2" data-name="Layer 1"><path d="M127.94,4.77c-4.11-.53-8.21-1.22-12.33-1.56-9.68-.78-19.36-1.8-29.06-2-16.12-.3-32.26-.16-48.38.06-5.78.08-11.54.93-17.31,1.42-3.65.31-5.92,2.41-6.48,5.85A182.86,182.86,0,0,0,12,27C11.14,41,10.68,55,10,68.92c-.08,1.64.47,2.52,1.93,2.72,3.6.47,7.22,1.22,10.81,1.11,5.44-.16,10.86-1,16.29-1.48,7.9-.64,15.81-1.57,23.72-1.61,7.56,0,15.12.86,22.68,1.45,4.08.32,8.15.74,12.19,1.36,2,.3,4.84.36,5,3,.17,2.86-2.77,3.29-4.8,3.68-5.17,1-10.41,1.77-15.65,2.33-10.53,1.11-20.88-.88-31.27-2.14A79.29,79.29,0,0,0,40.38,79a49,49,0,0,1-18-3.25c-3.95-1.5-8.15-2.31-12.55-3.51-.28,3.3-.53,6.4-.79,9.51-1,12.06-2.18,24.11-2.9,36.19a46,46,0,0,0,1.26,11.64c1.43,7.06,2.59,14.1,1.29,21.31a11.27,11.27,0,0,0,0,1.66c3.82-.25,7.51-.55,11.21-.74,9.62-.51,19.26-.76,28.86-1.51,16.68-1.31,33.19,1.48,49.8,1.83,4.62.1,9.21,1.62,13.8,2.58a7.93,7.93,0,0,1,3.26,1.39,4.88,4.88,0,0,1,2,2.93,3.69,3.69,0,0,1-2,2.61,23.15,23.15,0,0,1-6.06,1.93c-9,1.44-18,2.7-27,4.05-6.15.92-12.27,2.17-18.45,2.75-13,1.24-26,2.76-39,1.75a99.16,99.16,0,0,1-16.55-3,14.73,14.73,0,0,1-6.13-3.94c-2.84-2.79-2.92-5.85-1-9.34a3.48,3.48,0,0,0,.43-2.33c-2.39-8.51-1.62-16.9,1-25.19S5.21,111.5,6.07,103C7,94,7.7,84.87,8.54,75.79c.22-2.3.58-4.51-1.91-6-.52-.32-.52-1.51-.76-2.3l.75-.19,1.51,2.58.61-.07a18,18,0,0,0,.41-2.29c.71-14.9,1.28-29.82,2.14-44.71A108,108,0,0,1,13.37,8.39a7.88,7.88,0,0,1,7.39-6.72c4-.45,8-1.11,12-1.16C51.91.25,71.11-.27,90.29.17c12.07.28,24.11,2.08,36.16,3.23a7.66,7.66,0,0,1,1.71.62Z"/></g></g></svg>