<svg xmlns="http://www.w3.org/2000/svg" viewBox="0 0 147.67 233.35"><g id="Layer_2" data-name="Layer 2"><g id="Layer_1-2" data-name="Layer 1"><path d="M115.34,35.36c-7.21-.08-9.86,5.19-12.28,10.43-3,6.45-5.12,13.2-3.87,20.46C101,77,112.08,84.48,122.79,82.39a29,29,0,0,0,23.8-27.77,74.44,74.44,0,0,0-4.12-29c-4.86-13.32-14.82-21.11-28.33-24.41C109.58.14,105,1.12,100.72,3.17,83.69,11.4,66.34,30,69.21,57.33c1.36,13,5.86,24.67,11.89,36,9.23,17.35,17.82,35,23.51,53.89,3.28,10.89,6.19,21.87,6.22,33.35,0,24.7-12.71,42.19-36.25,49.73-10.52,3.38-21.08,4.63-31.64.14C34,226.66,26.73,220.63,20,213.78c-2.36-2.4-4.7-4.84-7.19-7.12-7.47-6.8-11-15.54-12.46-25.26S1.91,163,5.84,154.52c1.77-3.82,3.7-7.59,5.81-11.23,9.25-15.9,28.52-24.57,46.25-20.63,8.74,1.93,15.84,6.84,21.81,13.4,9.61,10.58,15.67,22.83,15.93,37.26.22,12.58-5.52,22.56-16.37,28.77C65.93,209.73,49,209,37.38,196.47c-8.38-9.1-7.5-22.15-3.21-30.31a6,6,0,0,1,6-3.48,45.13,45.13,0,0,1,4.79.46c3.91.62,5.3,2.5,4.65,6.38a39,39,0,0,1-1.16,4.2l-.86-.21c.26-.94.52-1.87.77-2.8,1.11-4.16,0-6-4.21-6.54a10.94,10.94,0,0,0-4.56,0c-1.39.45-3.13,1.46-3.65,2.68-3,7.08-3.82,14.4.55,21.17a21.2,21.2,0,0,0,19.24,10.13,18.76,18.76,0,0,0,11.39-4.45,10,10,0,0,0,4.1-8.81c-.39-5.5-.44-11.06-1.36-16.47-1.28-7.51-5.12-13.91-10.31-19.46S47.8,141,40.19,142.46a34.83,34.83,0,0,0-19.34,10.36c-2.82,3-4.14,6.58-5.08,10.41-2,8.11-4.17,16.21-4,24.66a51.35,51.35,0,0,0,3.78,17.91,14.55,14.55,0,0,0,2.26,4c7.51,8.92,16.2,16.38,27.26,20.52,9.75,3.65,19.47,2.24,29.1-.79C87.27,225.4,97.78,218,104.35,205.6c5.26-9.92,6.46-20.59,5.2-31.52-2.4-20.72-9.58-40-18.41-58.73-4.5-9.55-9.46-18.9-14.2-28.34a80.77,80.77,0,0,1-8.8-33.3c-.65-15.82,4.9-29.1,16.25-40,5.17-5,10.77-9.34,17.55-12a22.91,22.91,0,0,1,17.48.08C132.73,7.16,141.67,16.45,145,30.69c2.45,10.54,4,21.13,1.17,31.85-3.24,12.29-16.47,22-28.58,21A21.13,21.13,0,0,1,98,60.18,45.52,45.52,0,0,1,104.52,41c1.62-2.69,3.69-5,6.72-6a17.2,17.2,0,0,1,3.9-.43Z"/></g></g></svg>