<svg xmlns="http://www.w3.org/2000/svg" viewBox="0 0 113.13 180.76"><g id="Layer_2" data-name="Layer 2"><g id="Layer_1-2" data-name="Layer 1"><path d="M113,12.53a10.41,10.41,0,0,1,.17,1.84c-.94,11-1.92,21.9-2.85,32.85-.77,9-1.62,18-2.19,27a422,422,0,0,1-6.3,53.31c-2,10.1-6,19.52-10.82,28.63A30.8,30.8,0,0,1,79.51,168c-7.39,4.62-15,8.93-23.4,11.38-12.51,3.63-23.25.23-32.42-8.62-8.15-7.86-13.32-17.65-17.46-28C1.93,131.92.61,120.54.16,109.11-.82,84.78,2.86,61,9.4,37.61c2.74-9.83,3.75-19.9,4.88-30a39.53,39.53,0,0,1,1-6C15.49.87,16.48.34,17.47,0c-2.15,1.9-1.7,4.53-2,6.8-1.7,13-2.72,25.94-1.75,39C15,63.5,15.94,81.2,19.17,98.68c1.81,9.82,3.6,19.63,7.44,28.9a66.21,66.21,0,0,0,12.77,19.94,35.66,35.66,0,0,0,6.72,5c1.92,1.25,4.2,2,6,3.36,5.86,4.37,12.27,4.18,19.07,3.2,8.19-1.18,13.65-5.41,18-12.4a94.57,94.57,0,0,0,13.19-38.93q2.76-23,5.23-46c1.44-13.64,2.66-27.3,4-40.95.26-2.78.41-5.56.61-8.35Z"/></g></g></svg>