<svg xmlns="http://www.w3.org/2000/svg" viewBox="0 0 153.92 258.78"><g id="Layer_2" data-name="Layer 2"><g id="Layer_1-2" data-name="Layer 1"><path d="M147.28,39.73a8,8,0,0,1-1.55-2.07c-5.8-18.79-19.09-29.59-37.38-34.88A47.79,47.79,0,0,0,87.64,1.17c-16.86,2.63-29,12-35.49,27.68-7.06,17-7.55,34.3.49,51.26,4.08,8.61,10.59,15.4,17.56,21.7,11,9.89,23.14,17.53,37.81,20.87,10.9,2.48,20.6,7.73,29.72,14.16,8.64,6.11,12.85,14.68,14.74,24.81,3.18,17,1,33.45-5.64,49.32-2.49,5.93-5.18,11.79-8,17.57-6.43,13.09-17.24,21-30.77,25.68-7.66,2.65-15.45,4.76-23.56,4.55a134.52,134.52,0,0,1-18.23-1.94c-7.09-1.16-14.17-2.59-21.13-4.39-8.28-2.13-15.13-6.9-21.28-12.74-4-3.79-8-7.61-12.19-11.17C4.25,222.26.16,214.35,0,204.71c-.06-4,.94-8,1.56-12,.09-.56.77-1,1.18-1.53.43.48,1.08.88,1.26,1.44,1.57,4.89,3.36,9.73,4.51,14.72,3.13,13.6,10.77,23.85,22.42,31.26A25.77,25.77,0,0,0,35.36,241c13,5,26.33,7.6,40.3,5.91a33.4,33.4,0,0,0,12.94-4.44c15.91-9.29,27.06-22.66,34-39.62A142.91,142.91,0,0,0,129,184.44c2.1-8.31,2-16.88.91-25.38a15.83,15.83,0,0,0-4.67-9.55c-6.42-6.26-12.64-12.76-19.49-18.51s-14.45-10.6-21.58-16c-9.84-7.5-19.13-15.64-26.82-25.41-9.51-12.07-12.54-26-11.31-41.07a65.06,65.06,0,0,1,5.66-22.61,50,50,0,0,1,18.43-21A30.86,30.86,0,0,1,86.67.06c12.23-.35,24.09.73,35,6.89a56.52,56.52,0,0,1,20.69,19.88c1.66,2.7,2.64,5.83,3.9,8.77.52,1.21,1,2.46,1.43,3.69Z"/></g></g></svg>