<svg xmlns="http://www.w3.org/2000/svg" viewBox="0 0 103.74 182.45"><g id="Layer_2" data-name="Layer 2"><g id="Layer_1-2" data-name="Layer 1"><path d="M7.19,173l-2.33-3.34-4.2,10,.86.47c1.13-1.65,2.25-3.31,3.37-5l.78.53-4.3,6.77-1-.18A18.08,18.08,0,0,1,0,179.36c.14-3.82.32-7.65.58-11.46.69-10.38,1.25-20.76,2.2-31.11,1.11-12.14,2.38-24.27,3.92-36.36a211.5,211.5,0,0,1,9-39.33c5.36-16.32,12.3-32,19.69-47.46a58.64,58.64,0,0,1,5.21-8.48c1.29-1.81,3.16-2.65,5.44-.74a24.61,24.61,0,0,1,1.24-2.85A9.72,9.72,0,0,1,48.74,0c.47.55.95,1.11,1.41,1.67a.57.57,0,0,1,.09.24c.94,4.57,3.56,8.19,6.49,11.7C64.09,22.46,68.8,32.8,72.63,43.5c5.2,14.52,10.54,29,14.9,43.79C91.57,101,94.7,115,97.65,129c2.45,11.66,4.14,23.48,6,35.26a16.81,16.81,0,0,1-.55,6.56c-.69,2.71-2.89,3.42-4.8,1.41a42.25,42.25,0,0,1-6.08-8.13c-7.43-13-12.72-27-17.48-41.15-2.35-7-4.5-14.12-6.66-21.21-.47-1.55-1.08-2-2.71-1.61-9,2.12-18.13,1.45-27.23.52-2.54-.26-5.09-.44-7.62-.81-1.87-.28-2.48.52-2.88,2.24-2.44,10.54-4.47,21.22-7.66,31.54-3,9.73-7.27,19.08-11,28.6a29.29,29.29,0,0,0-1.92,5C6.74,168.81,7.09,170.51,7.19,173ZM49,1.43l-.73,0c-.51,1.83-1.58,3.71-1.43,5.49,1,11.84-1.43,23.27-4.13,34.62C39,57.09,34.87,72.58,30.94,88.12c-.22.87-.39,1.76-.62,2.82l33.92-1.12c-.41-1.5-.69-2.65-1-3.77-5.39-17.51-10.8-35-13-53.3-.84-6.95-1.47-13.93-.15-20.86A19,19,0,0,0,49,1.43Z"/></g></g></svg>