<svg xmlns="http://www.w3.org/2000/svg" viewBox="0 0 167.77 266.5"><g id="Layer_2" data-name="Layer 2"><g id="Layer_1-2" data-name="Layer 1"><path d="M144.2,153.5c1.52,6.38,2.84,12.81,4.61,19.12,4.42,15.82,9.33,31.51,13.48,47.4,3.12,11.95,6.21,24,5.27,36.59-.15,2.14.39,4.34.14,6.94a17,17,0,0,1-2.19-2.13,55.82,55.82,0,0,1-10.44-26.36c-2.07-16.68-3.53-33.44-5.79-50.09-1.36-10-3.77-19.94-5.65-29.92-.24-1.26-.78-1.48-2-1.48-3,0-6-.52-8.92-.35a107.31,107.31,0,0,0-15.43,1.59c-9.91,2.08-19.69,1-29.63.42a296.65,296.65,0,0,0-35.28.26c-3.76.21-7.4,2.94-11,4.6-.53.25-.83,1-1.48,1.83-.51-1.75.45-2.36,1.43-3,6-4.21,12.75-5.42,19.84-5.07a127.5,127.5,0,0,0,30.32-2.24c5.86-1.13,12-1,18-1.31,8.31-.39,16.63-.6,25-.93,2.44-.1,4.87-.36,7.61-.58-.71-2.84-1.41-5.61-2.11-8.38-6.67-26.11-12.81-52.36-21.08-78.05-5.49-17.07-10.7-34.23-16.14-51.32a42.88,42.88,0,0,0-3.55-8.16c-1.58-2.77-3.75-2.71-5.52,0a29.54,29.54,0,0,0-2.46,4.9c-6.6,16-13.72,31.84-19.59,48.12-5.56,15.42-9.37,31.46-14.71,47-12.87,37.37-26.34,74.54-39.26,111.9-4.69,13.55-8.49,27.41-12.74,41.11-.87,2.83-1.94,5.59-3,8.65L4,263.53l.36.62L.36,266.5c-.25-.58-.39-.74-.35-.85,4.11-12.86,8-25.8,12.43-38.57C19.11,207.8,26.3,188.7,33,169.42q14-40.39,27.54-81c4.45-13.33,7.82-27,12.71-40.2C78.73,33.44,85.37,19,91.58,4.49c.9-2.11,2.07-4.4,4.74-4.49s3.85,2.36,4.71,4.42c1.56,3.73,2.93,7.55,4.12,11.42C113,41.41,121.1,66.91,128.51,92.61c5.07,17.61,9.16,35.51,13.68,53.29.42,1.62.62,3.27,2.9,3.45a2.52,2.52,0,0,1,1.64,1.62c.11.44-.72,1.19-1.21,1.72A6,6,0,0,1,144.2,153.5Z"/></g></g></svg>