<svg xmlns="http://www.w3.org/2000/svg" viewBox="0 0 231.79 218.31"><g id="Layer_2" data-name="Layer 2"><g id="Layer_1-2" data-name="Layer 1"><path d="M79.24,0c.79,1.32,1.43,2.3,2,3.33C92,23.54,100.74,44.64,109.16,65.91c6,15,13,29.68,18.49,44.87,5,13.67,8.46,27.86,12.72,41.79,5.5,18,11.11,35.89,16.67,53.84.09.28.24.55.44,1,.25-.31.49-.48.55-.7,4.69-16.34,11.53-31.87,18.24-47.42,13.48-31.23,24.41-63.37,35.13-95.62,5.82-17.51,12.87-34.61,19.37-51.89.12-.32.32-.61,1-.79a9.68,9.68,0,0,1-.4,1.94c-13.73,31.43-22.87,64.5-34.63,96.63-8.14,22.2-17.63,43.91-26.27,65.93-4.27,10.89-8,22-12,33-.15.42-.38.8-.85,1.75a31.48,31.48,0,0,1-1.24-2.91q-12.66-42-25.29-84c-4.46-14.78-10.81-28.8-16.83-43-7-16.42-13.43-33.06-20.54-49.42C89.64,21.47,84.69,12.36,80.1,3.08c-.19-.39-.47-.75-.92-1.45-1.58,5.7-3.11,11.05-4.54,16.43C63.09,61.76,47.33,104,30,145.68c-8.63,20.79-17.11,41.64-24.72,62.83a105.52,105.52,0,0,1-4.65,9.8L0,218a3.4,3.4,0,0,1,.19-1.18c5.09-8.84,7.67-18.69,11.43-28.07q9.84-24.54,19.92-49C49.73,95.48,65.7,50.42,77.6,4c.24-1,.55-1.91.86-2.86A7,7,0,0,1,79.24,0Z"/></g></g></svg>