<svg xmlns="http://www.w3.org/2000/svg" viewBox="0 0 146.76 155.97"><g id="Layer_2" data-name="Layer 2"><g id="Layer_1-2" data-name="Layer 1"><path d="M18.65,8.82c-.33,1.23-.67,2.46-1,3.69C10.42,40.39,5.88,68.77,3,97.36,1.37,113.84,1.55,130.49,1,147.07a22.71,22.71,0,0,0,.51,4.78c.23,1.21.5,2.66,2.72,1.21l-.1.82c-.55.32-1.2,1-1.62.87A2.35,2.35,0,0,1,1,153.33,45.77,45.77,0,0,1,0,144.49C.8,126.32,1.27,108.12,2.83,90,3.92,77.33,6.64,64.79,8.51,52.17A364.05,364.05,0,0,1,17.22,10.7,13.62,13.62,0,0,1,18.66,8c.95.54,2.18.85,2.81,1.64,4,5,7.68,10.3,11.82,15.2,9.26,11,18.37,22.15,28.23,32.6C69.26,65.64,77.91,73,86.38,80.54a144.76,144.76,0,0,1,19.55,20.88c9.93,13.1,20.26,25.89,30.35,38.87,2.3,3,4.28,6.15,6.43,9.22a4.87,4.87,0,0,0,1.89,1.71c-.55-4.11-1-8.25-1.67-12.35-2.22-13.16-5-26.25-6.68-39.49-1-7.7-4.2-14.67-5.53-22.16A65.76,65.76,0,0,1,129.62,64a65.27,65.27,0,0,0-2.86-21.68c-1.06-3.36-1.1-7.07-1.39-10.63-.39-4.72-.73-9.44-.79-14.17-.06-4.34.25-8.69.49-13a7.25,7.25,0,0,1,.74-2.63c1.08-2.32,3.05-2.58,4.3-.35A22.74,22.74,0,0,1,133,8.73c1.84,11.45,4.09,22.89,3.65,34.56-.18,4.94-1.14,9.84-.24,14.83A89.84,89.84,0,0,1,138,70.83a54.84,54.84,0,0,1-.87,12.74c-1.3,6.32-.69,12.49.38,18.67,1.87,10.74,4,21.44,5.9,32.18,1.19,6.6,2.25,13.23,3.33,19.85a5.71,5.71,0,0,1-.26,1.7c-.63-.14-1.44-.09-1.86-.46q-5-4.41-9.82-9c-13.77-12.92-27.29-26.14-43.28-36.44A44.75,44.75,0,0,1,78.33,97.19C72.74,88.79,67,80.47,61.85,71.81,58.19,65.66,55.39,59,52.17,52.57A99.24,99.24,0,0,0,38.92,32.81c-5.25-6.16-10-12.71-15.08-19.05-1.41-1.78-2.95-3.44-4.43-5.15Z"/></g></g></svg>