<svg xmlns="http://www.w3.org/2000/svg" viewBox="0 0 190.42 217.64"><g id="Layer_2" data-name="Layer 2"><g id="Layer_1-2" data-name="Layer 1"><path d="M189.1,12.41c.29,3.54.45,7.1.87,10.62,1.27,10.63-.5,21.1-1.36,31.64a458.5,458.5,0,0,1-11.18,68.23,443.24,443.24,0,0,1-15.57,50.74c-3.41,9.27-6.38,18.71-9.3,28.15-.67,2.19-.36,4.71-.42,7.08-.1,3.95-2.33,7.31-5.66,8.38a8.38,8.38,0,0,1-9.61-3.65,11.57,11.57,0,0,1-1.92-4.14,18.87,18.87,0,0,0-4.13-8.58c-13.71-17.34-23.75-36.81-32.75-56.87-5.16-11.5-9.73-23.18-12.81-36.17-.42,1.32-.67,2-.85,2.66-4.53,16.88-8.81,33.84-13.7,50.62-2.6,9-6.3,17.59-9.39,26.41-1.46,4.19-2.59,8.49-4,12.71a25.69,25.69,0,0,1-2,3.6,23.86,23.86,0,0,1-1.18-2.47c-6.67-21.75-13.7-43.38-19.89-65.26-10.76-38-21-76.19-31.41-114.32A124.94,124.94,0,0,1,.11,8.07,14.66,14.66,0,0,1,.65,2.24C1.05.73,2.3-.29,4.71.07-1,2.76.65,7.29,1.58,11.12c4.33,18,8.67,35.91,13.56,53.72Q27,108,39.53,150.91c4.84,16.64,10.23,33.11,15.38,49.66.11.35.27.69.62,1.57.56-1.27,1-2.11,1.3-3,3-8.29,4.25-16.87,5.11-25.62a159.94,159.94,0,0,1,10-41.94c3.77-9.8,7.68-19.55,11.56-29.31,1.14-2.87,3.32-3.76,5.81-1.92A21.32,21.32,0,0,1,94.56,106c11.43,18.1,23.06,36.07,33.9,54.52,4.65,7.94,7.56,16.9,11.27,25.39a3.47,3.47,0,0,0,1.13,1.57c.33-2.86.45-5.76,1-8.57,1.84-9.08,3.75-18.15,5.8-27.19,2.75-12.19,6.09-24.26,8.4-36.53,2.9-15.34,8-29.87,14-44.19q7.53-18,14.72-36.21c2.24-5.65,2.43-11.68,2.69-17.66.07-1.6.28-3.19.42-4.78Z"/></g></g></svg>