<svg xmlns="http://www.w3.org/2000/svg" viewBox="0 0 183.76 141.32"><g id="Layer_2" data-name="Layer 2"><g id="Layer_1-2" data-name="Layer 1"><path d="M69.4,131c2.46-7.6,4.9-15.21,7.38-22.8A40.22,40.22,0,0,1,86.83,92c3.3-3.29,6.58-6.62,10-9.75A67.68,67.68,0,0,0,109,67.93a31.13,31.13,0,0,1,2.09-2.57c-3.87-4.46-8.06-9.19-12.13-14a58.27,58.27,0,0,1-5.73-7.68c-2.64-4.46-4.93-9.13-7.31-13.75a10.71,10.71,0,0,1-1-3A5.42,5.42,0,0,1,85.28,25c.57.27,1.32.38,1.67.82a12.58,12.58,0,0,1,2.2,3.44c3.57,10.11,10.09,18.48,16,27.21,2.34,3.46,5,6.69,7.73,10.24,4.43-4.2,8.88-8.08,11.89-13.37A143,143,0,0,1,132.59,41a30.57,30.57,0,0,0,5.49-16c.27-3.78,1.67-6.65,5.26-8.16a6.6,6.6,0,0,1,7.56,1.61,6.43,6.43,0,0,1,.88,7.69c-7.65,12.32-14.53,25.2-25.39,35.24-3.19,3-6,6.36-9,9.52a1.6,1.6,0,0,0-.07,2.53q16.2,19.5,32.33,39.05c.09.11.26.15.6.34,1.14-2.45,2.38-4.86,3.39-7.36,2.42-6,4.83-12,7-18.12a15.24,15.24,0,0,0,.71-5.43c-.17-8.37,1.93-16.22,5.29-23.76,3.81-8.57,4.91-17.78,6.72-26.83.84-4.2,1.74-8.39,2.77-12.54.87-3.47,2.91-6.3,5.61-9.24,1.37,3.51,2.39,6.74,1.73,10.06-1.8,9-4,17.88-5.75,26.88-1.17,6.06-1.67,12.25-2.69,18.34-1,5.71-1.6,11.58-3.47,17-2.23,6.48-2.84,13.11-3.81,19.74-.54,3.71-.85,7.45-1.52,11.13A31.66,31.66,0,0,1,161,125.49a5.93,5.93,0,0,0-1.09,4.46c.63,5.39-2.63,10-7.86,10.61-4.35.54-7.91-1.56-10.45-5a91.74,91.74,0,0,1-7.55-11.22c-5.64-10.76-11.14-21.61-16.26-32.63-2.2-4.73-3.34-10-5-15.13-.56.7-1.22,1.49-1.85,2.31-4.91,6.35-9.83,12.69-14.68,19.08a8.22,8.22,0,0,0-.71,2.53c-2-.61-2.89,1.64-4,3.27a134.52,134.52,0,0,0-14.21,28.44,29.19,29.19,0,0,1-3.79,7.26c-2.15,2.91-4.8,2.28-6.57-.83-3-5.18-6.11-10.24-9.27-15.29-6.32-10.12-13.1-20-18.91-30.37a137.22,137.22,0,0,1-9.88-22.64C22.18,50.48,14.39,31.08,5.88,12,4.46,8.76,2.61,5.74,1,2.62.6,1.87.33,1.06,0,.27L.56,0c.25.37.52.73.75,1.11,6,10.09,10.35,21,14.46,31.91A121.46,121.46,0,0,0,34.46,65.49a171.9,171.9,0,0,1,22.78,39.38c3.55,8.38,7.21,16.7,10.83,25,.15.34.34.65.51,1Z"/></g></g></svg>