<svg xmlns="http://www.w3.org/2000/svg" viewBox="0 0 200.69 237.36"><g id="Layer_2" data-name="Layer 2"><g id="Layer_1-2" data-name="Layer 1"><path d="M11.3,66.61C4,62.68.92,56.13.14,48.25a25.62,25.62,0,0,1,3.4-15.72c9.39-16,22.81-27,41.09-31.2A54.81,54.81,0,0,1,76.74,3.86c7.68,2.93,11.44,8.66,11.39,16.9-.06,10.39-2.45,20.44-5.92,30.1-7.37,20.53-15.21,40.9-23,61.28-7.06,18.53-14.77,36.83-19.71,56.1-3.44,13.42-6,27-4.72,40.93a52.27,52.27,0,0,0,1.86,10.15c4.19,14.19,16.17,20.34,30.23,15.6,9.86-3.32,17.64-9.74,24.78-17,12.23-12.52,21.49-27.13,29.77-42.43,12-22.23,21.64-45.57,31.46-68.81,11.38-26.92,21.89-54.17,31.3-81.84.56-1.63,1.35-3.19,2-4.79l.89.32a33.92,33.92,0,0,1-.86,3.37c-4.5,12.21-9.1,24.39-13.52,36.62C164.53,83,158.45,106.38,153,129.88c-3.48,14.92-6.92,29.86-9.87,44.89-2.16,11-2.63,22.1.28,33.09a32.56,32.56,0,0,0,8.78,15.41c5.69,5.51,13.37,6.79,20.32,3,8.33-4.55,15.51-10.71,22.41-17.15,1.49-1.38,2.49-3.29,3.71-5,.42-.57.86-1.13,1.28-1.69l.81.29a21.25,21.25,0,0,1-.62,3.31c-2.88,8.2-8.69,13.8-16.19,17.75a45.46,45.46,0,0,1-19.78,5.39,16.06,16.06,0,0,1-11.87-4.65c-7.23-6.75-10.35-15.38-11.29-25-1.14-11.66.48-23.11,3-34.45,6.15-27.85,12.54-55.63,20.67-83a1.56,1.56,0,0,0,0-1.23c-.37.81-.75,1.61-1.1,2.43-10.58,24.62-20.83,49.39-31.85,73.81-8.46,18.74-18.47,36.72-31.62,52.7-6.55,8-13.68,15.37-22.49,20.9-5.17,3.25-10.63,5.75-16.8,6.42-8.26.89-15.14-1.72-20.24-8.33S34,214.4,33.69,206.33c-.69-17,2.72-33.35,8.21-49.19,7-20.27,14.84-40.28,22.5-60.33C71,79.62,78.25,62.68,83,44.88A140.2,140.2,0,0,0,87,24.38C88.68,9.41,80.44,5,70.37,2.74,42-3.75,19.61,9.32,5.7,30.59.59,38.41-.59,46.92,2.93,55.83a17.72,17.72,0,0,0,6.9,8.67,17.61,17.61,0,0,1,1.92,1.65Z"/></g></g></svg>