<svg xmlns="http://www.w3.org/2000/svg" viewBox="0 0 125.95 241.08"><g id="Layer_2" data-name="Layer 2"><g id="Layer_1-2" data-name="Layer 1"><path d="M30.31,202.9a37,37,0,0,0,3.76,1.28c5.83,1.37,10.59-2,11.34-8,1-8.12-5.84-16.33-14-17.26C19.6,177.62,1.78,188.84,1.1,204.3c-.4,9.06,3.2,16.63,9.57,22.9,7.43,7.32,16.68,10.79,26.8,12.17,16.51,2.24,31.6-1.39,44.58-12a47.51,47.51,0,0,0,8.84-10.2c6-8.78,5.72-18.12,1.29-27.48-4.78-10.1-11.87-18.58-19.94-26.08-9.81-9.12-20.1-17.71-30.27-26.42-10.8-9.26-21.11-19-28.38-31.36C3.88,89.33-.58,71.57,3.43,52.57,7.08,35.29,17,21.92,31.35,11.71,41.92,4.18,53.44-.39,66.64,0c27.14.85,47.15,15.88,55.74,41.88,5.39,16.35,5.09,32.4-3.83,47.4-7.51,12.63-18.91,19.2-33.94,18a24.39,24.39,0,0,1-9.56-3.2C64.91,98.35,58.61,85.26,60.74,75.14a2,2,0,0,1,1-1.36,16.67,16.67,0,0,1,0,1.87c-2.27,20,15.3,35.17,34.63,29.69,13.76-3.9,21.63-13.65,26-26.93C130.78,52.94,117,14.13,85.34,4.19c-24.91-7.83-45.92-1-63.65,17.07C8.9,34.29,2,50.05,3.11,68.64c1.15,19.17,8.49,35.79,21.21,50.17,9.43,10.68,20.55,19.46,31.43,28.52,12.23,10.18,24,20.86,32.9,34.19a62.31,62.31,0,0,1,4.22,7.3c5.35,10.94,4.62,21.37-2.67,31.3-8,10.81-18.88,16.79-31.7,19.51-14.92,3.16-29.19,1.27-42.31-6.81A33.19,33.19,0,0,1,1.73,215.14c-3.4-9.87-1.87-18.88,5.39-26.58,6.2-6.58,13.67-10.77,23-10.68,9.46.08,17.19,8.76,16.42,18.19a10.28,10.28,0,0,1-15.26,8.37A7,7,0,0,1,30,203.36Z"/></g></g></svg>