<svg xmlns="http://www.w3.org/2000/svg" viewBox="0 0 205.97 217.71"><g id="Layer_2" data-name="Layer 2"><g id="Layer_1-2" data-name="Layer 1"><path d="M26.81,153.15c1.45.58,2.89,1.18,4.36,1.73,4.87,1.83,8.85.23,12.26-3.32,8.91-9.28,8.06-25.63-1.72-34A8.91,8.91,0,0,0,31.48,116a27.26,27.26,0,0,0-13.85,13.43c-3.89,8.45-4.52,17.38-3.78,26.52.68,8.51,2.52,16.73,6.68,24.21a36.08,36.08,0,0,0,6.14,7.42c1.8,1.83,4.17,2.08,6.68,1.32A25.29,25.29,0,0,0,47.77,178a262.23,262.23,0,0,0,15.55-27.88c6.75-14.53,12.35-29.6,18.91-44.22,4.91-11,10.86-21.45,15.86-32.38,9.08-19.85,17.8-39.87,26.69-59.8,1.7-3.82,3.47-7.6,5.24-11.38.7-1.49,1.77-2.63,3.59-2.27a3.26,3.26,0,0,1,2.76,3.76c-.42,3.71-1.06,7.41-1.82,11.07-2.47,11.85-5.44,23.6-7.41,35.53a205.29,205.29,0,0,0-2.77,28.74c-.44,19-.11,38.05-.2,57.07-.06,15-.57,30-.32,45,.16,10,1.27,19.9,2,29.85a20.48,20.48,0,0,0,1.05,3.82l.65,0c.74-2.56,1.5-5.11,2.21-7.68,4.86-17.4,9.2-35,14.71-52.16,6.34-19.77,15.94-38.23,25-56.89,9.2-19,18.52-38,27.61-57.12,2.67-5.6,4.71-11.51,7.05-17.28.32-.78.72-1.54,1.08-2.31l.77.3c-.32,1-.61,2-1,2.92-6.76,17.79-15.18,34.81-23.7,51.81-11.75,23.45-23.6,46.88-33.21,71.33-6.56,16.69-10.81,34.08-15.19,51.42-1.3,5.12-2.73,10.2-4.13,15.3-.24.87-.65,1.7-1.19,3.08a12.72,12.72,0,0,1-2.88-7.28c-2-17.58-2.18-35.21-2.06-52.88s-.47-35.15-.64-52.73c-.11-11.17,0-22.34,0-32.89,0,0-.3.83-.5,1.63q-3,12.16-6,24.34c-3,12.15-8,23.57-12.8,35-7.16,17-15,33.68-24.49,49.51C72,192.82,64.46,202,53.71,208.07c-7,4-14.53,6.39-22.74,5.62-11.21-1.06-19.26-7.25-24.07-16.91-9.31-18.68-9.32-37.8.71-56.19,3.78-7,9.36-13,14.56-19.06,2.21-2.57,5.4-4.42,8.4-6.13,4.26-2.44,8.37-1.63,12,1.59,9.77,8.58,10.79,24.94,2.15,34.68C40,157,34.67,158.13,28.2,155.06a10.1,10.1,0,0,1-1.82-1.41Z"/></g></g></svg>