<svg xmlns="http://www.w3.org/2000/svg" viewBox="0 0 104.24 272.61"><g id="Layer_2" data-name="Layer 2"><g id="Layer_1-2" data-name="Layer 1"><path d="M3.21,270.94c.26-2,.49-4,.79-6.06a139.32,139.32,0,0,0,1-32.33c-2-24-5.69-47.85-4.86-72C.59,146.69,1.29,132.81,2.63,119,6,84.42,8.41,49.79,7.58,15c-.09-3.83,0-7.67.06-11.51A22.86,22.86,0,0,1,8.11,0c2.42,49.4-2.67,98.44-7.06,147.88,3.55-.38,6.52-.55,9.42-1a37.11,37.11,0,0,1,17.09.68,82.12,82.12,0,0,0,38,2,106.77,106.77,0,0,1,12.11-1.34,35,35,0,0,0,17.58-6c.39-.25,1.07,0,1.61-.06,0,.56.18,1.39-.11,1.64-1.27,1.07-2.56,2.41-4.08,2.86a61,61,0,0,1-10,2.09c-8.28,1-16.6,1.66-24.88,2.68A67.09,67.09,0,0,1,31,149.26a46.43,46.43,0,0,0-23.57-.91,9.31,9.31,0,0,1-1.83.18c-4.92.08-4.19-.2-4.38,4.44-.77,18.81.52,37.54,2.52,56.24q1.66,15.54,2.67,31.15c.65,10.07-.54,20.06-2.13,30a2.64,2.64,0,0,1-.38.72Z"/><path d="M99.53,272.61c.54-2.13,1.32-3.73,1.28-5.3-.15-5.74-.34-11.49-.93-17.2C98.17,233.67,98,217.19,98,200.7c0-21.48-.3-43,.22-64.45.34-14.23,1.67-28.46,3-42.66,1.51-16.66,2.91-33.3,1.52-50a10.12,10.12,0,0,0-.33-2.28c-2.93-8.79-1.46-18-2.37-26.93-.16-1.48-.18-3-.27-4.48l1-.1c.69,3.47,1.45,6.94,2.06,10.42a80.93,80.93,0,0,1,1,19.24c-.34,5.25.35,10.56.48,15.85.37,15.53-1.71,30.91-2.88,46.35-1.1,14.59-2.11,29.22-2.32,43.85-.35,24.39-.27,48.8.1,73.19.18,11.94,1.44,23.87,2.18,35.8.25,4.2.46,8.42.57,12.63a10.64,10.64,0,0,1-.61,3.83C101,271.6,100.12,272.05,99.53,272.61Z"/></g></g></svg>