<svg xmlns="http://www.w3.org/2000/svg" viewBox="0 0 121.32 239.23"><g id="Layer_2" data-name="Layer 2"><g id="Layer_1-2" data-name="Layer 1"><path d="M4.34,9.36l-3-1c0,2.19,0,4.15,0,6.11C1.22,26.37.74,38.26,1,50.14c.36,17.48,1.22,35,1.88,52.42.46,12.18.75,24.38,1.48,36.55,1.25,21,2.42,42.12,7.79,62.65a59.77,59.77,0,0,0,10.32,21.66c9.37,12.19,21.62,16.94,36.69,14,6.92-1.34,13.82-2.86,20.62-4.69,17.55-4.71,28.63-15.84,33.51-33.51,5.45-19.78,7.36-39.82,7-60.3-.31-17.45-2.6-34.7-4-52-.68-8.41-.94-16.85-1.62-25.25-.78-9.63-2-19.22-2.69-28.85-.5-6.49-.55-13-.75-19.54-.15-4.54-.89-8.92-3.47-12.84l.62-.43a13.59,13.59,0,0,1,1.47,2c2.44,5,2.54,10.38,2.55,15.75,0,13.67,1.55,27.23,2.91,40.81.83,8.39,1.06,16.83,1.75,25.24.71,8.63,1.78,17.23,2.47,25.86,2,24.8,3.39,49.61-1.74,74.24-1.37,6.59-3.06,13.13-5,19.57-4.4,14.41-14.24,24-28.26,28.6-9.75,3.18-20,5.08-30.15,6.72-10.56,1.71-19.77-2.07-27.52-9.31-8.58-8-13.24-18.26-16.08-29.44a199,199,0,0,1-5.59-37.72c-1.46-25.26-2.48-50.54-3.62-75.82C1,73.51.32,60.49.05,47.46-.14,38.64.28,29.82.36,21c0-3.6-.2-7.21-.17-10.81,0-.92.36-2.49.86-2.63A2.52,2.52,0,0,1,4.34,9.36Z"/></g></g></svg>