<svg xmlns="http://www.w3.org/2000/svg" viewBox="0 0 239.48 234.57"><g id="Layer_2" data-name="Layer 2"><g id="Layer_1-2" data-name="Layer 1"><path d="M235.29,54.7c.2-.74.37-1.48.6-2.21a41.89,41.89,0,0,0,2.36-16.34c-.16-2.12-.24-4.56-2.54-5.48s-4.29.64-5.58,2.26a72.71,72.71,0,0,0-7.75,11c-7,13.32-11.56,27.65-15.45,42.13-5.45,20.24-10.27,40.64-16,60.8-5,17.86-10.66,35.56-16.49,53.18a69.84,69.84,0,0,1-13.82,24.6,38.84,38.84,0,0,1-9.52,8c-6.92,3.92-13.9,1.73-18-5.1-3.59-6-4.38-12.67-4.64-19.44-.64-16.31,4-31.54,10-46.41,3.8-9.4,8.23-18.55,12.25-27.86a40.4,40.4,0,0,0,2.69-8.25c.93-4.87-1.5-7.44-6.31-6.37a24.21,24.21,0,0,0-8.23,3.81c-6,4.14-10.33,9.87-14.47,15.75-9.81,14-16.77,29.43-23.65,44.94-4.28,9.65-8.53,19.34-13.38,28.7a57.29,57.29,0,0,1-9.15,12.22c-3.58,3.86-8.11,6.55-13.67,6.66a14.86,14.86,0,0,1-14.43-9.47c-2.9-6.81-3-13.94-2.25-21.13,1.8-16.87,8.06-32.35,15.23-47.51,7-14.73,14.29-29.28,21-44.1A116.29,116.29,0,0,0,94.64,56.58C94.19,42.1,91.83,28,83.08,15.88A51.49,51.49,0,0,0,74.47,6.5C66.79.08,58.21-.91,49.25,3.77c-13.15,6.86-21.11,18-25.65,31.81C22.1,40.14,21.43,45,20.34,49.9c2.66,0,4.68-.15,6.67,0a25.28,25.28,0,0,1,16.68,8.63c8.8,9.7,12.49,21.17,10.53,34.21-.82,5.5-3.9,8.66-8.24,9.15-3.16.35-5.83-1-8.26-2.81A37,37,0,0,1,27,86a67,67,0,0,1-7.36-30.28c0-1.18,0-2.36,0-4A26.29,26.29,0,0,0,4,66.56C1.09,73.44-.07,80.5,2.57,87.87L1.71,88A22.78,22.78,0,0,1,.55,84.7,30.83,30.83,0,0,1,18.34,51a3.86,3.86,0,0,0,1.53-2.74c1.91-16.61,8.79-30.6,22.09-41C56.57-4.14,70.82-2,82.15,12.78,91,24.28,94.31,37.55,95.4,51.66c2,25.49-5.2,48.82-16.36,71.35-7.59,15.33-15,30.79-21.81,46.48-5.38,12.4-9,25.44-8.55,39.17a40.75,40.75,0,0,0,2.18,12c3.11,8.91,12.28,12.17,20.67,7.77a29,29,0,0,0,12.15-11.81C88.41,208,92.86,199.1,96.9,190.1c6.57-14.63,12.76-29.44,21.08-43.2,4.56-7.54,9.42-14.89,15.93-20.91a59.88,59.88,0,0,1,8.85-6.43,12.92,12.92,0,0,1,4.82-1.58c4.31-.65,7.42,2,6.93,6.26a35.39,35.39,0,0,1-2.68,9.52c-4,9.33-8.38,18.46-12.22,27.83-5.06,12.34-9.05,25-10,38.44a60.41,60.41,0,0,0,1.61,20.31,30.54,30.54,0,0,0,1.51,4.34c4,9.08,12.08,11.42,20.32,5.84,5.79-3.93,9.71-9.52,13.21-15.42,6.5-11,10.29-23,14-35.07,9.09-29.24,16.69-58.87,24.09-88.57,3.84-15.4,8.53-30.57,15.49-44.9A95.51,95.51,0,0,1,227.66,34a14.56,14.56,0,0,1,4.67-3.87c2.82-1.66,5.26-.74,6.23,2.41a16.53,16.53,0,0,1,.85,6.52c-.51,4.55-1.51,9-2.38,13.55A12.51,12.51,0,0,1,236,55ZM54,88c-.47-10.11-2.83-18.7-8.51-25.95S32.73,50.26,23.07,51c-1.84.14-2.61.73-2.48,2.62.25,3.39.14,6.82.59,10.18C22.48,73.65,25.3,83,31.35,91a37.29,37.29,0,0,0,9,8.47c5.16,3.39,10.4,1.19,12.27-4.72A48.83,48.83,0,0,0,54,88Z"/></g></g></svg>