<svg xmlns="http://www.w3.org/2000/svg" viewBox="0 0 73.34 218.17"><g id="Layer_2" data-name="Layer 2"><g id="Layer_1-2" data-name="Layer 1"><path d="M0,10.76a5.84,5.84,0,0,1,1.69-1c2.9-.49,5.84-.79,8.74-1.3,6.27-1.09,12.5-2.42,18.78-3.39C39,3.58,48.79,2.31,58.58.91c1.51-.21,3-.56,4.52-.79C63.85,0,64.62,0,65.38,0c0,.24.05.49.07.73-2.94.52-5.87,1.14-8.82,1.53C50.18,3.11,43.73,4,37.26,4.59c-2.76.27-4.8,1.5-5.5,4a83.15,83.15,0,0,0-2.85,13.17c-2,18.07-1.21,36.12.24,54.2,1.12,13.9,1.6,27.85,2.53,41.77.88,13.08,1.94,26.15,3,39.21.77,9.78,1.57,19.56,2.49,29.32.52,5.41,1.39,10.79,1.94,16.2.23,2.25,0,4.55,0,7.09,3.54-.21,7.1-.62,10.67-.59,6.57.06,13.15.29,19.72.64,1.58.08,3.73.32,3.82,2.54s-2,2.46-3.46,2.77a127.82,127.82,0,0,1-13.3,2.27c-5.56.55-11.16.64-16.73.94-6.22.33-11.93-1.58-17.6-3.8C15.14,211.56,8,208.94.78,205.9a11.85,11.85,0,0,1,2.48.29c3.48,1.17,6.92,2.47,10.4,3.65a9.68,9.68,0,0,0,3.37.67c6.88-.19,13.76-.49,20.6-.75,1.58-4.82.19-9.27-.2-13.72-1-10.6-2.18-21.19-3.06-31.8q-2-24.53-3.7-49.07C29.34,95.67,28,76.16,27,56.64a203.08,203.08,0,0,1,1.82-41.52c.49-3.19,1.82-6.25,2.78-9.44L.25,11.3Z"/></g></g></svg>