<svg xmlns="http://www.w3.org/2000/svg" viewBox="0 0 95.24 137.9"><g id="Layer_2" data-name="Layer 2"><g id="Layer_1-2" data-name="Layer 1"><path d="M42.5,118.33c6.9,0,13.18-.39,19.41.09,9.28.72,18.51,2,27.75,3.14a11,11,0,0,1,3.65,1.3c2.53,1.36,2.58,3.35.12,4.87a11.33,11.33,0,0,1-3.57,1.51c-4.19.83-8.38,1.69-12.62,2.16-9.78,1.09-19.52.18-29.22-1.17-1.58-.22-3.19-.26-4.94-.4-.45,2.7-.89,5.38-1.34,8.07l-.88-.11c.36-2.62.72-5.24,1.11-8.06-3.42-.19-6.45-.33-9.48-.54-5.55-.4-11.1-1-16.66-1.2a66.79,66.79,0,0,0-8.08.64c-.34,0-.69,0-1.22-.59.73-.35,1.46-1,2.2-1,6.32-.13,12.05-2.62,18-4.32,4.4-1.27,8.84-2.43,13.28-3.53,1.2-.3,1.81-.61,1.85-2,.48-17.34,1.32-34.68,1.51-52C43.53,50.09,43,35,42.74,20a7.42,7.42,0,0,1,.32-2.67C45.11,51,44,84.77,42.5,118.33Z"/><path d="M0,12.49a4.25,4.25,0,0,1,1.18-.6c5.72-.79,11.5-1.28,17.17-2.36A153.24,153.24,0,0,0,34.56,5.42c8-2.48,16.27-3.44,24.58-4.14C64.24.85,69.32.23,74.43,0a46.68,46.68,0,0,1,8,.79,6.07,6.07,0,0,1,2.8,1A4.23,4.23,0,0,1,87,4.29c0,.7-1.14,1.93-2,2.13A92.86,92.86,0,0,1,73,8.84q-19.11,2-38.28,3.58a34.64,34.64,0,0,1-9.8-.61c-7.39-1.56-14.57-.73-21.75,1a19.92,19.92,0,0,1-3,.28C.1,12.9.05,12.7,0,12.49Z"/></g></g></svg>