<svg xmlns="http://www.w3.org/2000/svg" viewBox="0 0 154.69 206.06"><g id="Layer_2" data-name="Layer 2"><g id="Layer_1-2" data-name="Layer 1"><path d="M14.49,206.06c-.82-1.55-2-3-2.39-4.66-1.24-5-2.33-10-3.23-15-4.15-23.32-5.53-46.87-6-70.52C2.44,98.52,1.44,81.21,1,63.88c-.49-18.1-.7-36.2-1-54.3C0,5.82,1.94,3.64,6,3.43s8.41.07,12.62.15c5.82.11,11.67.59,17.46.25,4.48-.26,8.86-1.77,13.33-2.3C54.94.88,60.54.54,66.12.32c6-.24,12.11-.48,18.14-.18a99.8,99.8,0,0,1,28.49,5.93c1.87.66,3.86,1,5.76,1.6a23.25,23.25,0,0,1,4.43,1.84c.77.43,1.25,1.39,1.85,2.11-.73.47-1.41,1.25-2.19,1.36-4,.54-8.06.79-12.07,1.37-9.44,1.36-18.6-.73-27.85-1.94A86.08,86.08,0,0,0,70.34,12a74.46,74.46,0,0,1-29-5.27,24.32,24.32,0,0,0-7.57-1.51c-8.42-.45-16.85-.66-25.28-.93a14.22,14.22,0,0,0-3.86.26C2,5.25.89,6.57.93,9.34c.29,18.26.51,36.52,1,54.77.41,15.63,1.29,31.26,1.7,46.9.49,19,.9,38,3.48,56.91,1.35,9.94,3.13,19.82,5,29.69.51,2.77,1.89,5.38,2.88,8.06Z"/><path d="M8.56,109.82l3.17-2.5.48.52-1.72,1.9a15.59,15.59,0,0,0,2.61-.29c17.7-5.35,36-7.52,54.21-10,12.23-1.63,24.57-2.67,36.86-.3a17.78,17.78,0,0,1,5.13,1.88c2.28,1.26,2.37,2.86,0,3.79a30.25,30.25,0,0,1-9.46,2.37c-9.64.43-19.3.57-28.95.47A83.55,83.55,0,0,1,57,106.32c-8.57-1.55-16.92-.72-25.27,1.4-6.61,1.68-13.22,3.44-20.15,3-.89,0-1.78-.14-2.66-.2Z"/><path d="M14.7,196.54c.48,3.2.55,3.1,4,2.53,9.68-1.58,19.43-2.73,29.05-4.59,13-2.52,26.2-2.61,39.36-3.38,8.87-.52,17.7-1.76,26.57-2.11,9.24-.37,18.26-1.9,27.34-3.42a69.75,69.75,0,0,1,11.4-.47c.75,0,1.5.81,2.25,1.26-.63.58-1.17,1.53-1.9,1.7a42.57,42.57,0,0,1-8.53,1.53c-9.43.23-18.87-.07-28.28.29-8.26.32-16.48,1.28-24.73,1.91-4.12.32-8.25.82-12.38.75-11.55-.2-22.88,1.55-34.21,3.44-6.41,1.07-12.9,1.66-19.33,2.61-2.94.43-5.81,1.31-8.75,1.75a3,3,0,0,1-2.45-1.13c-.43-.65-.1-1.8-.1-2.73Z"/></g></g></svg>